<svg width="200" height="64" viewBox="0 0 200 64" fill="none" xmlns="http://www.w3.org/2000/svg">
<path d="M16 64L0 48.2462V0H16V64Z" fill="white" fill-opacity="0.2"/>
<rect width="168" height="64" transform="translate(16)" fill="white" fill-opacity="0.2"/>
<path d="M46.136 21.348V42.636H48.752V23.844H57.824V42.444H60.56V21.348H46.136ZM49.376 26.796V28.884H57.272V26.796H49.376ZM47.48 38.724V41.244H59.144V38.724H47.48ZM52.136 24.348V32.052H54.368V24.348H52.136ZM52.064 32.964H54.512V35.46H52.064V32.964ZM50 30.972V37.452H56.696V30.972H50ZM43.16 20.196C42.08 23.628 40.232 27.084 38.216 29.292C38.672 30.036 39.392 31.716 39.608 32.412C42.104 29.58 44.408 25.14 45.8 20.988L43.16 20.196ZM41.192 26.772V42.684H43.928V24.084L43.904 24.06L41.192 26.772ZM72.944 20.7C72.776 23.844 73.112 34.812 63.464 40.164C64.448 40.836 65.384 41.724 65.888 42.468C75.704 36.444 76.016 24.732 76.232 20.7H72.944ZM76.136 21.324L73.352 21.612C73.544 24.084 74 37.308 84.344 42.444C84.776 41.652 85.64 40.692 86.552 39.996C76.712 35.388 76.208 23.412 76.136 21.324ZM89 23.676V26.292H110.84V23.676H89ZM91.832 31.86V33.972H98.072V31.86H91.832ZM91.832 35.532V37.668H98.072V35.532H91.832ZM101.888 28.188V38.028H104.552V28.188H101.888ZM97.064 27.948V39.78C97.064 40.068 96.968 40.164 96.656 40.164C96.368 40.188 95.384 40.188 94.496 40.14C94.856 40.812 95.264 41.868 95.408 42.588C96.896 42.588 98 42.564 98.792 42.132C99.608 41.724 99.848 41.052 99.848 39.828V27.948H97.064ZM106.712 27.54V39.468C106.712 39.804 106.592 39.9 106.208 39.9C105.8 39.924 104.552 39.924 103.328 39.852C103.736 40.596 104.192 41.82 104.336 42.588C106.112 42.612 107.408 42.516 108.32 42.084C109.28 41.652 109.544 40.908 109.544 39.516V27.54H106.712ZM92.312 21.06C93.152 22.02 94.04 23.388 94.376 24.252L97.28 23.22C96.872 22.308 95.912 21.036 95.048 20.1L92.312 21.06ZM104.624 20.052C104.096 21.348 103.112 23.1 102.296 24.228L104.888 25.116C105.728 24.06 106.784 22.524 107.768 20.988L104.624 20.052ZM90.32 27.948V42.516H93.032V30.348H97.88V27.948H90.32ZM121.832 28.716V31.26H136.064V28.716H121.832ZM126.152 33.828V42.396H128.336V33.828H126.152ZM129.632 33.828V42.372H131.816V33.828H129.632ZM127.496 20.196V26.436H130.256V20.196H127.496ZM122.36 32.868V42.612H124.928V35.268H134.528V32.868H122.36ZM133.088 32.868V40.14C133.088 40.332 133.04 40.404 132.848 40.404C132.68 40.428 132.2 40.428 131.72 40.404C132.032 41.028 132.32 41.988 132.392 42.684C133.448 42.684 134.24 42.66 134.888 42.252C135.512 41.892 135.656 41.244 135.656 40.188V32.868H133.088ZM127.376 29.556C127.256 30.804 126.92 32.508 126.608 33.732L129.032 34.428C129.536 33.396 130.112 31.812 130.76 30.276L127.376 29.556ZM122.696 21.3V27.468H135.32V21.3H132.584V24.996H125.312V21.3H122.696ZM113.936 24.684V27.252H121.568V24.684H113.936ZM116.552 20.484V25.932H119.12V20.484H116.552ZM113.408 37.188L114.032 39.996C116.384 39.42 119.408 38.676 122.216 37.932L121.928 35.412C118.832 36.084 115.592 36.78 113.408 37.188ZM114.2 28.308C114.632 30.564 114.944 33.516 114.92 35.46L117.176 35.052C117.152 33.108 116.84 30.204 116.312 27.924L114.2 28.308ZM118.808 27.756C118.64 30.276 118.16 33.756 117.656 35.916L119.744 36.444C120.32 34.38 120.968 31.02 121.472 28.284L118.808 27.756ZM150.752 27.252V29.844H157.928V27.252H150.752ZM150.752 33.276V35.868H157.928V33.276H150.752ZM149.264 21.324V41.028H152.048V23.916H156.656V41.028H159.56V21.324H149.264ZM147.056 39.444V42.036H161.168V39.444H147.056ZM142.16 20.148C141.608 21.828 140.576 24.132 139.712 25.572L141.656 26.364C142.592 25.044 143.72 22.908 144.704 21.036L142.16 20.148ZM145.04 22.98C143.768 25.548 141.584 29.076 139.736 31.236L141.488 32.124C143.336 30.084 145.688 26.748 147.464 23.988L145.04 22.98ZM138.464 25.836C139.688 26.988 141.152 28.644 141.752 29.796L143.216 27.54C142.592 26.484 141.104 24.948 139.808 23.844L138.464 25.836ZM144.44 28.764C145.352 30.42 146.24 32.604 146.528 33.972L148.712 32.964C148.4 31.572 147.44 29.484 146.48 27.876L144.44 28.764ZM138.44 30.708L138.68 33.204C141.056 33.06 144.176 32.844 147.2 32.604V30.324C143.984 30.492 140.672 30.636 138.44 30.708ZM144.872 34.788C145.448 36.252 146.072 38.196 146.288 39.444L148.544 38.628C148.256 37.404 147.608 35.532 146.984 34.092L144.872 34.788ZM139.472 34.236C139.28 36.276 138.896 38.412 138.2 39.828C138.8 40.068 139.88 40.572 140.384 40.884C141.08 39.348 141.608 36.948 141.848 34.644L139.472 34.236ZM142.256 31.98V42.684H144.824V31.98H142.256Z" fill="white"/>
<path d="M184 0L200 15.7538V64H184V0Z" fill="white" fill-opacity="0.2"/>
</svg>
