<svg width="1067" height="352" viewBox="0 0 1067 352" fill="none" xmlns="http://www.w3.org/2000/svg">
<path fill-rule="evenodd" clip-rule="evenodd" d="M396.596 289.067L173.223 229.101L172.846 229L172.5 229.181L58 289.181L58.4641 290.067L58.2049 291.033L281.705 351.033L282.082 351.134L282.428 350.953L396.71 291.067H548.964V289.067H396.596ZM393.733 290.369L173.082 231.134L61.1953 289.765L281.846 349L393.733 290.369Z" fill="white"/>
<path fill-rule="evenodd" clip-rule="evenodd" d="M338.596 60.0671L115.223 0.101299L114.846 0L114.5 0.181347L0 60.1813L0.464142 61.0671L0.204866 62.0329L223.705 122.033L224.082 122.134L224.428 121.953L338.71 62.0671H611.5V60.0671H338.596ZM335.733 61.3693L115.082 2.13421L3.19532 60.7649L223.846 120L335.733 61.3693Z" fill="white"/>
<rect x="683" y="79" width="362" height="175" fill="white" fill-opacity="0.15"/>
<path d="M1066.5 92L1046 112.5V160.5L1066.5 181V92Z" fill="white"/>
<path d="M1066.5 289.5L1046 269L941 269L920.5 289.5L1066.5 289.5Z" fill="white"/>
<path d="M528 87.5L509 60H644.5L652 67.5H742L747.5 60H880.5L888 67.5H975.5L982.5 60H1046L1060.5 73L1046 87.5H941L933 81H699.5L694.5 87.5H528Z" fill="white"/>
<path d="M1045.5 174L1065 193.5V249" stroke="white" stroke-width="3"/>
<path d="M784.5 270L765 290L517 290" stroke="white" stroke-width="2"/>
<g filter="url(#filter0_d_464_146)">
<path d="M819.896 130.176L820.624 127.32H827.848L829.528 120.656H822.304L823.368 116.344H815.864L814.8 120.656H807.072L805.392 127.32H813.12L812.392 130.176H803.096L801.416 136.952H807.296L804.496 137.4C804.832 138.856 804.888 140.704 804.888 142.216L801.36 142.664L799.68 149.44H807.576L806.736 152.968H797.44L795.76 159.744H805.056L802.704 169.152H810.208L812.56 159.744H821.016L822.696 152.968H814.24L815.08 149.44H822.416L824.152 142.664L821.24 143.056C822.304 141.544 823.592 139.808 824.824 138.128L821.632 136.952H826.672L828.352 130.176H819.896ZM852.6 139.696L848.176 137.512L846.888 137.792H834.96L838.04 125.416H847.224L846.552 128.216C846.384 128.832 845.6 129.336 844.368 129.336C843.976 129.392 840.728 129.448 838.824 129C839.608 130.848 839.72 133.704 839.888 135.776C843.752 136.224 846.832 136.392 849.744 135.552C852.208 134.32 852.936 132.584 853.776 129.28L856.52 118.36H832.496L819.784 169.264H827.12L828.352 165.512C829.192 166.688 830.032 167.92 830.76 169.32C832.832 168.144 835.072 166.296 837.592 163.832C838.768 165.512 840.336 167.304 842.296 169.096C843.584 167.304 846.832 164.28 848.512 163.048C845.936 161.424 844.088 159.632 842.632 157.84C846.888 152.352 849.968 146.36 852.6 139.696ZM814.464 142.216L808.864 142.664L811.16 142.384C811.16 141.04 810.88 139.024 810.488 137.344L817.992 136.504C817.04 138.296 815.696 140.424 814.464 142.216ZM838.208 144.624L843.08 143.728C842.072 145.856 840.896 147.872 839.328 150.224C838.768 148.712 838.432 146.752 838.208 144.624ZM828.744 161.704L832.44 148.432C832.832 151.512 833.504 154.424 834.232 156.72C832.328 158.792 830.536 160.36 828.744 161.704ZM895.944 169.32L902.496 143.112L886.592 143.392C894.712 138.576 901.656 132.528 907.2 124.856L902.104 121.16L900.76 121.552L886.48 121.888C887.824 120.656 889.112 119.424 890.344 118.08L881.384 115.336C876.68 120.6 869.12 126.144 859.32 129.672C861.112 131.24 862.848 134.264 863.8 136.448C868.728 134.488 873.264 132.024 877.464 129.168L893.424 128.552C890.008 131.856 885.752 134.88 880.768 137.68C879.144 135.944 876.96 133.872 875.168 132.304L868.28 136.392C869.904 137.848 871.528 139.64 872.76 141.264C866.488 143.896 860.104 145.856 854 146.808C855.456 148.656 856.296 152.016 856.968 154.312C859.488 154.144 862.232 153.528 864.976 152.688L860.44 169.264H868.616L869.176 167.136H888.048L887.488 169.32H895.944ZM889.84 159.8H870.968L873.32 150.448H892.192L889.84 159.8ZM913.248 139.36L911.568 146.08L948.864 145.8C946.4 147.312 943.264 150 940.8 152.576L946.344 156.608C951.384 151.68 958.552 146.36 964.096 143.224C959.56 139.64 955.192 134.488 952.56 129.56L946.288 132.08C947.52 134.656 949.48 137.568 951.16 139.08L913.248 139.36Z" fill="#02D7F2"/>
</g>
<g filter="url(#filter1_d_464_146)">
<path d="M761.352 203.232C762.72 204.288 764.256 205.8 764.952 206.832L766.272 205.776C765.552 204.744 763.992 203.304 762.6 202.32L761.352 203.232ZM745.224 207.96V209.568H766.752V207.96H745.224ZM746.256 204.072V205.608H756.84V204.072H746.256ZM747.984 215.184V216.384H756.384V215.184H747.984ZM747.984 218.04V219.24H756.384V218.04H747.984ZM747.984 220.944V222.432H756.744V220.944H747.984ZM750.744 201.864V208.824H752.472V201.864H750.744ZM751.584 212.976V221.448H753.072V212.976H751.584ZM752.784 209.928C752.544 210.792 751.968 212.064 751.536 212.904L752.784 213.288C753.288 212.52 753.888 211.392 754.416 210.336L752.784 209.928ZM748.536 209.76C747.696 211.848 746.304 213.936 744.792 215.304C745.152 215.544 745.8 216.096 746.088 216.36C747.624 214.848 749.136 212.496 750.096 210.168L748.536 209.76ZM748.632 212.208H748.368L747.048 213.624V223.68H748.632V213.624H756.768V212.208H748.632ZM757.896 201.888C757.992 213.744 759.672 223.92 764.424 223.92C766.2 223.92 766.848 222.792 767.136 218.976C766.68 218.808 766.032 218.448 765.648 218.064C765.504 221.016 765.216 222.168 764.568 222.168C761.568 222.168 759.624 213.312 759.72 201.888H757.896ZM763.968 210.648C762.384 215.712 759.432 220.128 755.256 222.576C755.712 222.936 756.264 223.536 756.576 223.968C760.872 221.184 763.92 216.576 765.624 211.176L763.968 210.648ZM780.912 209.904V211.704H789.696V209.904H780.912ZM769.152 220.944V222.72H790.776V220.944H769.152ZM779.952 201.912V221.856H781.848V201.912H779.952ZM772.488 207.144V221.784H774.336V207.144H772.488ZM793.272 205.632V207.312H814.728V205.632H793.272ZM795.744 213.36V214.776H802.464V213.36H795.744ZM795.744 217.2V218.616H802.464V217.2H795.744ZM806.472 209.664V219.528H808.176V209.664H806.472ZM801.816 209.448V221.832C801.816 222.144 801.72 222.24 801.384 222.264C801.048 222.288 799.944 222.288 798.744 222.24C798.984 222.696 799.248 223.368 799.344 223.824C800.976 223.824 802.032 223.824 802.68 223.536C803.352 223.248 803.568 222.768 803.568 221.856V209.448H801.816ZM811.344 208.944V221.688C811.344 222.024 811.224 222.12 810.84 222.144C810.432 222.168 809.136 222.168 807.672 222.12C807.936 222.6 808.224 223.368 808.32 223.848C810.192 223.848 811.392 223.8 812.136 223.536C812.88 223.248 813.12 222.744 813.12 221.688V208.944H811.344ZM796.992 202.44C797.904 203.472 798.888 204.936 799.272 205.848L801.048 205.2C800.592 204.264 799.584 202.848 798.648 201.816L796.992 202.44ZM809.328 201.744C808.728 203.04 807.648 204.888 806.784 206.04L808.368 206.64C809.256 205.512 810.336 203.856 811.248 202.368L809.328 201.744ZM794.784 209.448V223.8H796.488V211.008H802.392V209.448H794.784ZM833.904 204.096V221.304C833.904 221.808 833.736 221.976 833.208 222C832.632 222.024 830.688 222.048 828.744 221.952C829.032 222.48 829.392 223.368 829.512 223.896C831.888 223.896 833.568 223.872 834.528 223.56C835.464 223.272 835.776 222.648 835.776 221.352V204.096H833.904ZM819.792 208.896V219.768H821.544V208.896H819.792ZM820.536 208.896V210.6H827.832V216.12H820.536V217.848H829.632V208.896H820.536ZM817.32 203.544V205.368H838.728V203.544H817.32ZM856.728 212.76C855.456 214.008 853.032 215.136 850.872 215.784C851.232 216.048 851.664 216.504 851.904 216.84C854.184 216.096 856.656 214.848 858.12 213.312L856.728 212.76ZM859.032 215.064C857.4 216.768 854.256 218.136 851.208 218.832C851.544 219.144 851.904 219.672 852.144 220.008C855.36 219.144 858.576 217.632 860.4 215.64L859.032 215.064ZM861.288 217.68C859.128 220.152 854.712 221.688 849.888 222.384C850.248 222.768 850.656 223.392 850.824 223.824C855.912 222.936 860.448 221.208 862.824 218.352L861.288 217.68ZM853.536 201.84C852.552 204.408 850.8 206.904 848.88 208.512C849.288 208.752 849.96 209.304 850.248 209.592C852.192 207.816 854.04 205.104 855.216 202.248L853.536 201.84ZM853.008 204.456L852.096 205.968H862.776V204.456H853.008ZM859.488 204.792C857.856 208.872 853.92 211.224 849.072 212.472C849.408 212.808 849.936 213.528 850.152 213.888C855.12 212.352 859.248 209.76 861.192 205.2L859.488 204.792ZM852.84 205.392L851.736 206.28C853.32 209.256 856.92 212.4 862.56 213.672C862.776 213.24 863.208 212.568 863.544 212.232C857.928 211.176 854.304 208.272 852.84 205.392ZM847.44 204.696V219.936H849.024V204.696H847.44ZM845.568 201.984C844.416 205.704 842.496 209.4 840.408 211.8C840.72 212.256 841.2 213.216 841.344 213.624C843.744 210.84 845.88 206.616 847.248 202.464L845.568 201.984ZM843.648 207.864V223.92H845.376V206.256L845.328 206.208L843.648 207.864ZM866.616 210.384V212.04H872.712V210.384H866.616ZM865.656 203.952V205.632H872.088V212.952H873.816V203.952H865.656ZM865.656 210.384V218.064C865.656 220.104 866.256 220.632 868.392 220.632C868.848 220.632 871.632 220.632 872.112 220.632C873.984 220.632 874.488 219.864 874.704 216.816C874.2 216.696 873.456 216.408 873.072 216.096C872.976 218.544 872.832 218.928 871.968 218.928C871.368 218.928 869.04 218.928 868.584 218.928C867.576 218.928 867.408 218.808 867.408 218.04V210.384H865.656ZM877.2 206.256V207.96H887.088V206.256H877.2ZM877.824 201.864C877.056 205.848 875.616 209.592 873.504 211.968C873.96 212.232 874.752 212.784 875.112 213.096C877.2 210.504 878.76 206.52 879.696 202.176L877.824 201.864ZM883.44 206.928C882.288 215.232 879.48 219.936 872.616 222.408C872.976 222.816 873.528 223.608 873.72 224.016C880.848 221.088 883.92 216.096 885.264 207.144L883.44 206.928ZM877.92 207.792L876.264 208.104C877.728 215.592 880.536 221.304 886.104 223.92C886.392 223.416 886.968 222.72 887.376 222.36C882.024 220.104 879.216 214.608 877.92 207.792ZM901.344 211.128V212.616H909.192V211.128H901.344ZM900.432 202.968V223.944H902.088V204.576H909.024V202.968H900.432ZM908.16 202.968V207.576C908.16 207.84 908.064 207.936 907.68 207.96C907.296 207.984 906.048 207.984 904.56 207.936C904.8 208.392 905.04 209.04 905.112 209.52C906.96 209.52 908.16 209.496 908.904 209.232C909.648 208.968 909.84 208.488 909.84 207.6V202.968H908.16ZM903.696 212.112L902.28 212.472C903.696 217.464 906.36 221.832 910.056 223.92C910.344 223.464 910.896 222.816 911.304 222.456C907.704 220.704 904.992 216.6 903.696 212.112ZM908.64 211.128V211.512C907.896 215.904 905.64 220.392 902.04 222.744C902.448 223.056 902.976 223.56 903.24 223.968C907.08 221.376 909.456 216.648 910.392 211.44L909.288 211.032L908.976 211.128H908.64ZM889.848 204.312V205.872H898.752V204.312H889.848ZM889.56 217.44V219H899.064V217.44H889.56ZM888.984 208.272V209.832H899.664V208.272H888.984ZM889.32 213.264V214.824H899.376V213.264H889.32ZM893.544 201.888V208.824H895.224V201.888H893.544ZM893.544 213.912V223.872H895.224V213.912H893.544ZM896.784 209.736C896.52 210.672 895.992 212.088 895.584 212.976L896.928 213.384C897.384 212.544 897.84 211.296 898.32 210.144L896.784 209.736ZM890.664 210.12C891.144 211.176 891.6 212.544 891.72 213.408L893.16 213C893.04 212.16 892.56 210.792 892.032 209.784L890.664 210.12ZM920.736 221.304V222.96H932.328V221.304H920.736ZM919.92 204.264V205.872H928.728V204.264H919.92ZM921 201.768C919.608 204.384 916.848 207.48 912.888 209.64C913.296 209.952 913.896 210.576 914.16 211.032C918.336 208.56 921.216 205.296 923.016 202.176L921 201.768ZM928.128 204.264V204.576C925.632 210.888 918.984 215.592 912.768 217.392C913.152 217.776 913.608 218.52 913.824 219C920.352 216.888 927.12 212.064 930 204.816L928.8 204.168L928.464 204.264H928.128ZM916.92 208.536C918.816 209.88 921.096 211.896 922.104 213.264L923.568 211.968C922.464 210.6 920.16 208.68 918.264 207.384L916.92 208.536ZM931.44 213.72V223.968H933.288V213.72H931.44ZM921.552 213.72H921.192L919.752 215.136V223.92H921.552V215.376H932.352V213.72H921.552ZM948.6 209.256V210.912H956.376V209.256H948.6ZM948.6 215.352V216.984H956.376V215.352H948.6ZM947.664 203.208V222.624H949.416V204.84H955.536V222.624H957.336V203.208H947.664ZM945.144 221.592V223.248H959.184V221.592H945.144ZM940.68 201.864C940.056 203.448 938.952 205.752 938.04 207.144L939.288 207.672C940.224 206.376 941.376 204.24 942.288 202.464L940.68 201.864ZM943.584 204.6C942.264 207.144 939.984 210.744 938.136 212.88L939.288 213.48C941.112 211.416 943.464 207.96 945.144 205.272L943.584 204.6ZM936.888 206.904C938.184 208.056 939.696 209.712 940.344 210.84L941.304 209.472C940.656 208.416 939.144 206.832 937.8 205.704L936.888 206.904ZM942.816 210.168C943.8 211.752 944.76 213.84 945.12 215.184L946.56 214.512C946.2 213.192 945.168 211.128 944.16 209.592L942.816 210.168ZM936.84 212.592L936.984 214.2C939.264 214.08 942.312 213.912 945.36 213.72V212.256C942.192 212.4 939 212.52 936.84 212.592ZM943.416 215.904C944.088 217.392 944.736 219.336 944.952 220.584L946.416 220.08C946.152 218.832 945.48 216.936 944.784 215.472L943.416 215.904ZM938.16 215.568C937.872 217.68 937.392 219.816 936.6 221.28C936.984 221.448 937.704 221.784 938.016 221.976C938.784 220.44 939.384 218.112 939.72 215.856L938.16 215.568ZM940.92 213.288V223.992H942.552V213.288H940.92ZM974.232 204.744V218.04H975.984V204.744H974.232ZM980.112 202.296V221.544C980.112 222 979.92 222.144 979.464 222.144C979.008 222.168 977.52 222.192 975.792 222.12C976.08 222.648 976.368 223.464 976.464 223.944C978.672 223.968 980.016 223.92 980.808 223.608C981.576 223.32 981.888 222.768 981.888 221.544V202.296H980.112ZM965.328 213.408V215.016H971.016V213.408H965.328ZM970.248 213.408V213.72C970.008 219.456 969.768 221.592 969.312 222.096C969.096 222.312 968.88 222.36 968.472 222.36C968.04 222.36 966.912 222.36 965.712 222.24C966 222.672 966.192 223.344 966.216 223.824C967.392 223.896 968.568 223.896 969.192 223.848C969.888 223.776 970.344 223.632 970.728 223.152C971.4 222.384 971.64 220.2 971.904 214.176C971.928 213.936 971.928 213.408 971.928 213.408H970.248ZM963.912 204.576H970.056V209.184H963.912V204.576ZM962.28 202.968V210.84H971.784V202.968H962.28ZM964.92 210.216C964.704 214.728 964.2 219.984 960.792 222.744C961.224 223.008 961.776 223.56 962.04 223.992C965.736 220.896 966.408 215.28 966.696 210.216H964.92Z" fill="white" fill-opacity="0.75" shape-rendering="crispEdges"/>
</g>
<g filter="url(#filter2_d_464_146)">
<path d="M361.875 15.8438L364.094 17.875L362.031 19.6875L354.75 19.7188L352.875 17.7188L355.188 15.7812L361.875 15.8438ZM361.031 25.5625L363.156 27.7812L361.188 29.75L354.906 29.8438L353.125 27.6562L355.312 25.5625H361.031ZM366.312 25.3438L364.438 26.9375L362.406 24.9062L362.469 20.8438L364.469 18.7188L366.406 21.3125L366.312 25.3438ZM353.281 35.4688L351.062 37.2812L349.25 34.9688L349.312 30.75L351.594 28.5625L353.312 30.6562L353.281 35.4688ZM361.562 37.1562L363.781 39.1875L361.719 41H353.844L351.969 39L354.281 37.0625L361.562 37.1562ZM381.781 24.7188L381.938 20.6875L383.688 18.5625L385.938 20.7812L386.031 25L384.188 27.0938L381.781 24.7188ZM369.406 35.4688L369.375 30.6562L371.094 28.5625L373.375 30.75L373.438 35.75L371.219 37.875L369.406 35.4688ZM373.781 15.8438L380.469 15.7812L382.781 17.7188L380.906 19.7188L373.594 19.6875L371.562 17.875L373.781 15.8438ZM369.344 25.3438L369.25 21.3125L371.156 18.7188L373.188 20.8438L373.25 24.9062L371.188 26.9375L369.344 25.3438ZM382.375 35.4688L382.344 30.6562L384.062 28.5625L386.344 30.75L386.406 34.9688L384.562 37.2812L382.375 35.4688ZM374.094 37.1562L381.375 37.0625L383.656 39L381.781 41H373.906L372.031 39.1875L374.094 37.1562ZM401.875 15.8438L404.094 17.875L402.031 19.6875L394.75 19.7188L392.875 17.7188L395.188 15.7812L401.875 15.8438ZM401.031 25.5625L403.156 27.7812L401.188 29.75L394.906 29.8438L393.125 27.6562L395.312 25.5625H401.031ZM406.312 25.3438L404.438 26.9375L402.406 24.9062L402.469 20.8438L404.469 18.7188L406.406 21.3125L406.312 25.3438ZM393.281 35.4688L391.062 37.2812L389.25 34.9688L389.312 30.75L391.594 28.5625L393.312 30.6562L393.281 35.4688ZM401.562 37.1562L403.781 39.1875L401.719 41H393.844L391.969 39L394.281 37.0625L401.562 37.1562ZM421.875 15.8438L424.094 17.875L422.031 19.6875L414.75 19.7188L412.875 17.7188L415.188 15.7812L421.875 15.8438ZM421.031 25.5625L423.156 27.7812L421.188 29.75L414.906 29.8438L413.125 27.6562L415.312 25.5625H421.031ZM426.312 25.3438L424.438 26.9375L422.406 24.9062L422.469 20.8438L424.469 18.7188L426.406 21.3125L426.312 25.3438ZM413.281 35.4688L411.062 37.2812L409.25 34.9688L409.312 30.75L411.594 28.5625L413.312 30.6562L413.281 35.4688ZM421.562 37.1562L423.781 39.1875L421.719 41H413.844L411.969 39L414.281 37.0625L421.562 37.1562ZM434.625 35.5H440.094V40.9688H434.625V35.5ZM462.125 38.5V31.7812L464.031 29.1875L466.062 31.3125L465.938 38.6875L464.125 41L462.125 38.5ZM462.125 24.9688V18.25L464.031 15.6562L466.062 17.7812L465.938 25.1562L464.125 27.4688L462.125 24.9688ZM481.781 24.7188L481.938 20.6875L483.688 18.5625L485.938 20.7812L486.031 25L484.188 27.0938L481.781 24.7188ZM469.406 35.4688L469.375 30.6562L471.094 28.5625L473.375 30.75L473.438 35.75L471.219 37.875L469.406 35.4688ZM473.781 15.8438L480.469 15.7812L482.781 17.7188L480.906 19.7188L473.594 19.6875L471.562 17.875L473.781 15.8438ZM469.344 25.3438L469.25 21.3125L471.156 18.7188L473.188 20.8438L473.25 24.9062L471.188 26.9375L469.344 25.3438ZM482.375 35.4688L482.344 30.6562L484.062 28.5625L486.344 30.75L486.406 34.9688L484.562 37.2812L482.375 35.4688ZM474.094 37.1562L481.375 37.0625L483.656 39L481.781 41H473.906L472.031 39.1875L474.094 37.1562ZM494.625 35.5H500.094V40.9688H494.625V35.5ZM522.125 38.5V31.7812L524.031 29.1875L526.062 31.3125L525.938 38.6875L524.125 41L522.125 38.5ZM522.125 24.9688V18.25L524.031 15.6562L526.062 17.7812L525.938 25.1562L524.125 27.4688L522.125 24.9688ZM541.781 24.7188L541.938 20.6875L543.688 18.5625L545.938 20.7812L546.031 25L544.188 27.0938L541.781 24.7188ZM533.781 15.8438L540.469 15.7812L542.781 17.7188L540.906 19.7188L533.594 19.6875L531.562 17.875L533.781 15.8438ZM534.625 25.5625H540.906L543.094 27.6562L541.312 29.8438L534.438 29.75L532.5 27.7812L534.625 25.5625ZM542.375 35.4688L542.344 30.6562L544.062 28.5625L546.344 30.75L546.406 34.9688L544.562 37.2812L542.375 35.4688ZM534.094 37.1562L541.375 37.0625L543.656 39L541.781 41H533.906L532.031 39.1875L534.094 37.1562Z" fill="white"/>
</g>
<g filter="url(#filter3_d_464_146)">
<path d="M464.875 243.844L467.094 245.875L465.031 247.688L457.75 247.719L455.875 245.719L458.188 243.781L464.875 243.844ZM464.031 253.562L466.156 255.781L464.188 257.75L457.906 257.844L456.125 255.656L458.312 253.562H464.031ZM469.312 253.344L467.438 254.938L465.406 252.906L465.469 248.844L467.469 246.719L469.406 249.312L469.312 253.344ZM456.281 263.469L454.062 265.281L452.25 262.969L452.312 258.75L454.594 256.562L456.312 258.656L456.281 263.469ZM464.562 265.156L466.781 267.188L464.719 269H456.844L454.969 267L457.281 265.062L464.562 265.156ZM484.781 252.719L484.938 248.688L486.688 246.562L488.938 248.781L489.031 253L487.188 255.094L484.781 252.719ZM472.406 263.469L472.375 258.656L474.094 256.562L476.375 258.75L476.438 263.75L474.219 265.875L472.406 263.469ZM476.781 243.844L483.469 243.781L485.781 245.719L483.906 247.719L476.594 247.688L474.562 245.875L476.781 243.844ZM472.344 253.344L472.25 249.312L474.156 246.719L476.188 248.844L476.25 252.906L474.188 254.938L472.344 253.344ZM485.375 263.469L485.344 258.656L487.062 256.562L489.344 258.75L489.406 262.969L487.562 265.281L485.375 263.469ZM477.094 265.156L484.375 265.062L486.656 267L484.781 269H476.906L475.031 267.188L477.094 265.156ZM504.875 243.844L507.094 245.875L505.031 247.688L497.75 247.719L495.875 245.719L498.188 243.781L504.875 243.844ZM504.031 253.562L506.156 255.781L504.188 257.75L497.906 257.844L496.125 255.656L498.312 253.562H504.031ZM509.312 253.344L507.438 254.938L505.406 252.906L505.469 248.844L507.469 246.719L509.406 249.312L509.312 253.344ZM496.281 263.469L494.062 265.281L492.25 262.969L492.312 258.75L494.594 256.562L496.312 258.656L496.281 263.469ZM504.562 265.156L506.781 267.188L504.719 269H496.844L494.969 267L497.281 265.062L504.562 265.156ZM524.875 243.844L527.094 245.875L525.031 247.688L517.75 247.719L515.875 245.719L518.188 243.781L524.875 243.844ZM524.031 253.562L526.156 255.781L524.188 257.75L517.906 257.844L516.125 255.656L518.312 253.562H524.031ZM529.312 253.344L527.438 254.938L525.406 252.906L525.469 248.844L527.469 246.719L529.406 249.312L529.312 253.344ZM516.281 263.469L514.062 265.281L512.25 262.969L512.312 258.75L514.594 256.562L516.312 258.656L516.281 263.469ZM524.562 265.156L526.781 267.188L524.719 269H516.844L514.969 267L517.281 265.062L524.562 265.156ZM537.625 263.5H543.094V268.969H537.625V263.5ZM565.125 266.5V259.781L567.031 257.188L569.062 259.312L568.938 266.688L567.125 269L565.125 266.5ZM565.125 252.969V246.25L567.031 243.656L569.062 245.781L568.938 253.156L567.125 255.469L565.125 252.969ZM584.781 252.719L584.938 248.688L586.688 246.562L588.938 248.781L589.031 253L587.188 255.094L584.781 252.719ZM572.406 263.469L572.375 258.656L574.094 256.562L576.375 258.75L576.438 263.75L574.219 265.875L572.406 263.469ZM576.781 243.844L583.469 243.781L585.781 245.719L583.906 247.719L576.594 247.688L574.562 245.875L576.781 243.844ZM572.344 253.344L572.25 249.312L574.156 246.719L576.188 248.844L576.25 252.906L574.188 254.938L572.344 253.344ZM585.375 263.469L585.344 258.656L587.062 256.562L589.344 258.75L589.406 262.969L587.562 265.281L585.375 263.469ZM577.094 265.156L584.375 265.062L586.656 267L584.781 269H576.906L575.031 267.188L577.094 265.156ZM597.625 263.5H603.094V268.969H597.625V263.5ZM624.781 252.719L624.938 248.688L626.688 246.562L628.938 248.781L629.031 253L627.188 255.094L624.781 252.719ZM616.781 243.844L623.469 243.781L625.781 245.719L623.906 247.719L616.594 247.688L614.562 245.875L616.781 243.844ZM617.625 253.562H623.906L626.094 255.656L624.312 257.844L617.438 257.75L615.5 255.781L617.625 253.562ZM625.375 263.469L625.344 258.656L627.062 256.562L629.344 258.75L629.406 262.969L627.562 265.281L625.375 263.469ZM617.094 265.156L624.375 265.062L626.656 267L624.781 269H616.906L615.031 267.188L617.094 265.156ZM644.781 252.719L644.938 248.688L646.688 246.562L648.938 248.781L649.031 253L647.188 255.094L644.781 252.719ZM632.406 263.469L632.375 258.656L634.094 256.562L636.375 258.75L636.438 263.75L634.219 265.875L632.406 263.469ZM636.781 243.844L643.469 243.781L645.781 245.719L643.906 247.719L636.594 247.688L634.562 245.875L636.781 243.844ZM632.344 253.344L632.25 249.312L634.156 246.719L636.188 248.844L636.25 252.906L634.188 254.938L632.344 253.344ZM645.375 263.469L645.344 258.656L647.062 256.562L649.344 258.75L649.406 262.969L647.562 265.281L645.375 263.469ZM637.094 265.156L644.375 265.062L646.656 267L644.781 269H636.906L635.031 267.188L637.094 265.156Z" fill="white"/>
</g>
<path d="M552 130L532 101H543L563.5 130H552Z" fill="white"/>
<path d="M571 130L551 101H562L582.5 130H571Z" fill="white"/>
<path d="M590 130L570 101H581L601.5 130H590Z" fill="white"/>
<path d="M610 130L590 101H601L621.5 130H610Z" fill="white"/>
<path d="M629 130L609 101H620L640.5 130H629Z" fill="white"/>
<path d="M648 130L628 101H639L659.5 130H648Z" fill="white"/>
<path d="M668 130L648 101H668V130Z" fill="white"/>
<path d="M907 269L907 290" stroke="white" stroke-width="2"/>
<path d="M902 269L902 290" stroke="white" stroke-width="2"/>
<path d="M896 269L896 290" stroke="white" stroke-width="2"/>
<path d="M885 269L885 290" stroke="white" stroke-width="2"/>
<path d="M882 269L882 290" stroke="white" stroke-width="2"/>
<path d="M880 269L880 290" stroke="white" stroke-width="2"/>
<path d="M876 269L876 290" stroke="white" stroke-width="2"/>
<path d="M866 269L866 290" stroke="white" stroke-width="2"/>
<path d="M850 269L850 290" stroke="white" stroke-width="2"/>
<path d="M854 269L854 290" stroke="white" stroke-width="2"/>
<path d="M859 269L859 290" stroke="white" stroke-width="2"/>
<path d="M839 269L839 290" stroke="white" stroke-width="2"/>
<path d="M843 269L843 290" stroke="white" stroke-width="2"/>
<path d="M828 269L828 290" stroke="white" stroke-width="2"/>
<path d="M819 269L819 290" stroke="white" stroke-width="2"/>
<path d="M813 269L813 290" stroke="white" stroke-width="2"/>
<path d="M804 269L804 290" stroke="white" stroke-width="2"/>
<path d="M817 269L817 290" stroke="white" stroke-width="2"/>
<path d="M836 269L836 290" stroke="white" stroke-width="2"/>
<path d="M841 269L841 290" stroke="white" stroke-width="2"/>
<path d="M419.468 269.847C419.936 270.141 420.553 270 420.847 269.532L425.635 261.911C425.929 261.444 425.788 260.826 425.32 260.533C424.853 260.239 424.235 260.38 423.941 260.847L419.685 267.621L412.911 263.365C412.444 263.071 411.826 263.212 411.533 263.68C411.239 264.147 411.38 264.765 411.847 265.059L419.468 269.847ZM377.025 85.2225L378.338 90.9725L380.287 90.5275L378.975 84.7775L377.025 85.2225ZM380.963 102.473L383.588 113.973L385.537 113.527L382.912 102.027L380.963 102.473ZM386.213 125.473L388.838 136.973L390.787 136.527L388.162 125.027L386.213 125.473ZM391.463 148.473L394.088 159.973L396.037 159.527L393.412 148.027L391.463 148.473ZM396.713 171.473L399.338 182.973L401.287 182.527L398.662 171.027L396.713 171.473ZM401.963 194.473L404.588 205.973L406.537 205.527L403.912 194.027L401.963 194.473ZM407.213 217.473L409.838 228.973L411.787 228.527L409.162 217.027L407.213 217.473ZM412.463 240.473L415.088 251.973L417.037 251.527L414.412 240.027L412.463 240.473ZM417.713 263.473L419.025 269.223L420.975 268.777L419.662 263.027L417.713 263.473ZM418.936 270.693C419.871 271.281 421.106 270.999 421.693 270.064L431.27 254.823C431.857 253.888 431.576 252.653 430.64 252.065C429.705 251.478 428.471 251.759 427.883 252.695L419.371 266.242L405.823 257.73C404.888 257.143 403.653 257.424 403.065 258.36C402.478 259.295 402.759 260.529 403.695 261.117L418.936 270.693ZM376.05 85.4451L377.363 91.1951L381.262 90.3049L379.95 84.5549L376.05 85.4451ZM379.988 102.695L382.613 114.195L386.512 113.305L383.887 101.805L379.988 102.695ZM385.238 125.695L387.863 137.195L391.762 136.305L389.137 124.805L385.238 125.695ZM390.488 148.695L393.113 160.195L397.012 159.305L394.387 147.805L390.488 148.695ZM395.738 171.695L398.363 183.195L402.262 182.305L399.637 170.805L395.738 171.695ZM400.988 194.695L403.613 206.195L407.512 205.305L404.887 193.805L400.988 194.695ZM406.238 217.695L408.863 229.195L412.762 228.305L410.137 216.805L406.238 217.695ZM411.488 240.695L414.113 252.195L418.012 251.305L415.387 239.805L411.488 240.695ZM416.738 263.695L418.05 269.445L421.95 268.555L420.637 262.805L416.738 263.695Z" fill="#02D7F2"/>
<defs>
<filter id="filter0_d_464_146" x="791.76" y="115.336" width="176.336" height="61.9839" filterUnits="userSpaceOnUse" color-interpolation-filters="sRGB">
<feFlood flood-opacity="0" result="BackgroundImageFix"/>
<feColorMatrix in="SourceAlpha" type="matrix" values="0 0 0 0 0 0 0 0 0 0 0 0 0 0 0 0 0 0 127 0" result="hardAlpha"/>
<feOffset dy="4"/>
<feGaussianBlur stdDeviation="2"/>
<feComposite in2="hardAlpha" operator="out"/>
<feColorMatrix type="matrix" values="0 0 0 0 0 0 0 0 0 0 0 0 0 0 0 0 0 0 0.25 0"/>
<feBlend mode="normal" in2="BackgroundImageFix" result="effect1_dropShadow_464_146"/>
<feBlend mode="normal" in="SourceGraphic" in2="effect1_dropShadow_464_146" result="shape"/>
</filter>
<filter id="filter1_d_464_146" x="740.792" y="201.744" width="245.096" height="30.272" filterUnits="userSpaceOnUse" color-interpolation-filters="sRGB">
<feFlood flood-opacity="0" result="BackgroundImageFix"/>
<feColorMatrix in="SourceAlpha" type="matrix" values="0 0 0 0 0 0 0 0 0 0 0 0 0 0 0 0 0 0 127 0" result="hardAlpha"/>
<feOffset dy="4"/>
<feGaussianBlur stdDeviation="2"/>
<feComposite in2="hardAlpha" operator="out"/>
<feColorMatrix type="matrix" values="0 0 0 0 0 0 0 0 0 0 0 0 0 0 0 0 0 0 0.25 0"/>
<feBlend mode="normal" in2="BackgroundImageFix" result="effect1_dropShadow_464_146"/>
<feBlend mode="normal" in="SourceGraphic" in2="effect1_dropShadow_464_146" result="shape"/>
</filter>
<filter id="filter2_d_464_146" x="345.25" y="15.6562" width="205.156" height="33.3438" filterUnits="userSpaceOnUse" color-interpolation-filters="sRGB">
<feFlood flood-opacity="0" result="BackgroundImageFix"/>
<feColorMatrix in="SourceAlpha" type="matrix" values="0 0 0 0 0 0 0 0 0 0 0 0 0 0 0 0 0 0 127 0" result="hardAlpha"/>
<feOffset dy="4"/>
<feGaussianBlur stdDeviation="2"/>
<feComposite in2="hardAlpha" operator="out"/>
<feColorMatrix type="matrix" values="0 0 0 0 0 0 0 0 0 0 0 0 0 0 0 0 0 0 0.25 0"/>
<feBlend mode="normal" in2="BackgroundImageFix" result="effect1_dropShadow_464_146"/>
<feBlend mode="normal" in="SourceGraphic" in2="effect1_dropShadow_464_146" result="shape"/>
</filter>
<filter id="filter3_d_464_146" x="448.25" y="243.656" width="205.156" height="33.3438" filterUnits="userSpaceOnUse" color-interpolation-filters="sRGB">
<feFlood flood-opacity="0" result="BackgroundImageFix"/>
<feColorMatrix in="SourceAlpha" type="matrix" values="0 0 0 0 0 0 0 0 0 0 0 0 0 0 0 0 0 0 127 0" result="hardAlpha"/>
<feOffset dy="4"/>
<feGaussianBlur stdDeviation="2"/>
<feComposite in2="hardAlpha" operator="out"/>
<feColorMatrix type="matrix" values="0 0 0 0 0 0 0 0 0 0 0 0 0 0 0 0 0 0 0.25 0"/>
<feBlend mode="normal" in2="BackgroundImageFix" result="effect1_dropShadow_464_146"/>
<feBlend mode="normal" in="SourceGraphic" in2="effect1_dropShadow_464_146" result="shape"/>
</filter>
</defs>
</svg>
