<svg width="150" height="64" viewBox="0 0 150 64" fill="none" xmlns="http://www.w3.org/2000/svg">
<path d="M16 64L0 48.2462V0H16V64Z" fill="white" fill-opacity="0.2"/>
<rect width="118" height="64" transform="translate(16)" fill="white" fill-opacity="0.2"/>
<path d="M43.28 24.3V25.884H56.552V24.3H43.28ZM42.968 34.332V35.892H56.888V34.332H42.968ZM45.2 36.588C45.824 37.26 46.52 38.172 46.832 38.772L48.752 37.812C48.416 37.212 47.648 36.324 47 35.724L45.2 36.588ZM46.136 29.58H53.648V30.324H46.136V29.58ZM46.136 27.756H53.648V28.452H46.136V27.756ZM43.952 26.58V31.5H55.928V26.58H43.952ZM51.416 33.636V37.308C51.416 37.524 51.32 37.596 51.104 37.596C50.864 37.62 50.048 37.62 49.376 37.596C49.592 38.004 49.856 38.532 49.952 39.06C51.296 39.06 52.256 39.06 52.904 38.844C53.6 38.628 53.792 38.34 53.792 37.404V33.636H51.416ZM43.352 32.292L43.448 33.828C46.544 33.78 50.84 33.66 54.992 33.516L55.064 32.244C50.744 32.292 46.304 32.316 43.352 32.292ZM52.736 32.052C53.6 32.724 54.68 33.78 55.208 34.5L56.72 33.372C56.192 32.724 55.112 31.74 54.176 31.092L52.736 32.052ZM48.704 23.436V32.892L51.056 32.796V23.436H48.704ZM39.896 20.916V42.66H42.512V23.1H57.416V42.612H60.152V20.916H39.896ZM41.168 39.3V41.484H58.52V39.3H41.168ZM74.504 30.444V32.388H86.024V30.444H74.504ZM73.976 40.356V42.372H86.264V40.356H73.976ZM77.672 20.124V23.412H79.688V20.124H77.672ZM80.72 20.124V23.412H82.736V20.124H80.72ZM77.648 34.812H82.784V36.156H77.648V34.812ZM75.344 33.132V37.836H85.208V33.132H75.344ZM77.096 26.724H83.336V27.804H77.096V26.724ZM77.096 23.94H83.336V25.02H77.096V23.94ZM75.008 22.14V29.628H85.544V22.14H75.008ZM76.184 38.364C76.712 39.228 77.144 40.428 77.288 41.196L79.352 40.404C79.184 39.612 78.704 38.484 78.128 37.668L76.184 38.364ZM82.016 37.62C81.776 38.46 81.296 39.684 80.888 40.524L82.688 41.076C83.144 40.332 83.768 39.252 84.392 38.172L82.016 37.62ZM66.92 33.636V35.532H72.176V33.636H66.92ZM66.92 36.612V38.556H72.176V36.612H66.92ZM65.552 30.66V42.684H67.952V32.58H72.032V30.66H65.552ZM70.544 30.66V40.212C70.544 40.428 70.472 40.5 70.256 40.5C70.064 40.5 69.488 40.5 68.936 40.476C69.224 41.076 69.512 42.012 69.584 42.66C70.736 42.66 71.552 42.636 72.176 42.252C72.824 41.892 72.968 41.292 72.968 40.26V30.66H70.544ZM65.48 20.868V28.62H67.544V22.908H70.904V28.62H73.064V20.868H65.48ZM64.088 27.732V31.5H66.152V29.676H72.368V31.5H74.528V27.732H64.088ZM68.36 23.892V28.38H69.92V25.5H72.344V23.892H68.36ZM78.128 22.956V28.74H79.688V22.956H78.128ZM80.72 22.956V28.74H82.28V22.956H80.72ZM100.832 27.252V29.844H108.008V27.252H100.832ZM100.832 33.276V35.868H108.008V33.276H100.832ZM99.344 21.324V41.028H102.128V23.916H106.736V41.028H109.64V21.324H99.344ZM97.136 39.444V42.036H111.248V39.444H97.136ZM92.24 20.148C91.688 21.828 90.656 24.132 89.792 25.572L91.736 26.364C92.672 25.044 93.8 22.908 94.784 21.036L92.24 20.148ZM95.12 22.98C93.848 25.548 91.664 29.076 89.816 31.236L91.568 32.124C93.416 30.084 95.768 26.748 97.544 23.988L95.12 22.98ZM88.544 25.836C89.768 26.988 91.232 28.644 91.832 29.796L93.296 27.54C92.672 26.484 91.184 24.948 89.888 23.844L88.544 25.836ZM94.52 28.764C95.432 30.42 96.32 32.604 96.608 33.972L98.792 32.964C98.48 31.572 97.52 29.484 96.56 27.876L94.52 28.764ZM88.52 30.708L88.76 33.204C91.136 33.06 94.256 32.844 97.28 32.604V30.324C94.064 30.492 90.752 30.636 88.52 30.708ZM94.952 34.788C95.528 36.252 96.152 38.196 96.368 39.444L98.624 38.628C98.336 37.404 97.688 35.532 97.064 34.092L94.952 34.788ZM89.552 34.236C89.36 36.276 88.976 38.412 88.28 39.828C88.88 40.068 89.96 40.572 90.464 40.884C91.16 39.348 91.688 36.948 91.928 34.644L89.552 34.236ZM92.336 31.98V42.684H94.904V31.98H92.336Z" fill="white"/>
<path d="M134 0L150 15.7538V64H134V0Z" fill="white" fill-opacity="0.2"/>
</svg>
