<svg width="869" height="619" viewBox="0 0 869 619" fill="none" xmlns="http://www.w3.org/2000/svg">
<path fill-rule="evenodd" clip-rule="evenodd" d="M462.596 556.067L239.223 496.101L238.846 496L238.5 496.181L124 556.181L124.464 557.067L124.205 558.033L347.705 618.033L348.082 618.134L348.428 617.953L462.71 558.067H624V556.067H462.596ZM459.733 557.369L239.082 498.134L127.195 556.765L347.846 616L459.733 557.369Z" fill="white"/>
<path fill-rule="evenodd" clip-rule="evenodd" d="M338.596 60.0671L115.223 0.101299L114.846 0L114.5 0.181347L0 60.1813L0.464142 61.0671L0.204866 62.0329L223.705 122.033L224.082 122.134L224.428 121.953L338.71 62.0671H590V60.0671H338.596ZM335.733 61.3693L115.082 2.13421L3.19532 60.7649L223.846 120L335.733 61.3693Z" fill="white"/>
<path d="M408 60L428.5 80.5L476.5 80.5L486.75 70.25L540.625 70.25L545.5 77L588.5 77L594.5 70.25L594.5 60L408 60Z" fill="white"/>
<g filter="url(#filter0_d_464_147)">
<path d="M626.272 80.632H640.72L645.816 60.136H623.416L610.648 111.32H618.6L626.272 80.632ZM660.936 102.64L671.52 60.136H648.728L643.576 80.8H658.36L653.152 101.632C652.984 102.416 652.088 103.2 650.856 103.2C650.408 103.2 647.72 103.2 645.928 102.752C646.88 104.768 646.824 108.464 646.936 110.592C651.08 111.096 653.992 111.152 656.848 110.088C659.144 108.52 659.928 106.504 660.936 102.64ZM629.968 65.792H636.8L636.296 67.696H629.464L629.968 65.792ZM655.056 65.792H662.112L661.608 67.696H654.552L655.056 65.792ZM634.504 74.92H627.672L628.176 72.848H635.008L634.504 74.92ZM659.76 75.088H652.704L653.264 72.848H660.32L659.76 75.088ZM646.32 99.224H651.752L653.376 92.672H647.944L648.728 89.48H653.376L654.944 83.152H628.176L626.608 89.48H631.032L630.248 92.672H625.096L623.472 99.224L628.288 98.776C627.056 101.408 624.424 104.768 621.344 106.336C622.968 107.624 624.816 109.696 625.824 111.32C630.696 108.632 633.664 103.536 635.232 99.672L639.208 99.224L636.408 110.312H643.52L646.32 99.224ZM640.832 92.672H637.136L637.92 89.48H641.616L640.832 92.672ZM709.208 103.872L712.568 91.776C714.08 92.672 715.704 93.456 717.384 94.52C718.504 92.84 721.64 89.816 723.264 88.584C719.96 87.52 716.936 86.512 714.472 85.112L722.144 84.888L723.488 79.456H710.272L710.552 78.392H717.384L718.336 74.528H711.504L711.784 73.296H718.896L719.512 70.888H725.336L727.8 61.032L708.312 61.48C708.144 60.192 707.808 58.68 707.416 57.56L699.24 58.848C699.352 59.408 699.464 59.968 699.52 60.584L678.52 61.032L676.056 70.888H682.16L681.544 73.296H688.376L688.096 74.528H681.768L680.816 78.392H687.144L686.864 79.456H673.816L672.472 84.888L681.488 84.664C677.624 86.568 673.032 88.248 669 88.92C670.568 90.432 671.968 93.008 672.92 94.8C674.712 94.576 676.784 93.96 678.968 93.008L675.888 103.872L678.968 103.76C675.16 104.768 670.512 105.664 666.872 105.832C668.384 107.232 669.896 109.472 671.016 110.872C677.344 110.48 685.52 108.632 690.784 106.28L687.76 103.872H696.832L693.752 106.112C699.576 107.736 705.232 109.752 708.48 111.152L715.648 107.064C713.072 106.224 709.432 105.104 705.624 103.984L709.208 103.872ZM689.44 69.096H683.896L684.4 67.024H718.56L718.056 69.096H712.848L713.24 67.584H705.68L705.288 69.096H696.888L697.28 67.584H689.832L689.44 69.096ZM695.544 74.528L695.824 73.296H704.224L703.944 74.528H695.544ZM694.312 79.456L694.592 78.392H702.992L702.712 79.456H694.312ZM691.456 85.224L704.784 84.552C705.008 84.888 705.288 85.336 705.568 85.672L690.168 86.288C690.616 85.952 691.064 85.56 691.456 85.224ZM704.672 90.768H686.584L686.864 89.704H704.952L704.672 90.768ZM703.552 95.416H685.464L685.688 94.352H703.776L703.552 95.416ZM684.568 98.944H702.656L702.376 100.12H684.288L684.568 98.944Z" fill="#02D7F2"/>
</g>
<g filter="url(#filter1_d_464_147)">
<path d="M395.875 14.8438L398.094 16.875L396.031 18.6875L388.75 18.7188L386.875 16.7188L389.188 14.7812L395.875 14.8438ZM395.031 24.5625L397.156 26.7812L395.188 28.75L388.906 28.8438L387.125 26.6562L389.312 24.5625H395.031ZM400.312 24.3438L398.438 25.9375L396.406 23.9062L396.469 19.8438L398.469 17.7188L400.406 20.3125L400.312 24.3438ZM387.281 34.4688L385.062 36.2812L383.25 33.9688L383.312 29.75L385.594 27.5625L387.312 29.6562L387.281 34.4688ZM395.562 36.1562L397.781 38.1875L395.719 40H387.844L385.969 38L388.281 36.0625L395.562 36.1562ZM415.781 23.7188L415.938 19.6875L417.688 17.5625L419.938 19.7812L420.031 24L418.188 26.0938L415.781 23.7188ZM403.406 34.4688L403.375 29.6562L405.094 27.5625L407.375 29.75L407.438 34.75L405.219 36.875L403.406 34.4688ZM407.781 14.8438L414.469 14.7812L416.781 16.7188L414.906 18.7188L407.594 18.6875L405.562 16.875L407.781 14.8438ZM403.344 24.3438L403.25 20.3125L405.156 17.7188L407.188 19.8438L407.25 23.9062L405.188 25.9375L403.344 24.3438ZM416.375 34.4688L416.344 29.6562L418.062 27.5625L420.344 29.75L420.406 33.9688L418.562 36.2812L416.375 34.4688ZM408.094 36.1562L415.375 36.0625L417.656 38L415.781 40H407.906L406.031 38.1875L408.094 36.1562ZM435.875 14.8438L438.094 16.875L436.031 18.6875L428.75 18.7188L426.875 16.7188L429.188 14.7812L435.875 14.8438ZM435.031 24.5625L437.156 26.7812L435.188 28.75L428.906 28.8438L427.125 26.6562L429.312 24.5625H435.031ZM440.312 24.3438L438.438 25.9375L436.406 23.9062L436.469 19.8438L438.469 17.7188L440.406 20.3125L440.312 24.3438ZM427.281 34.4688L425.062 36.2812L423.25 33.9688L423.312 29.75L425.594 27.5625L427.312 29.6562L427.281 34.4688ZM435.562 36.1562L437.781 38.1875L435.719 40H427.844L425.969 38L428.281 36.0625L435.562 36.1562ZM455.875 14.8438L458.094 16.875L456.031 18.6875L448.75 18.7188L446.875 16.7188L449.188 14.7812L455.875 14.8438ZM455.031 24.5625L457.156 26.7812L455.188 28.75L448.906 28.8438L447.125 26.6562L449.312 24.5625H455.031ZM460.312 24.3438L458.438 25.9375L456.406 23.9062L456.469 19.8438L458.469 17.7188L460.406 20.3125L460.312 24.3438ZM447.281 34.4688L445.062 36.2812L443.25 33.9688L443.312 29.75L445.594 27.5625L447.312 29.6562L447.281 34.4688ZM455.562 36.1562L457.781 38.1875L455.719 40H447.844L445.969 38L448.281 36.0625L455.562 36.1562ZM468.625 34.5H474.094V39.9688H468.625V34.5ZM496.125 37.5V30.7812L498.031 28.1875L500.062 30.3125L499.938 37.6875L498.125 40L496.125 37.5ZM496.125 23.9688V17.25L498.031 14.6562L500.062 16.7812L499.938 24.1562L498.125 26.4688L496.125 23.9688ZM515.781 23.7188L515.938 19.6875L517.688 17.5625L519.938 19.7812L520.031 24L518.188 26.0938L515.781 23.7188ZM503.406 34.4688L503.375 29.6562L505.094 27.5625L507.375 29.75L507.438 34.75L505.219 36.875L503.406 34.4688ZM507.781 14.8438L514.469 14.7812L516.781 16.7188L514.906 18.7188L507.594 18.6875L505.562 16.875L507.781 14.8438ZM503.344 24.3438L503.25 20.3125L505.156 17.7188L507.188 19.8438L507.25 23.9062L505.188 25.9375L503.344 24.3438ZM516.375 34.4688L516.344 29.6562L518.062 27.5625L520.344 29.75L520.406 33.9688L518.562 36.2812L516.375 34.4688ZM508.094 36.1562L515.375 36.0625L517.656 38L515.781 40H507.906L506.031 38.1875L508.094 36.1562ZM528.625 34.5H534.094V39.9688H528.625V34.5ZM555.781 23.7188L555.938 19.6875L557.688 17.5625L559.938 19.7812L560.031 24L558.188 26.0938L555.781 23.7188ZM547.781 14.8438L554.469 14.7812L556.781 16.7188L554.906 18.7188L547.594 18.6875L545.562 16.875L547.781 14.8438ZM548.625 24.5625H554.906L557.094 26.6562L555.312 28.8438L548.438 28.75L546.5 26.7812L548.625 24.5625ZM556.375 34.4688L556.344 29.6562L558.062 27.5625L560.344 29.75L560.406 33.9688L558.562 36.2812L556.375 34.4688ZM548.094 36.1562L555.375 36.0625L557.656 38L555.781 40H547.906L546.031 38.1875L548.094 36.1562ZM576.125 37.5V30.7812L578.031 28.1875L580.062 30.3125L579.938 37.6875L578.125 40L576.125 37.5ZM576.125 23.9688V17.25L578.031 14.6562L580.062 16.7812L579.938 24.1562L578.125 26.4688L576.125 23.9688Z" fill="white"/>
</g>
<path d="M430 138L494.25 396.75L526.375 526.125L534 557" stroke="white" stroke-width="2"/>
<g filter="url(#filter2_d_464_147)">
<path d="M570.576 188.952C570.576 190.136 570.328 191.208 569.832 192.168C569.352 193.112 568.608 193.864 567.6 194.424C566.592 194.968 565.32 195.24 563.784 195.24C561.608 195.24 559.952 194.664 558.816 193.512C557.696 192.344 557.136 190.808 557.136 188.904V177.864H559.728V188.784C559.728 190.192 560.072 191.256 560.76 191.976C561.448 192.68 562.496 193.032 563.904 193.032C564.864 193.032 565.648 192.856 566.256 192.504C566.864 192.152 567.304 191.664 567.576 191.04C567.864 190.4 568.008 189.64 568.008 188.76V177.864H570.576V188.952ZM580.279 195H573.631V193.512L575.671 192.912V179.976L573.631 179.352V177.864H580.279V179.352L578.263 179.976V192.912L580.279 193.512V195ZM592.675 180.192H600.691V182.112H592.675V180.192ZM592.675 177H600.691V178.92H592.675V177ZM591.019 175.632V183.504H602.419V175.632H591.019ZM589.915 185.232V186.744H603.739V185.232H589.915ZM595.819 185.976V195.096L597.499 195.792V185.976H595.819ZM592.603 190.392L591.499 190.8C592.963 195.696 595.723 196.56 599.731 196.56H603.955C604.003 196.104 604.243 195.336 604.483 194.952C603.643 194.976 600.403 194.976 599.803 194.976C596.467 194.976 593.827 194.376 592.603 190.392ZM596.971 189.552V191.04H602.539V189.552H596.971ZM591.499 187.872C591.115 191.424 590.035 194.136 587.899 195.84C588.259 196.104 588.955 196.632 589.243 196.92C591.403 195 592.651 192.024 593.131 188.064L591.499 187.872ZM581.875 187.608L582.331 189.36C584.371 188.712 586.987 187.848 589.483 187.032L589.219 185.376C586.531 186.24 583.747 187.104 581.875 187.608ZM582.139 179.688V181.368H589.459V179.688H582.139ZM585.115 174.864V194.664C585.115 195.024 585.019 195.12 584.707 195.12C584.419 195.12 583.507 195.12 582.451 195.096C582.691 195.6 582.907 196.344 582.979 196.776C584.491 196.776 585.427 196.728 585.979 196.44C586.579 196.152 586.795 195.672 586.795 194.688V174.864H585.115ZM620.659 184.608C618.451 190.68 613.411 193.8 606.139 195.312C606.523 195.744 607.099 196.56 607.291 197.016C614.659 195.168 619.939 191.832 622.579 185.136L620.659 184.608ZM612.835 180.48C611.371 182.52 608.827 184.512 606.475 185.76C606.931 186.096 607.627 186.816 607.939 187.2C610.267 185.736 612.955 183.48 614.659 181.176L612.835 180.48ZM613.795 184.728L612.091 185.256C614.659 191.64 619.483 195.48 627.139 196.944C627.403 196.44 627.931 195.624 628.339 195.216C620.899 193.992 616.027 190.416 613.795 184.728ZM606.667 177.984V179.736H627.739V177.984H606.667ZM616.219 174.816V179.112H618.067V174.816H616.219ZM620.011 181.488C622.315 183.048 625.099 185.376 626.395 186.96L627.955 185.712C626.587 184.128 623.755 181.896 621.499 180.384L620.011 181.488ZM634.363 185.376V186.912H649.843V181.44H632.275V182.952H648.067V185.376H634.363ZM633.451 185.376C633.091 187.272 632.467 189.696 631.963 191.232L633.739 191.496C634.219 189.912 634.819 187.416 635.251 185.376H633.451ZM633.715 189.12L633.235 190.68H649.891V189.12H633.715ZM649.435 189.12V189.36C649.171 192.48 648.883 193.728 648.451 194.112C648.259 194.304 648.019 194.328 647.611 194.328C647.179 194.328 646.027 194.328 644.875 194.184C645.139 194.664 645.331 195.336 645.379 195.864C646.603 195.912 647.779 195.912 648.403 195.864C649.075 195.84 649.507 195.696 649.939 195.288C650.539 194.688 650.875 193.2 651.187 189.864C651.235 189.6 651.259 189.12 651.259 189.12H649.435ZM640.291 181.824V196.92H642.067V181.824H640.291ZM639.811 189.6C637.795 191.952 633.763 194.112 630.235 195.096C630.619 195.456 631.123 196.104 631.387 196.536C634.939 195.384 638.995 192.96 641.227 190.248L639.811 189.6ZM633.115 176.928V178.392H640.867V176.928H633.115ZM642.379 176.928V178.392H652.075V176.928H642.379ZM633.619 174.744C632.827 176.88 631.483 178.992 629.971 180.408C630.403 180.624 631.147 181.128 631.459 181.368C632.923 179.88 634.387 177.528 635.299 175.176L633.619 174.744ZM643.075 174.744C642.283 176.904 640.819 178.92 639.115 180.216C639.571 180.456 640.291 180.96 640.627 181.272C642.259 179.808 643.867 177.576 644.779 175.176L643.075 174.744ZM634.459 178.056C635.011 179.064 635.539 180.384 635.731 181.224L637.315 180.6C637.099 179.784 636.499 178.464 635.971 177.504L634.459 178.056ZM644.491 178.032C645.331 179.04 646.195 180.384 646.531 181.296L648.091 180.648C647.707 179.76 646.819 178.44 646.003 177.48L644.491 178.032ZM654.259 184.656V186.624H676.219V184.656H654.259ZM682.939 184.32H678.283V186H681.235V192.816H682.939V184.32ZM682.939 192.096H681.403C680.299 193.152 679.027 194.232 677.995 195.024L678.931 196.728C680.083 195.648 681.163 194.616 682.195 193.584C683.707 195.48 685.891 196.344 689.083 196.464C691.819 196.56 697.051 196.512 699.787 196.392C699.859 195.888 700.147 195.072 700.363 194.688C697.411 194.88 691.771 194.952 689.059 194.832C686.203 194.712 684.067 193.896 682.939 192.096ZM678.403 176.304C679.795 177.504 681.355 179.232 681.979 180.432L683.491 179.424C682.819 178.2 681.211 176.544 679.795 175.416L678.403 176.304ZM686.611 175.776V177.288H697.867V175.776H686.611ZM688.411 179.472V180.792H695.923V179.472H688.411ZM688.195 182.736V184.056H696.139V182.736H688.195ZM691.267 177.768V183.48H692.803V177.768H691.267ZM685.651 175.776V182.016C685.651 185.088 685.459 189.312 683.587 192.336C683.971 192.504 684.691 192.96 685.003 193.272C686.995 190.056 687.307 185.352 687.307 182.016V175.776H685.651ZM697.075 175.776V191.544C697.075 191.88 696.955 191.976 696.619 192C696.307 192 695.203 192 694.003 191.976C694.219 192.408 694.459 193.08 694.507 193.536C696.235 193.536 697.267 193.512 697.891 193.248C698.515 192.96 698.731 192.504 698.731 191.568V175.776H697.075ZM689.539 185.4V186.696H693.859V189.384H689.539V190.68H695.299V185.4H689.539ZM688.843 185.4V191.904H690.283V185.4H688.843ZM712.891 178.872L712.051 180.6H724.267V178.872H712.891ZM715.891 184.08V185.736H723.715V184.08H715.891ZM715.867 189.36V191.064H724.051V189.36H715.867ZM714.979 179.424V196.92H716.827V179.424H714.979ZM713.803 175.128C712.627 178.656 710.683 182.16 708.499 184.392C708.907 184.68 709.627 185.328 709.891 185.64C712.099 183.168 714.187 179.4 715.555 175.584L713.803 175.128ZM708.043 174.936C706.675 178.584 704.443 182.184 702.043 184.512C702.379 184.944 702.931 185.904 703.099 186.336C705.715 183.648 708.187 179.544 709.771 175.488L708.043 174.936ZM705.475 181.128V196.896H707.299V179.352L707.251 179.328L705.475 181.128ZM732.427 177.6H742.027V182.16H732.427V177.6ZM730.675 175.872V183.888H743.851V175.872H730.675ZM727.195 186.432V196.92H728.899V188.16H733.939V196.728H735.739V186.432H727.195ZM738.355 186.432V196.92H740.083V188.16H745.579V196.776H747.379V186.432H738.355ZM727.963 193.896V195.624H734.659V193.896H727.963ZM739.243 193.896V195.624H746.371V193.896H739.243Z" fill="white"/>
</g>
<g filter="url(#filter3_d_464_147)">
<path d="M594.576 292.952C594.576 294.136 594.328 295.208 593.832 296.168C593.352 297.112 592.608 297.864 591.6 298.424C590.592 298.968 589.32 299.24 587.784 299.24C585.608 299.24 583.952 298.664 582.816 297.512C581.696 296.344 581.136 294.808 581.136 292.904V281.864H583.728V292.784C583.728 294.192 584.072 295.256 584.76 295.976C585.448 296.68 586.496 297.032 587.904 297.032C588.864 297.032 589.648 296.856 590.256 296.504C590.864 296.152 591.304 295.664 591.576 295.04C591.864 294.4 592.008 293.64 592.008 292.76V281.864H594.576V292.952ZM604.279 299H597.631V297.512L599.671 296.912V283.976L597.631 283.352V281.864H604.279V283.352L602.263 283.976V296.912L604.279 297.512V299ZM616.675 284.192H624.691V286.112H616.675V284.192ZM616.675 281H624.691V282.92H616.675V281ZM615.019 279.632V287.504H626.419V279.632H615.019ZM613.915 289.232V290.744H627.739V289.232H613.915ZM619.819 289.976V299.096L621.499 299.792V289.976H619.819ZM616.603 294.392L615.499 294.8C616.963 299.696 619.723 300.56 623.731 300.56H627.955C628.003 300.104 628.243 299.336 628.483 298.952C627.643 298.976 624.403 298.976 623.803 298.976C620.467 298.976 617.827 298.376 616.603 294.392ZM620.971 293.552V295.04H626.539V293.552H620.971ZM615.499 291.872C615.115 295.424 614.035 298.136 611.899 299.84C612.259 300.104 612.955 300.632 613.243 300.92C615.403 299 616.651 296.024 617.131 292.064L615.499 291.872ZM605.875 291.608L606.331 293.36C608.371 292.712 610.987 291.848 613.483 291.032L613.219 289.376C610.531 290.24 607.747 291.104 605.875 291.608ZM606.139 283.688V285.368H613.459V283.688H606.139ZM609.115 278.864V298.664C609.115 299.024 609.019 299.12 608.707 299.12C608.419 299.12 607.507 299.12 606.451 299.096C606.691 299.6 606.907 300.344 606.979 300.776C608.491 300.776 609.427 300.728 609.979 300.44C610.579 300.152 610.795 299.672 610.795 298.688V278.864H609.115ZM644.659 288.608C642.451 294.68 637.411 297.8 630.139 299.312C630.523 299.744 631.099 300.56 631.291 301.016C638.659 299.168 643.939 295.832 646.579 289.136L644.659 288.608ZM636.835 284.48C635.371 286.52 632.827 288.512 630.475 289.76C630.931 290.096 631.627 290.816 631.939 291.2C634.267 289.736 636.955 287.48 638.659 285.176L636.835 284.48ZM637.795 288.728L636.091 289.256C638.659 295.64 643.483 299.48 651.139 300.944C651.403 300.44 651.931 299.624 652.339 299.216C644.899 297.992 640.027 294.416 637.795 288.728ZM630.667 281.984V283.736H651.739V281.984H630.667ZM640.219 278.816V283.112H642.067V278.816H640.219ZM644.011 285.488C646.315 287.048 649.099 289.376 650.395 290.96L651.955 289.712C650.587 288.128 647.755 285.896 645.499 284.384L644.011 285.488ZM658.363 289.376V290.912H673.843V285.44H656.275V286.952H672.067V289.376H658.363ZM657.451 289.376C657.091 291.272 656.467 293.696 655.963 295.232L657.739 295.496C658.219 293.912 658.819 291.416 659.251 289.376H657.451ZM657.715 293.12L657.235 294.68H673.891V293.12H657.715ZM673.435 293.12V293.36C673.171 296.48 672.883 297.728 672.451 298.112C672.259 298.304 672.019 298.328 671.611 298.328C671.179 298.328 670.027 298.328 668.875 298.184C669.139 298.664 669.331 299.336 669.379 299.864C670.603 299.912 671.779 299.912 672.403 299.864C673.075 299.84 673.507 299.696 673.939 299.288C674.539 298.688 674.875 297.2 675.187 293.864C675.235 293.6 675.259 293.12 675.259 293.12H673.435ZM664.291 285.824V300.92H666.067V285.824H664.291ZM663.811 293.6C661.795 295.952 657.763 298.112 654.235 299.096C654.619 299.456 655.123 300.104 655.387 300.536C658.939 299.384 662.995 296.96 665.227 294.248L663.811 293.6ZM657.115 280.928V282.392H664.867V280.928H657.115ZM666.379 280.928V282.392H676.075V280.928H666.379ZM657.619 278.744C656.827 280.88 655.483 282.992 653.971 284.408C654.403 284.624 655.147 285.128 655.459 285.368C656.923 283.88 658.387 281.528 659.299 279.176L657.619 278.744ZM667.075 278.744C666.283 280.904 664.819 282.92 663.115 284.216C663.571 284.456 664.291 284.96 664.627 285.272C666.259 283.808 667.867 281.576 668.779 279.176L667.075 278.744ZM658.459 282.056C659.011 283.064 659.539 284.384 659.731 285.224L661.315 284.6C661.099 283.784 660.499 282.464 659.971 281.504L658.459 282.056ZM668.491 282.032C669.331 283.04 670.195 284.384 670.531 285.296L672.091 284.648C671.707 283.76 670.819 282.44 670.003 281.48L668.491 282.032ZM680.587 282.296V284.216H697.819V282.296H680.587ZM678.547 296.528V298.544H699.859V296.528H678.547ZM706.939 288.32H702.283V290H705.235V296.816H706.939V288.32ZM706.939 296.096H705.403C704.299 297.152 703.027 298.232 701.995 299.024L702.931 300.728C704.083 299.648 705.163 298.616 706.195 297.584C707.707 299.48 709.891 300.344 713.083 300.464C715.819 300.56 721.051 300.512 723.787 300.392C723.859 299.888 724.147 299.072 724.363 298.688C721.411 298.88 715.771 298.952 713.059 298.832C710.203 298.712 708.067 297.896 706.939 296.096ZM702.403 280.304C703.795 281.504 705.355 283.232 705.979 284.432L707.491 283.424C706.819 282.2 705.211 280.544 703.795 279.416L702.403 280.304ZM710.611 279.776V281.288H721.867V279.776H710.611ZM712.411 283.472V284.792H719.923V283.472H712.411ZM712.195 286.736V288.056H720.139V286.736H712.195ZM715.267 281.768V287.48H716.803V281.768H715.267ZM709.651 279.776V286.016C709.651 289.088 709.459 293.312 707.587 296.336C707.971 296.504 708.691 296.96 709.003 297.272C710.995 294.056 711.307 289.352 711.307 286.016V279.776H709.651ZM721.075 279.776V295.544C721.075 295.88 720.955 295.976 720.619 296C720.307 296 719.203 296 718.003 295.976C718.219 296.408 718.459 297.08 718.507 297.536C720.235 297.536 721.267 297.512 721.891 297.248C722.515 296.96 722.731 296.504 722.731 295.568V279.776H721.075ZM713.539 289.4V290.696H717.859V293.384H713.539V294.68H719.299V289.4H713.539ZM712.843 289.4V295.904H714.283V289.4H712.843ZM736.891 282.872L736.051 284.6H748.267V282.872H736.891ZM739.891 288.08V289.736H747.715V288.08H739.891ZM739.867 293.36V295.064H748.051V293.36H739.867ZM738.979 283.424V300.92H740.827V283.424H738.979ZM737.803 279.128C736.627 282.656 734.683 286.16 732.499 288.392C732.907 288.68 733.627 289.328 733.891 289.64C736.099 287.168 738.187 283.4 739.555 279.584L737.803 279.128ZM732.043 278.936C730.675 282.584 728.443 286.184 726.043 288.512C726.379 288.944 726.931 289.904 727.099 290.336C729.715 287.648 732.187 283.544 733.771 279.488L732.043 278.936ZM729.475 285.128V300.896H731.299V283.352L731.251 283.328L729.475 285.128ZM756.427 281.6H766.027V286.16H756.427V281.6ZM754.675 279.872V287.888H767.851V279.872H754.675ZM751.195 290.432V300.92H752.899V292.16H757.939V300.728H759.739V290.432H751.195ZM762.355 290.432V300.92H764.083V292.16H769.579V300.776H771.379V290.432H762.355ZM751.963 297.896V299.624H758.659V297.896H751.963ZM763.243 297.896V299.624H770.371V297.896H763.243Z" fill="white"/>
</g>
<g filter="url(#filter4_d_464_147)">
<path d="M632.576 434.952C632.576 436.136 632.328 437.208 631.832 438.168C631.352 439.112 630.608 439.864 629.6 440.424C628.592 440.968 627.32 441.24 625.784 441.24C623.608 441.24 621.952 440.664 620.816 439.512C619.696 438.344 619.136 436.808 619.136 434.904V423.864H621.728V434.784C621.728 436.192 622.072 437.256 622.76 437.976C623.448 438.68 624.496 439.032 625.904 439.032C626.864 439.032 627.648 438.856 628.256 438.504C628.864 438.152 629.304 437.664 629.576 437.04C629.864 436.4 630.008 435.64 630.008 434.76V423.864H632.576V434.952ZM642.279 441H635.631V439.512L637.671 438.912V425.976L635.631 425.352V423.864H642.279V425.352L640.263 425.976V438.912L642.279 439.512V441ZM654.675 426.192H662.691V428.112H654.675V426.192ZM654.675 423H662.691V424.92H654.675V423ZM653.019 421.632V429.504H664.419V421.632H653.019ZM651.915 431.232V432.744H665.739V431.232H651.915ZM657.819 431.976V441.096L659.499 441.792V431.976H657.819ZM654.603 436.392L653.499 436.8C654.963 441.696 657.723 442.56 661.731 442.56H665.955C666.003 442.104 666.243 441.336 666.483 440.952C665.643 440.976 662.403 440.976 661.803 440.976C658.467 440.976 655.827 440.376 654.603 436.392ZM658.971 435.552V437.04H664.539V435.552H658.971ZM653.499 433.872C653.115 437.424 652.035 440.136 649.899 441.84C650.259 442.104 650.955 442.632 651.243 442.92C653.403 441 654.651 438.024 655.131 434.064L653.499 433.872ZM643.875 433.608L644.331 435.36C646.371 434.712 648.987 433.848 651.483 433.032L651.219 431.376C648.531 432.24 645.747 433.104 643.875 433.608ZM644.139 425.688V427.368H651.459V425.688H644.139ZM647.115 420.864V440.664C647.115 441.024 647.019 441.12 646.707 441.12C646.419 441.12 645.507 441.12 644.451 441.096C644.691 441.6 644.907 442.344 644.979 442.776C646.491 442.776 647.427 442.728 647.979 442.44C648.579 442.152 648.795 441.672 648.795 440.688V420.864H647.115ZM682.659 430.608C680.451 436.68 675.411 439.8 668.139 441.312C668.523 441.744 669.099 442.56 669.291 443.016C676.659 441.168 681.939 437.832 684.579 431.136L682.659 430.608ZM674.835 426.48C673.371 428.52 670.827 430.512 668.475 431.76C668.931 432.096 669.627 432.816 669.939 433.2C672.267 431.736 674.955 429.48 676.659 427.176L674.835 426.48ZM675.795 430.728L674.091 431.256C676.659 437.64 681.483 441.48 689.139 442.944C689.403 442.44 689.931 441.624 690.339 441.216C682.899 439.992 678.027 436.416 675.795 430.728ZM668.667 423.984V425.736H689.739V423.984H668.667ZM678.219 420.816V425.112H680.067V420.816H678.219ZM682.011 427.488C684.315 429.048 687.099 431.376 688.395 432.96L689.955 431.712C688.587 430.128 685.755 427.896 683.499 426.384L682.011 427.488ZM696.363 431.376V432.912H711.843V427.44H694.275V428.952H710.067V431.376H696.363ZM695.451 431.376C695.091 433.272 694.467 435.696 693.963 437.232L695.739 437.496C696.219 435.912 696.819 433.416 697.251 431.376H695.451ZM695.715 435.12L695.235 436.68H711.891V435.12H695.715ZM711.435 435.12V435.36C711.171 438.48 710.883 439.728 710.451 440.112C710.259 440.304 710.019 440.328 709.611 440.328C709.179 440.328 708.027 440.328 706.875 440.184C707.139 440.664 707.331 441.336 707.379 441.864C708.603 441.912 709.779 441.912 710.403 441.864C711.075 441.84 711.507 441.696 711.939 441.288C712.539 440.688 712.875 439.2 713.187 435.864C713.235 435.6 713.259 435.12 713.259 435.12H711.435ZM702.291 427.824V442.92H704.067V427.824H702.291ZM701.811 435.6C699.795 437.952 695.763 440.112 692.235 441.096C692.619 441.456 693.123 442.104 693.387 442.536C696.939 441.384 700.995 438.96 703.227 436.248L701.811 435.6ZM695.115 422.928V424.392H702.867V422.928H695.115ZM704.379 422.928V424.392H714.075V422.928H704.379ZM695.619 420.744C694.827 422.88 693.483 424.992 691.971 426.408C692.403 426.624 693.147 427.128 693.459 427.368C694.923 425.88 696.387 423.528 697.299 421.176L695.619 420.744ZM705.075 420.744C704.283 422.904 702.819 424.92 701.115 426.216C701.571 426.456 702.291 426.96 702.627 427.272C704.259 425.808 705.867 423.576 706.779 421.176L705.075 420.744ZM696.459 424.056C697.011 425.064 697.539 426.384 697.731 427.224L699.315 426.6C699.099 425.784 698.499 424.464 697.971 423.504L696.459 424.056ZM706.491 424.032C707.331 425.04 708.195 426.384 708.531 427.296L710.091 426.648C709.707 425.76 708.819 424.44 708.003 423.48L706.491 424.032ZM718.155 423.192V424.992H736.299V423.192H718.155ZM719.691 431.04V432.84H734.403V431.04H719.691ZM716.763 439.368V441.192H737.595V439.368H716.763ZM744.939 430.32H740.283V432H743.235V438.816H744.939V430.32ZM744.939 438.096H743.403C742.299 439.152 741.027 440.232 739.995 441.024L740.931 442.728C742.083 441.648 743.163 440.616 744.195 439.584C745.707 441.48 747.891 442.344 751.083 442.464C753.819 442.56 759.051 442.512 761.787 442.392C761.859 441.888 762.147 441.072 762.363 440.688C759.411 440.88 753.771 440.952 751.059 440.832C748.203 440.712 746.067 439.896 744.939 438.096ZM740.403 422.304C741.795 423.504 743.355 425.232 743.979 426.432L745.491 425.424C744.819 424.2 743.211 422.544 741.795 421.416L740.403 422.304ZM748.611 421.776V423.288H759.867V421.776H748.611ZM750.411 425.472V426.792H757.923V425.472H750.411ZM750.195 428.736V430.056H758.139V428.736H750.195ZM753.267 423.768V429.48H754.803V423.768H753.267ZM747.651 421.776V428.016C747.651 431.088 747.459 435.312 745.587 438.336C745.971 438.504 746.691 438.96 747.003 439.272C748.995 436.056 749.307 431.352 749.307 428.016V421.776H747.651ZM759.075 421.776V437.544C759.075 437.88 758.955 437.976 758.619 438C758.307 438 757.203 438 756.003 437.976C756.219 438.408 756.459 439.08 756.507 439.536C758.235 439.536 759.267 439.512 759.891 439.248C760.515 438.96 760.731 438.504 760.731 437.568V421.776H759.075ZM751.539 431.4V432.696H755.859V435.384H751.539V436.68H757.299V431.4H751.539ZM750.843 431.4V437.904H752.283V431.4H750.843ZM774.891 424.872L774.051 426.6H786.267V424.872H774.891ZM777.891 430.08V431.736H785.715V430.08H777.891ZM777.867 435.36V437.064H786.051V435.36H777.867ZM776.979 425.424V442.92H778.827V425.424H776.979ZM775.803 421.128C774.627 424.656 772.683 428.16 770.499 430.392C770.907 430.68 771.627 431.328 771.891 431.64C774.099 429.168 776.187 425.4 777.555 421.584L775.803 421.128ZM770.043 420.936C768.675 424.584 766.443 428.184 764.043 430.512C764.379 430.944 764.931 431.904 765.099 432.336C767.715 429.648 770.187 425.544 771.771 421.488L770.043 420.936ZM767.475 427.128V442.896H769.299V425.352L769.251 425.328L767.475 427.128ZM794.427 423.6H804.027V428.16H794.427V423.6ZM792.675 421.872V429.888H805.851V421.872H792.675ZM789.195 432.432V442.92H790.899V434.16H795.939V442.728H797.739V432.432H789.195ZM800.355 432.432V442.92H802.083V434.16H807.579V442.776H809.379V432.432H800.355ZM789.963 439.896V441.624H796.659V439.896H789.963ZM801.243 439.896V441.624H808.371V439.896H801.243Z" fill="white"/>
</g>
<g filter="url(#filter5_d_464_147)">
<path d="M580.272 320.632V322.312H601.728V320.632H580.272ZM582.744 328.36V329.776H589.464V328.36H582.744ZM582.744 332.2V333.616H589.464V332.2H582.744ZM593.472 324.664V334.528H595.176V324.664H593.472ZM588.816 324.448V336.832C588.816 337.144 588.72 337.24 588.384 337.264C588.048 337.288 586.944 337.288 585.744 337.24C585.984 337.696 586.248 338.368 586.344 338.824C587.976 338.824 589.032 338.824 589.68 338.536C590.352 338.248 590.568 337.768 590.568 336.856V324.448H588.816ZM598.344 323.944V336.688C598.344 337.024 598.224 337.12 597.84 337.144C597.432 337.168 596.136 337.168 594.672 337.12C594.936 337.6 595.224 338.368 595.32 338.848C597.192 338.848 598.392 338.8 599.136 338.536C599.88 338.248 600.12 337.744 600.12 336.688V323.944H598.344ZM583.992 317.44C584.904 318.472 585.888 319.936 586.272 320.848L588.048 320.2C587.592 319.264 586.584 317.848 585.648 316.816L583.992 317.44ZM596.328 316.744C595.728 318.04 594.648 319.888 593.784 321.04L595.368 321.64C596.256 320.512 597.336 318.856 598.248 317.368L596.328 316.744ZM581.784 324.448V338.8H583.488V326.008H589.392V324.448H581.784ZM612.048 325.552V327.184H625.992V325.552H612.048ZM616.536 330.04V338.656H617.976V330.04H616.536ZM620.184 330.04V338.608H621.648V330.04H620.184ZM618.072 316.888V323.08H619.8V316.888H618.072ZM612.792 329.416V338.896H614.424V330.976H624.744V329.416H612.792ZM623.856 329.416V337.216C623.856 337.432 623.784 337.504 623.592 337.504C623.4 337.528 622.8 337.528 622.104 337.504C622.32 337.912 622.536 338.512 622.608 338.944C623.688 338.944 624.36 338.944 624.888 338.656C625.368 338.44 625.488 338.008 625.488 337.24V329.416H623.856ZM618.072 326.08C617.928 327.208 617.616 328.888 617.328 329.992L618.864 330.4C619.248 329.416 619.68 327.88 620.136 326.512L618.072 326.08ZM613.08 318.064V323.752H625.176V318.064H623.448V322.168H614.76V318.064H613.08ZM604.224 321.664V323.32H611.808V321.664H604.224ZM607.248 317.152V322.48H608.88V317.152H607.248ZM603.768 334.024L604.2 335.8C606.504 335.248 609.528 334.528 612.408 333.784L612.24 332.224C609.144 332.896 605.952 333.616 603.768 334.024ZM604.752 324.496C605.256 326.944 605.64 330.136 605.64 332.248L607.128 332.008C607.104 329.896 606.696 326.728 606.144 324.256L604.752 324.496ZM609.552 324.04C609.336 326.704 608.76 330.544 608.232 332.8L609.576 333.16C610.152 330.928 610.8 327.208 611.256 324.4L609.552 324.04ZM638.472 322.192H646.488V324.112H638.472V322.192ZM638.472 319H646.488V320.92H638.472V319ZM636.816 317.632V325.504H648.216V317.632H636.816ZM635.712 327.232V328.744H649.536V327.232H635.712ZM641.616 327.976V337.096L643.296 337.792V327.976H641.616ZM638.4 332.392L637.296 332.8C638.76 337.696 641.52 338.56 645.528 338.56H649.752C649.8 338.104 650.04 337.336 650.28 336.952C649.44 336.976 646.2 336.976 645.6 336.976C642.264 336.976 639.624 336.376 638.4 332.392ZM642.768 331.552V333.04H648.336V331.552H642.768ZM637.296 329.872C636.912 333.424 635.832 336.136 633.696 337.84C634.056 338.104 634.752 338.632 635.04 338.92C637.2 337 638.448 334.024 638.928 330.064L637.296 329.872ZM627.672 329.608L628.128 331.36C630.168 330.712 632.784 329.848 635.28 329.032L635.016 327.376C632.328 328.24 629.544 329.104 627.672 329.608ZM627.936 321.688V323.368H635.256V321.688H627.936ZM630.912 316.864V336.664C630.912 337.024 630.816 337.12 630.504 337.12C630.216 337.12 629.304 337.12 628.248 337.096C628.488 337.6 628.704 338.344 628.776 338.776C630.288 338.776 631.224 338.728 631.776 338.44C632.376 338.152 632.592 337.672 632.592 336.688V316.864H630.912ZM666.456 326.608C664.248 332.68 659.208 335.8 651.936 337.312C652.32 337.744 652.896 338.56 653.088 339.016C660.456 337.168 665.736 333.832 668.376 327.136L666.456 326.608ZM658.632 322.48C657.168 324.52 654.624 326.512 652.272 327.76C652.728 328.096 653.424 328.816 653.736 329.2C656.064 327.736 658.752 325.48 660.456 323.176L658.632 322.48ZM659.592 326.728L657.888 327.256C660.456 333.64 665.28 337.48 672.936 338.944C673.2 338.44 673.728 337.624 674.136 337.216C666.696 335.992 661.824 332.416 659.592 326.728ZM652.464 319.984V321.736H673.536V319.984H652.464ZM662.016 316.816V321.112H663.864V316.816H662.016ZM665.808 323.488C668.112 325.048 670.896 327.376 672.192 328.96L673.752 327.712C672.384 326.128 669.552 323.896 667.296 322.384L665.808 323.488ZM680.16 327.376V328.912H695.64V323.44H678.072V324.952H693.864V327.376H680.16ZM679.248 327.376C678.888 329.272 678.264 331.696 677.76 333.232L679.536 333.496C680.016 331.912 680.616 329.416 681.048 327.376H679.248ZM679.512 331.12L679.032 332.68H695.688V331.12H679.512ZM695.232 331.12V331.36C694.968 334.48 694.68 335.728 694.248 336.112C694.056 336.304 693.816 336.328 693.408 336.328C692.976 336.328 691.824 336.328 690.672 336.184C690.936 336.664 691.128 337.336 691.176 337.864C692.4 337.912 693.576 337.912 694.2 337.864C694.872 337.84 695.304 337.696 695.736 337.288C696.336 336.688 696.672 335.2 696.984 331.864C697.032 331.6 697.056 331.12 697.056 331.12H695.232ZM686.088 323.824V338.92H687.864V323.824H686.088ZM685.608 331.6C683.592 333.952 679.56 336.112 676.032 337.096C676.416 337.456 676.92 338.104 677.184 338.536C680.736 337.384 684.792 334.96 687.024 332.248L685.608 331.6ZM678.912 318.928V320.392H686.664V318.928H678.912ZM688.176 318.928V320.392H697.872V318.928H688.176ZM679.416 316.744C678.624 318.88 677.28 320.992 675.768 322.408C676.2 322.624 676.944 323.128 677.256 323.368C678.72 321.88 680.184 319.528 681.096 317.176L679.416 316.744ZM688.872 316.744C688.08 318.904 686.616 320.92 684.912 322.216C685.368 322.456 686.088 322.96 686.424 323.272C688.056 321.808 689.664 319.576 690.576 317.176L688.872 316.744ZM680.256 320.056C680.808 321.064 681.336 322.384 681.528 323.224L683.112 322.6C682.896 321.784 682.296 320.464 681.768 319.504L680.256 320.056ZM690.288 320.032C691.128 321.04 691.992 322.384 692.328 323.296L693.888 322.648C693.504 321.76 692.616 320.44 691.8 319.48L690.288 320.032ZM700.056 326.656V328.624H722.016V326.656H700.056ZM728.736 326.32H724.08V328H727.032V334.816H728.736V326.32ZM728.736 334.096H727.2C726.096 335.152 724.824 336.232 723.792 337.024L724.728 338.728C725.88 337.648 726.96 336.616 727.992 335.584C729.504 337.48 731.688 338.344 734.88 338.464C737.616 338.56 742.848 338.512 745.584 338.392C745.656 337.888 745.944 337.072 746.16 336.688C743.208 336.88 737.568 336.952 734.856 336.832C732 336.712 729.864 335.896 728.736 334.096ZM724.2 318.304C725.592 319.504 727.152 321.232 727.776 322.432L729.288 321.424C728.616 320.2 727.008 318.544 725.592 317.416L724.2 318.304ZM732.408 317.776V319.288H743.664V317.776H732.408ZM734.208 321.472V322.792H741.72V321.472H734.208ZM733.992 324.736V326.056H741.936V324.736H733.992ZM737.064 319.768V325.48H738.6V319.768H737.064ZM731.448 317.776V324.016C731.448 327.088 731.256 331.312 729.384 334.336C729.768 334.504 730.488 334.96 730.8 335.272C732.792 332.056 733.104 327.352 733.104 324.016V317.776H731.448ZM742.872 317.776V333.544C742.872 333.88 742.752 333.976 742.416 334C742.104 334 741 334 739.8 333.976C740.016 334.408 740.256 335.08 740.304 335.536C742.032 335.536 743.064 335.512 743.688 335.248C744.312 334.96 744.528 334.504 744.528 333.568V317.776H742.872ZM735.336 327.4V328.696H739.656V331.384H735.336V332.68H741.096V327.4H735.336ZM734.64 327.4V333.904H736.08V327.4H734.64ZM758.688 320.872L757.848 322.6H770.064V320.872H758.688ZM761.688 326.08V327.736H769.512V326.08H761.688ZM761.664 331.36V333.064H769.848V331.36H761.664ZM760.776 321.424V338.92H762.624V321.424H760.776ZM759.6 317.128C758.424 320.656 756.48 324.16 754.296 326.392C754.704 326.68 755.424 327.328 755.688 327.64C757.896 325.168 759.984 321.4 761.352 317.584L759.6 317.128ZM753.84 316.936C752.472 320.584 750.24 324.184 747.84 326.512C748.176 326.944 748.728 327.904 748.896 328.336C751.512 325.648 753.984 321.544 755.568 317.488L753.84 316.936ZM751.272 323.128V338.896H753.096V321.352L753.048 321.328L751.272 323.128ZM778.224 319.6H787.824V324.16H778.224V319.6ZM776.472 317.872V325.888H789.648V317.872H776.472ZM772.992 328.432V338.92H774.696V330.16H779.736V338.728H781.536V328.432H772.992ZM784.152 328.432V338.92H785.88V330.16H791.376V338.776H793.176V328.432H784.152ZM773.76 335.896V337.624H780.456V335.896H773.76ZM785.04 335.896V337.624H792.168V335.896H785.04Z" fill="white"/>
</g>
<g filter="url(#filter6_d_464_147)">
<path d="M618.272 462.632V464.312H639.728V462.632H618.272ZM620.744 470.36V471.776H627.464V470.36H620.744ZM620.744 474.2V475.616H627.464V474.2H620.744ZM631.472 466.664V476.528H633.176V466.664H631.472ZM626.816 466.448V478.832C626.816 479.144 626.72 479.24 626.384 479.264C626.048 479.288 624.944 479.288 623.744 479.24C623.984 479.696 624.248 480.368 624.344 480.824C625.976 480.824 627.032 480.824 627.68 480.536C628.352 480.248 628.568 479.768 628.568 478.856V466.448H626.816ZM636.344 465.944V478.688C636.344 479.024 636.224 479.12 635.84 479.144C635.432 479.168 634.136 479.168 632.672 479.12C632.936 479.6 633.224 480.368 633.32 480.848C635.192 480.848 636.392 480.8 637.136 480.536C637.88 480.248 638.12 479.744 638.12 478.688V465.944H636.344ZM621.992 459.44C622.904 460.472 623.888 461.936 624.272 462.848L626.048 462.2C625.592 461.264 624.584 459.848 623.648 458.816L621.992 459.44ZM634.328 458.744C633.728 460.04 632.648 461.888 631.784 463.04L633.368 463.64C634.256 462.512 635.336 460.856 636.248 459.368L634.328 458.744ZM619.784 466.448V480.8H621.488V468.008H627.392V466.448H619.784ZM650.048 467.552V469.184H663.992V467.552H650.048ZM654.536 472.04V480.656H655.976V472.04H654.536ZM658.184 472.04V480.608H659.648V472.04H658.184ZM656.072 458.888V465.08H657.8V458.888H656.072ZM650.792 471.416V480.896H652.424V472.976H662.744V471.416H650.792ZM661.856 471.416V479.216C661.856 479.432 661.784 479.504 661.592 479.504C661.4 479.528 660.8 479.528 660.104 479.504C660.32 479.912 660.536 480.512 660.608 480.944C661.688 480.944 662.36 480.944 662.888 480.656C663.368 480.44 663.488 480.008 663.488 479.24V471.416H661.856ZM656.072 468.08C655.928 469.208 655.616 470.888 655.328 471.992L656.864 472.4C657.248 471.416 657.68 469.88 658.136 468.512L656.072 468.08ZM651.08 460.064V465.752H663.176V460.064H661.448V464.168H652.76V460.064H651.08ZM642.224 463.664V465.32H649.808V463.664H642.224ZM645.248 459.152V464.48H646.88V459.152H645.248ZM641.768 476.024L642.2 477.8C644.504 477.248 647.528 476.528 650.408 475.784L650.24 474.224C647.144 474.896 643.952 475.616 641.768 476.024ZM642.752 466.496C643.256 468.944 643.64 472.136 643.64 474.248L645.128 474.008C645.104 471.896 644.696 468.728 644.144 466.256L642.752 466.496ZM647.552 466.04C647.336 468.704 646.76 472.544 646.232 474.8L647.576 475.16C648.152 472.928 648.8 469.208 649.256 466.4L647.552 466.04ZM676.472 464.192H684.488V466.112H676.472V464.192ZM676.472 461H684.488V462.92H676.472V461ZM674.816 459.632V467.504H686.216V459.632H674.816ZM673.712 469.232V470.744H687.536V469.232H673.712ZM679.616 469.976V479.096L681.296 479.792V469.976H679.616ZM676.4 474.392L675.296 474.8C676.76 479.696 679.52 480.56 683.528 480.56H687.752C687.8 480.104 688.04 479.336 688.28 478.952C687.44 478.976 684.2 478.976 683.6 478.976C680.264 478.976 677.624 478.376 676.4 474.392ZM680.768 473.552V475.04H686.336V473.552H680.768ZM675.296 471.872C674.912 475.424 673.832 478.136 671.696 479.84C672.056 480.104 672.752 480.632 673.04 480.92C675.2 479 676.448 476.024 676.928 472.064L675.296 471.872ZM665.672 471.608L666.128 473.36C668.168 472.712 670.784 471.848 673.28 471.032L673.016 469.376C670.328 470.24 667.544 471.104 665.672 471.608ZM665.936 463.688V465.368H673.256V463.688H665.936ZM668.912 458.864V478.664C668.912 479.024 668.816 479.12 668.504 479.12C668.216 479.12 667.304 479.12 666.248 479.096C666.488 479.6 666.704 480.344 666.776 480.776C668.288 480.776 669.224 480.728 669.776 480.44C670.376 480.152 670.592 479.672 670.592 478.688V458.864H668.912ZM704.456 468.608C702.248 474.68 697.208 477.8 689.936 479.312C690.32 479.744 690.896 480.56 691.088 481.016C698.456 479.168 703.736 475.832 706.376 469.136L704.456 468.608ZM696.632 464.48C695.168 466.52 692.624 468.512 690.272 469.76C690.728 470.096 691.424 470.816 691.736 471.2C694.064 469.736 696.752 467.48 698.456 465.176L696.632 464.48ZM697.592 468.728L695.888 469.256C698.456 475.64 703.28 479.48 710.936 480.944C711.2 480.44 711.728 479.624 712.136 479.216C704.696 477.992 699.824 474.416 697.592 468.728ZM690.464 461.984V463.736H711.536V461.984H690.464ZM700.016 458.816V463.112H701.864V458.816H700.016ZM703.808 465.488C706.112 467.048 708.896 469.376 710.192 470.96L711.752 469.712C710.384 468.128 707.552 465.896 705.296 464.384L703.808 465.488ZM718.16 469.376V470.912H733.64V465.44H716.072V466.952H731.864V469.376H718.16ZM717.248 469.376C716.888 471.272 716.264 473.696 715.76 475.232L717.536 475.496C718.016 473.912 718.616 471.416 719.048 469.376H717.248ZM717.512 473.12L717.032 474.68H733.688V473.12H717.512ZM733.232 473.12V473.36C732.968 476.48 732.68 477.728 732.248 478.112C732.056 478.304 731.816 478.328 731.408 478.328C730.976 478.328 729.824 478.328 728.672 478.184C728.936 478.664 729.128 479.336 729.176 479.864C730.4 479.912 731.576 479.912 732.2 479.864C732.872 479.84 733.304 479.696 733.736 479.288C734.336 478.688 734.672 477.2 734.984 473.864C735.032 473.6 735.056 473.12 735.056 473.12H733.232ZM724.088 465.824V480.92H725.864V465.824H724.088ZM723.608 473.6C721.592 475.952 717.56 478.112 714.032 479.096C714.416 479.456 714.92 480.104 715.184 480.536C718.736 479.384 722.792 476.96 725.024 474.248L723.608 473.6ZM716.912 460.928V462.392H724.664V460.928H716.912ZM726.176 460.928V462.392H735.872V460.928H726.176ZM717.416 458.744C716.624 460.88 715.28 462.992 713.768 464.408C714.2 464.624 714.944 465.128 715.256 465.368C716.72 463.88 718.184 461.528 719.096 459.176L717.416 458.744ZM726.872 458.744C726.08 460.904 724.616 462.92 722.912 464.216C723.368 464.456 724.088 464.96 724.424 465.272C726.056 463.808 727.664 461.576 728.576 459.176L726.872 458.744ZM718.256 462.056C718.808 463.064 719.336 464.384 719.528 465.224L721.112 464.6C720.896 463.784 720.296 462.464 719.768 461.504L718.256 462.056ZM728.288 462.032C729.128 463.04 729.992 464.384 730.328 465.296L731.888 464.648C731.504 463.76 730.616 462.44 729.8 461.48L728.288 462.032ZM740.384 462.296V464.216H757.616V462.296H740.384ZM738.344 476.528V478.544H759.656V476.528H738.344ZM766.736 468.32H762.08V470H765.032V476.816H766.736V468.32ZM766.736 476.096H765.2C764.096 477.152 762.824 478.232 761.792 479.024L762.728 480.728C763.88 479.648 764.96 478.616 765.992 477.584C767.504 479.48 769.688 480.344 772.88 480.464C775.616 480.56 780.848 480.512 783.584 480.392C783.656 479.888 783.944 479.072 784.16 478.688C781.208 478.88 775.568 478.952 772.856 478.832C770 478.712 767.864 477.896 766.736 476.096ZM762.2 460.304C763.592 461.504 765.152 463.232 765.776 464.432L767.288 463.424C766.616 462.2 765.008 460.544 763.592 459.416L762.2 460.304ZM770.408 459.776V461.288H781.664V459.776H770.408ZM772.208 463.472V464.792H779.72V463.472H772.208ZM771.992 466.736V468.056H779.936V466.736H771.992ZM775.064 461.768V467.48H776.6V461.768H775.064ZM769.448 459.776V466.016C769.448 469.088 769.256 473.312 767.384 476.336C767.768 476.504 768.488 476.96 768.8 477.272C770.792 474.056 771.104 469.352 771.104 466.016V459.776H769.448ZM780.872 459.776V475.544C780.872 475.88 780.752 475.976 780.416 476C780.104 476 779 476 777.8 475.976C778.016 476.408 778.256 477.08 778.304 477.536C780.032 477.536 781.064 477.512 781.688 477.248C782.312 476.96 782.528 476.504 782.528 475.568V459.776H780.872ZM773.336 469.4V470.696H777.656V473.384H773.336V474.68H779.096V469.4H773.336ZM772.64 469.4V475.904H774.08V469.4H772.64ZM796.688 462.872L795.848 464.6H808.064V462.872H796.688ZM799.688 468.08V469.736H807.512V468.08H799.688ZM799.664 473.36V475.064H807.848V473.36H799.664ZM798.776 463.424V480.92H800.624V463.424H798.776ZM797.6 459.128C796.424 462.656 794.48 466.16 792.296 468.392C792.704 468.68 793.424 469.328 793.688 469.64C795.896 467.168 797.984 463.4 799.352 459.584L797.6 459.128ZM791.84 458.936C790.472 462.584 788.24 466.184 785.84 468.512C786.176 468.944 786.728 469.904 786.896 470.336C789.512 467.648 791.984 463.544 793.568 459.488L791.84 458.936ZM789.272 465.128V480.896H791.096V463.352L791.048 463.328L789.272 465.128ZM816.224 461.6H825.824V466.16H816.224V461.6ZM814.472 459.872V467.888H827.648V459.872H814.472ZM810.992 470.432V480.92H812.696V472.16H817.736V480.728H819.536V470.432H810.992ZM822.152 470.432V480.92H823.88V472.16H829.376V480.776H831.176V470.432H822.152ZM811.76 477.896V479.624H818.456V477.896H811.76ZM823.04 477.896V479.624H830.168V477.896H823.04Z" fill="white"/>
</g>
<g filter="url(#filter7_d_464_147)">
<path d="M651.272 566.632V568.312H672.728V566.632H651.272ZM653.744 574.36V575.776H660.464V574.36H653.744ZM653.744 578.2V579.616H660.464V578.2H653.744ZM664.472 570.664V580.528H666.176V570.664H664.472ZM659.816 570.448V582.832C659.816 583.144 659.72 583.24 659.384 583.264C659.048 583.288 657.944 583.288 656.744 583.24C656.984 583.696 657.248 584.368 657.344 584.824C658.976 584.824 660.032 584.824 660.68 584.536C661.352 584.248 661.568 583.768 661.568 582.856V570.448H659.816ZM669.344 569.944V582.688C669.344 583.024 669.224 583.12 668.84 583.144C668.432 583.168 667.136 583.168 665.672 583.12C665.936 583.6 666.224 584.368 666.32 584.848C668.192 584.848 669.392 584.8 670.136 584.536C670.88 584.248 671.12 583.744 671.12 582.688V569.944H669.344ZM654.992 563.44C655.904 564.472 656.888 565.936 657.272 566.848L659.048 566.2C658.592 565.264 657.584 563.848 656.648 562.816L654.992 563.44ZM667.328 562.744C666.728 564.04 665.648 565.888 664.784 567.04L666.368 567.64C667.256 566.512 668.336 564.856 669.248 563.368L667.328 562.744ZM652.784 570.448V584.8H654.488V572.008H660.392V570.448H652.784ZM683.048 571.552V573.184H696.992V571.552H683.048ZM687.536 576.04V584.656H688.976V576.04H687.536ZM691.184 576.04V584.608H692.648V576.04H691.184ZM689.072 562.888V569.08H690.8V562.888H689.072ZM683.792 575.416V584.896H685.424V576.976H695.744V575.416H683.792ZM694.856 575.416V583.216C694.856 583.432 694.784 583.504 694.592 583.504C694.4 583.528 693.8 583.528 693.104 583.504C693.32 583.912 693.536 584.512 693.608 584.944C694.688 584.944 695.36 584.944 695.888 584.656C696.368 584.44 696.488 584.008 696.488 583.24V575.416H694.856ZM689.072 572.08C688.928 573.208 688.616 574.888 688.328 575.992L689.864 576.4C690.248 575.416 690.68 573.88 691.136 572.512L689.072 572.08ZM684.08 564.064V569.752H696.176V564.064H694.448V568.168H685.76V564.064H684.08ZM675.224 567.664V569.32H682.808V567.664H675.224ZM678.248 563.152V568.48H679.88V563.152H678.248ZM674.768 580.024L675.2 581.8C677.504 581.248 680.528 580.528 683.408 579.784L683.24 578.224C680.144 578.896 676.952 579.616 674.768 580.024ZM675.752 570.496C676.256 572.944 676.64 576.136 676.64 578.248L678.128 578.008C678.104 575.896 677.696 572.728 677.144 570.256L675.752 570.496ZM680.552 570.04C680.336 572.704 679.76 576.544 679.232 578.8L680.576 579.16C681.152 576.928 681.8 573.208 682.256 570.4L680.552 570.04ZM709.472 568.192H717.488V570.112H709.472V568.192ZM709.472 565H717.488V566.92H709.472V565ZM707.816 563.632V571.504H719.216V563.632H707.816ZM706.712 573.232V574.744H720.536V573.232H706.712ZM712.616 573.976V583.096L714.296 583.792V573.976H712.616ZM709.4 578.392L708.296 578.8C709.76 583.696 712.52 584.56 716.528 584.56H720.752C720.8 584.104 721.04 583.336 721.28 582.952C720.44 582.976 717.2 582.976 716.6 582.976C713.264 582.976 710.624 582.376 709.4 578.392ZM713.768 577.552V579.04H719.336V577.552H713.768ZM708.296 575.872C707.912 579.424 706.832 582.136 704.696 583.84C705.056 584.104 705.752 584.632 706.04 584.92C708.2 583 709.448 580.024 709.928 576.064L708.296 575.872ZM698.672 575.608L699.128 577.36C701.168 576.712 703.784 575.848 706.28 575.032L706.016 573.376C703.328 574.24 700.544 575.104 698.672 575.608ZM698.936 567.688V569.368H706.256V567.688H698.936ZM701.912 562.864V582.664C701.912 583.024 701.816 583.12 701.504 583.12C701.216 583.12 700.304 583.12 699.248 583.096C699.488 583.6 699.704 584.344 699.776 584.776C701.288 584.776 702.224 584.728 702.776 584.44C703.376 584.152 703.592 583.672 703.592 582.688V562.864H701.912ZM737.456 572.608C735.248 578.68 730.208 581.8 722.936 583.312C723.32 583.744 723.896 584.56 724.088 585.016C731.456 583.168 736.736 579.832 739.376 573.136L737.456 572.608ZM729.632 568.48C728.168 570.52 725.624 572.512 723.272 573.76C723.728 574.096 724.424 574.816 724.736 575.2C727.064 573.736 729.752 571.48 731.456 569.176L729.632 568.48ZM730.592 572.728L728.888 573.256C731.456 579.64 736.28 583.48 743.936 584.944C744.2 584.44 744.728 583.624 745.136 583.216C737.696 581.992 732.824 578.416 730.592 572.728ZM723.464 565.984V567.736H744.536V565.984H723.464ZM733.016 562.816V567.112H734.864V562.816H733.016ZM736.808 569.488C739.112 571.048 741.896 573.376 743.192 574.96L744.752 573.712C743.384 572.128 740.552 569.896 738.296 568.384L736.808 569.488ZM751.16 573.376V574.912H766.64V569.44H749.072V570.952H764.864V573.376H751.16ZM750.248 573.376C749.888 575.272 749.264 577.696 748.76 579.232L750.536 579.496C751.016 577.912 751.616 575.416 752.048 573.376H750.248ZM750.512 577.12L750.032 578.68H766.688V577.12H750.512ZM766.232 577.12V577.36C765.968 580.48 765.68 581.728 765.248 582.112C765.056 582.304 764.816 582.328 764.408 582.328C763.976 582.328 762.824 582.328 761.672 582.184C761.936 582.664 762.128 583.336 762.176 583.864C763.4 583.912 764.576 583.912 765.2 583.864C765.872 583.84 766.304 583.696 766.736 583.288C767.336 582.688 767.672 581.2 767.984 577.864C768.032 577.6 768.056 577.12 768.056 577.12H766.232ZM757.088 569.824V584.92H758.864V569.824H757.088ZM756.608 577.6C754.592 579.952 750.56 582.112 747.032 583.096C747.416 583.456 747.92 584.104 748.184 584.536C751.736 583.384 755.792 580.96 758.024 578.248L756.608 577.6ZM749.912 564.928V566.392H757.664V564.928H749.912ZM759.176 564.928V566.392H768.872V564.928H759.176ZM750.416 562.744C749.624 564.88 748.28 566.992 746.768 568.408C747.2 568.624 747.944 569.128 748.256 569.368C749.72 567.88 751.184 565.528 752.096 563.176L750.416 562.744ZM759.872 562.744C759.08 564.904 757.616 566.92 755.912 568.216C756.368 568.456 757.088 568.96 757.424 569.272C759.056 567.808 760.664 565.576 761.576 563.176L759.872 562.744ZM751.256 566.056C751.808 567.064 752.336 568.384 752.528 569.224L754.112 568.6C753.896 567.784 753.296 566.464 752.768 565.504L751.256 566.056ZM761.288 566.032C762.128 567.04 762.992 568.384 763.328 569.296L764.888 568.648C764.504 567.76 763.616 566.44 762.8 565.48L761.288 566.032ZM773.384 566.296V568.216H790.616V566.296H773.384ZM771.344 580.528V582.544H792.656V580.528H771.344ZM799.736 572.32H795.08V574H798.032V580.816H799.736V572.32ZM799.736 580.096H798.2C797.096 581.152 795.824 582.232 794.792 583.024L795.728 584.728C796.88 583.648 797.96 582.616 798.992 581.584C800.504 583.48 802.688 584.344 805.88 584.464C808.616 584.56 813.848 584.512 816.584 584.392C816.656 583.888 816.944 583.072 817.16 582.688C814.208 582.88 808.568 582.952 805.856 582.832C803 582.712 800.864 581.896 799.736 580.096ZM795.2 564.304C796.592 565.504 798.152 567.232 798.776 568.432L800.288 567.424C799.616 566.2 798.008 564.544 796.592 563.416L795.2 564.304ZM803.408 563.776V565.288H814.664V563.776H803.408ZM805.208 567.472V568.792H812.72V567.472H805.208ZM804.992 570.736V572.056H812.936V570.736H804.992ZM808.064 565.768V571.48H809.6V565.768H808.064ZM802.448 563.776V570.016C802.448 573.088 802.256 577.312 800.384 580.336C800.768 580.504 801.488 580.96 801.8 581.272C803.792 578.056 804.104 573.352 804.104 570.016V563.776H802.448ZM813.872 563.776V579.544C813.872 579.88 813.752 579.976 813.416 580C813.104 580 812 580 810.8 579.976C811.016 580.408 811.256 581.08 811.304 581.536C813.032 581.536 814.064 581.512 814.688 581.248C815.312 580.96 815.528 580.504 815.528 579.568V563.776H813.872ZM806.336 573.4V574.696H810.656V577.384H806.336V578.68H812.096V573.4H806.336ZM805.64 573.4V579.904H807.08V573.4H805.64ZM829.688 566.872L828.848 568.6H841.064V566.872H829.688ZM832.688 572.08V573.736H840.512V572.08H832.688ZM832.664 577.36V579.064H840.848V577.36H832.664ZM831.776 567.424V584.92H833.624V567.424H831.776ZM830.6 563.128C829.424 566.656 827.48 570.16 825.296 572.392C825.704 572.68 826.424 573.328 826.688 573.64C828.896 571.168 830.984 567.4 832.352 563.584L830.6 563.128ZM824.84 562.936C823.472 566.584 821.24 570.184 818.84 572.512C819.176 572.944 819.728 573.904 819.896 574.336C822.512 571.648 824.984 567.544 826.568 563.488L824.84 562.936ZM822.272 569.128V584.896H824.096V567.352L824.048 567.328L822.272 569.128ZM849.224 565.6H858.824V570.16H849.224V565.6ZM847.472 563.872V571.888H860.648V563.872H847.472ZM843.992 574.432V584.92H845.696V576.16H850.736V584.728H852.536V574.432H843.992ZM855.152 574.432V584.92H856.88V576.16H862.376V584.776H864.176V574.432H855.152ZM844.76 581.896V583.624H851.456V581.896H844.76ZM856.04 581.896V583.624H863.168V581.896H856.04Z" fill="white"/>
</g>
<g filter="url(#filter8_d_464_147)">
<path d="M557.594 157.125V152.086L559.023 150.141L560.547 151.734L560.453 157.266L559.094 159L557.594 157.125ZM557.594 146.977V141.938L559.023 139.992L560.547 141.586L560.453 147.117L559.094 148.852L557.594 146.977ZM572.594 157.125V152.086L574.023 150.141L575.547 151.734L575.453 157.266L574.094 159L572.594 157.125ZM572.594 146.977V141.938L574.023 139.992L575.547 141.586L575.453 147.117L574.094 148.852L572.594 146.977ZM581.969 154.875H586.07V158.977H581.969V154.875ZM602.336 146.789L602.453 143.766L603.766 142.172L605.453 143.836L605.523 147L604.141 148.57L602.336 146.789ZM596.336 140.133L601.352 140.086L603.086 141.539L601.68 143.039L596.195 143.016L594.672 141.656L596.336 140.133ZM602.781 157.078L602.758 151.242L604.047 149.672L605.758 151.312L605.805 156.727L604.422 158.438L602.781 157.078ZM632.336 146.789L632.453 143.766L633.766 142.172L635.453 143.836L635.523 147L634.141 148.57L632.336 146.789ZM623.055 156.656L623.031 151.242L624.32 149.672L626.031 151.312L626.078 156.867L624.414 158.438L623.055 156.656ZM626.336 140.133L631.352 140.086L633.086 141.539L631.68 143.039L626.195 143.016L624.672 141.656L626.336 140.133ZM626.969 147.422H631.68L633.32 148.992L631.984 150.633L626.828 150.562L625.375 149.086L626.969 147.422ZM623.008 147.258L622.937 144.234L624.367 142.289L625.891 143.883L625.937 146.93L624.391 148.453L623.008 147.258ZM642.742 149.602L642.695 144.469L645.695 144.562L645.766 149.227L644.383 150.961L642.742 149.602ZM647.336 146.789L647.453 143.766L648.766 142.172L650.453 143.836L650.523 147L649.141 148.57L647.336 146.789ZM638.125 156.727L638.031 151.242L639.32 149.672L641.031 151.312L641.148 156.938L639.508 158.531L638.125 156.727ZM641.336 140.133L646.352 140.086L648.086 141.539L646.68 143.039L641.195 143.016L639.672 141.656L641.336 140.133ZM638.008 147.258L637.937 144.234L639.367 142.289L640.891 143.883L640.937 146.93L639.391 148.453L638.008 147.258ZM647.758 157.43V151.242L649.047 149.672L650.758 151.312L650.781 157.078L649.398 158.812L647.758 157.43ZM677.594 157.125V152.086L679.023 150.141L680.547 151.734L680.453 157.266L679.094 159L677.594 157.125ZM677.594 146.977V141.938L679.023 139.992L680.547 141.586L680.453 147.117L679.094 148.852L677.594 146.977ZM692.406 140.133L694.07 141.656L692.523 143.016L687.062 143.039L685.656 141.539L687.391 140.086L692.406 140.133ZM691.773 147.422L693.367 149.086L691.891 150.562L687.18 150.633L685.844 148.992L687.484 147.422H691.773ZM695.734 147.258L694.328 148.453L692.805 146.93L692.852 143.883L694.352 142.289L695.805 144.234L695.734 147.258ZM685.961 154.852L684.297 156.211L682.937 154.477L682.984 151.312L684.695 149.672L685.984 151.242L685.961 154.852ZM692.172 156.117L693.836 157.641L692.289 159H686.383L684.977 157.5L686.711 156.047L692.172 156.117ZM701.969 143.883H706.07V147.984H701.969V143.883ZM701.969 152.086H706.07V156.188H701.969V152.086ZM722.336 146.789L722.453 143.766L723.766 142.172L725.453 143.836L725.523 147L724.141 148.57L722.336 146.789ZM713.055 154.852L713.031 151.242L714.32 149.672L716.031 151.312L716.078 155.062L714.414 156.656L713.055 154.852ZM716.336 140.133L721.352 140.086L723.086 141.539L721.68 143.039L716.195 143.016L714.672 141.656L716.336 140.133ZM713.008 147.258L712.937 144.234L714.367 142.289L715.891 143.883L715.937 146.93L714.391 148.453L713.008 147.258ZM722.781 154.852L722.758 151.242L724.047 149.672L725.758 151.312L725.805 154.477L724.422 156.211L722.781 154.852ZM716.57 156.117L722.031 156.047L723.742 157.5L722.336 159H716.43L715.023 157.641L716.57 156.117ZM737.336 146.789L737.453 143.766L738.766 142.172L740.453 143.836L740.523 147L739.141 148.57L737.336 146.789ZM728.055 154.852L728.031 151.242L729.32 149.672L731.031 151.312L731.078 155.062L729.414 156.656L728.055 154.852ZM731.336 140.133L736.352 140.086L738.086 141.539L736.68 143.039L731.195 143.016L729.672 141.656L731.336 140.133ZM728.008 147.258L727.937 144.234L729.367 142.289L730.891 143.883L730.937 146.93L729.391 148.453L728.008 147.258ZM737.781 154.852L737.758 151.242L739.047 149.672L740.758 151.312L740.805 154.477L739.422 156.211L737.781 154.852ZM731.57 156.117L737.031 156.047L738.742 157.5L737.336 159H731.43L730.023 157.641L731.57 156.117Z" fill="white"/>
</g>
<g filter="url(#filter9_d_464_147)">
<path d="M581.594 261.125V256.086L583.023 254.141L584.547 255.734L584.453 261.266L583.094 263L581.594 261.125ZM581.594 250.977V245.938L583.023 243.992L584.547 245.586L584.453 251.117L583.094 252.852L581.594 250.977ZM596.594 261.125V256.086L598.023 254.141L599.547 255.734L599.453 261.266L598.094 263L596.594 261.125ZM596.594 250.977V245.938L598.023 243.992L599.547 245.586L599.453 251.117L598.094 252.852L596.594 250.977ZM605.969 258.875H610.07V262.977H605.969V258.875ZM626.594 261.125V256.086L628.023 254.141L629.547 255.734L629.453 261.266L628.094 263L626.594 261.125ZM626.594 250.977V245.938L628.023 243.992L629.547 245.586L629.453 251.117L628.094 252.852L626.594 250.977ZM641.336 250.789L641.477 245.891L642.789 244.297L644.477 245.961L644.523 251L643.141 252.57L641.336 250.789ZM635.969 251.422H640.68L642.32 252.992L640.984 254.633L635.828 254.562L634.375 253.086L635.969 251.422ZM632.008 251.258L631.961 246.359L633.391 244.414L634.914 246.008L634.937 250.93L633.391 252.453L632.008 251.258ZM641.758 261.242V255.242L643.047 253.672L644.758 255.312L644.781 260.891L643.398 262.625L641.758 261.242ZM671.336 250.789L671.453 247.766L672.766 246.172L674.453 247.836L674.523 251L673.141 252.57L671.336 250.789ZM662.055 260.656L662.031 255.242L663.32 253.672L665.031 255.312L665.078 260.867L663.414 262.438L662.055 260.656ZM665.336 244.133L670.352 244.086L672.086 245.539L670.68 247.039L665.195 247.016L663.672 245.656L665.336 244.133ZM665.969 251.422H670.68L672.32 252.992L670.984 254.633L665.828 254.562L664.375 253.086L665.969 251.422ZM662.008 251.258L661.937 248.234L663.367 246.289L664.891 247.883L664.937 250.93L663.391 252.453L662.008 251.258ZM681.742 253.602L681.695 248.469L684.695 248.562L684.766 253.227L683.383 254.961L681.742 253.602ZM686.336 250.789L686.453 247.766L687.766 246.172L689.453 247.836L689.523 251L688.141 252.57L686.336 250.789ZM677.125 260.727L677.031 255.242L678.32 253.672L680.031 255.312L680.148 260.938L678.508 262.531L677.125 260.727ZM680.336 244.133L685.352 244.086L687.086 245.539L685.68 247.039L680.195 247.016L678.672 245.656L680.336 244.133ZM677.008 251.258L676.937 248.234L678.367 246.289L679.891 247.883L679.937 250.93L678.391 252.453L677.008 251.258ZM686.758 261.43V255.242L688.047 253.672L689.758 255.312L689.781 261.078L688.398 262.812L686.758 261.43ZM716.594 261.125V256.086L718.023 254.141L719.547 255.734L719.453 261.266L718.094 263L716.594 261.125ZM716.594 250.977V245.938L718.023 243.992L719.547 245.586L719.453 251.117L718.094 252.852L716.594 250.977ZM731.406 244.133L733.07 245.656L731.523 247.016L726.062 247.039L724.656 245.539L726.391 244.086L731.406 244.133ZM730.773 251.422L732.367 253.086L730.891 254.562L726.18 254.633L724.844 252.992L726.484 251.422H730.773ZM734.734 251.258L733.328 252.453L731.805 250.93L731.852 247.883L733.352 246.289L734.805 248.234L734.734 251.258ZM724.961 258.852L723.297 260.211L721.937 258.477L721.984 255.312L723.695 253.672L724.984 255.242L724.961 258.852ZM731.172 260.117L732.836 261.641L731.289 263H725.383L723.977 261.5L725.711 260.047L731.172 260.117ZM740.969 247.883H745.07V251.984H740.969V247.883ZM740.969 256.086H745.07V260.188H740.969V256.086ZM761.336 250.789L761.453 247.766L762.766 246.172L764.453 247.836L764.523 251L763.141 252.57L761.336 250.789ZM752.055 258.852L752.031 255.242L753.32 253.672L755.031 255.312L755.078 259.062L753.414 260.656L752.055 258.852ZM755.336 244.133L760.352 244.086L762.086 245.539L760.68 247.039L755.195 247.016L753.672 245.656L755.336 244.133ZM752.008 251.258L751.937 248.234L753.367 246.289L754.891 247.883L754.937 250.93L753.391 252.453L752.008 251.258ZM761.781 258.852L761.758 255.242L763.047 253.672L764.758 255.312L764.805 258.477L763.422 260.211L761.781 258.852ZM755.57 260.117L761.031 260.047L762.742 261.5L761.336 263H755.43L754.023 261.641L755.57 260.117ZM776.336 250.789L776.453 247.766L777.766 246.172L779.453 247.836L779.523 251L778.141 252.57L776.336 250.789ZM767.055 258.852L767.031 255.242L768.32 253.672L770.031 255.312L770.078 259.062L768.414 260.656L767.055 258.852ZM770.336 244.133L775.352 244.086L777.086 245.539L775.68 247.039L770.195 247.016L768.672 245.656L770.336 244.133ZM767.008 251.258L766.937 248.234L768.367 246.289L769.891 247.883L769.937 250.93L768.391 252.453L767.008 251.258ZM776.781 258.852L776.758 255.242L778.047 253.672L779.758 255.312L779.805 258.477L778.422 260.211L776.781 258.852ZM770.57 260.117L776.031 260.047L777.742 261.5L776.336 263H770.43L769.023 261.641L770.57 260.117Z" fill="white"/>
</g>
<g filter="url(#filter10_d_464_147)">
<path d="M619.594 403.125V398.086L621.023 396.141L622.547 397.734L622.453 403.266L621.094 405L619.594 403.125ZM619.594 392.977V387.938L621.023 385.992L622.547 387.586L622.453 393.117L621.094 394.852L619.594 392.977ZM634.594 403.125V398.086L636.023 396.141L637.547 397.734L637.453 403.266L636.094 405L634.594 403.125ZM634.594 392.977V387.938L636.023 385.992L637.547 387.586L637.453 393.117L636.094 394.852L634.594 392.977ZM643.969 400.875H648.07V404.977H643.969V400.875ZM664.406 386.133L666.07 387.656L664.523 389.016L659.062 389.039L657.656 387.539L659.391 386.086L664.406 386.133ZM663.773 393.422L665.367 395.086L663.891 396.562L659.18 396.633L657.844 394.992L659.484 393.422H663.773ZM667.734 393.258L666.328 394.453L664.805 392.93L664.852 389.883L666.352 388.289L667.805 390.234L667.734 393.258ZM657.961 400.852L656.297 402.211L654.937 400.477L654.984 397.312L656.695 395.672L657.984 397.242L657.961 400.852ZM664.172 402.117L665.836 403.641L664.289 405H658.383L656.977 403.5L658.711 402.047L664.172 402.117ZM679.594 403.125V398.086L681.023 396.141L682.547 397.734L682.453 403.266L681.094 405L679.594 403.125ZM679.594 392.977V387.938L681.023 385.992L682.547 387.586L682.453 393.117L681.094 394.852L679.594 392.977ZM709.336 392.789L709.453 389.766L710.766 388.172L712.453 389.836L712.523 393L711.141 394.57L709.336 392.789ZM700.055 402.656L700.031 397.242L701.32 395.672L703.031 397.312L703.078 402.867L701.414 404.438L700.055 402.656ZM703.336 386.133L708.352 386.086L710.086 387.539L708.68 389.039L703.195 389.016L701.672 387.656L703.336 386.133ZM703.969 393.422H708.68L710.32 394.992L708.984 396.633L703.828 396.562L702.375 395.086L703.969 393.422ZM700.008 393.258L699.937 390.234L701.367 388.289L702.891 389.883L702.937 392.93L701.391 394.453L700.008 393.258ZM719.742 395.602L719.695 390.469L722.695 390.562L722.766 395.227L721.383 396.961L719.742 395.602ZM724.336 392.789L724.453 389.766L725.766 388.172L727.453 389.836L727.523 393L726.141 394.57L724.336 392.789ZM715.125 402.727L715.031 397.242L716.32 395.672L718.031 397.312L718.148 402.938L716.508 404.531L715.125 402.727ZM718.336 386.133L723.352 386.086L725.086 387.539L723.68 389.039L718.195 389.016L716.672 387.656L718.336 386.133ZM715.008 393.258L714.937 390.234L716.367 388.289L717.891 389.883L717.937 392.93L716.391 394.453L715.008 393.258ZM724.758 403.43V397.242L726.047 395.672L727.758 397.312L727.781 403.078L726.398 404.812L724.758 403.43ZM754.594 403.125V398.086L756.023 396.141L757.547 397.734L757.453 403.266L756.094 405L754.594 403.125ZM754.594 392.977V387.938L756.023 385.992L757.547 387.586L757.453 393.117L756.094 394.852L754.594 392.977ZM769.406 386.133L771.07 387.656L769.523 389.016L764.062 389.039L762.656 387.539L764.391 386.086L769.406 386.133ZM768.773 393.422L770.367 395.086L768.891 396.562L764.18 396.633L762.844 394.992L764.484 393.422H768.773ZM772.734 393.258L771.328 394.453L769.805 392.93L769.852 389.883L771.352 388.289L772.805 390.234L772.734 393.258ZM762.961 400.852L761.297 402.211L759.937 400.477L759.984 397.312L761.695 395.672L762.984 397.242L762.961 400.852ZM769.172 402.117L770.836 403.641L769.289 405H763.383L761.977 403.5L763.711 402.047L769.172 402.117ZM778.969 389.883H783.07V393.984H778.969V389.883ZM778.969 398.086H783.07V402.188H778.969V398.086ZM799.336 392.789L799.453 389.766L800.766 388.172L802.453 389.836L802.523 393L801.141 394.57L799.336 392.789ZM790.055 400.852L790.031 397.242L791.32 395.672L793.031 397.312L793.078 401.062L791.414 402.656L790.055 400.852ZM793.336 386.133L798.352 386.086L800.086 387.539L798.68 389.039L793.195 389.016L791.672 387.656L793.336 386.133ZM790.008 393.258L789.937 390.234L791.367 388.289L792.891 389.883L792.937 392.93L791.391 394.453L790.008 393.258ZM799.781 400.852L799.758 397.242L801.047 395.672L802.758 397.312L802.805 400.477L801.422 402.211L799.781 400.852ZM793.57 402.117L799.031 402.047L800.742 403.5L799.336 405H793.43L792.023 403.641L793.57 402.117ZM814.336 392.789L814.453 389.766L815.766 388.172L817.453 389.836L817.523 393L816.141 394.57L814.336 392.789ZM805.055 400.852L805.031 397.242L806.32 395.672L808.031 397.312L808.078 401.062L806.414 402.656L805.055 400.852ZM808.336 386.133L813.352 386.086L815.086 387.539L813.68 389.039L808.195 389.016L806.672 387.656L808.336 386.133ZM805.008 393.258L804.937 390.234L806.367 388.289L807.891 389.883L807.937 392.93L806.391 394.453L805.008 393.258ZM814.781 400.852L814.758 397.242L816.047 395.672L817.758 397.312L817.805 400.477L816.422 402.211L814.781 400.852ZM808.57 402.117L814.031 402.047L815.742 403.5L814.336 405H808.43L807.023 403.641L808.57 402.117Z" fill="white"/>
</g>
<g filter="url(#filter11_d_464_147)">
<path d="M653.594 545.125V540.086L655.023 538.141L656.547 539.734L656.453 545.266L655.094 547L653.594 545.125ZM653.594 534.977V529.938L655.023 527.992L656.547 529.586L656.453 535.117L655.094 536.852L653.594 534.977ZM668.594 545.125V540.086L670.023 538.141L671.547 539.734L671.453 545.266L670.094 547L668.594 545.125ZM668.594 534.977V529.938L670.023 527.992L671.547 529.586L671.453 535.117L670.094 536.852L668.594 534.977ZM677.969 542.875H682.07V546.977H677.969V542.875ZM698.406 528.133L700.07 529.656L698.523 531.016L693.062 531.039L691.656 529.539L693.391 528.086L698.406 528.133ZM697.773 535.422L699.367 537.086L697.891 538.562L693.18 538.633L691.844 536.992L693.484 535.422H697.773ZM701.734 535.258L700.328 536.453L698.805 534.93L698.852 531.883L700.352 530.289L701.805 532.234L701.734 535.258ZM691.961 542.852L690.297 544.211L688.937 542.477L688.984 539.312L690.695 537.672L691.984 539.242L691.961 542.852ZM698.172 544.117L699.836 545.641L698.289 547H692.383L690.977 545.5L692.711 544.047L698.172 544.117ZM713.336 534.789L713.453 531.766L714.766 530.172L716.453 531.836L716.523 535L715.141 536.57L713.336 534.789ZM704.055 542.852L704.031 539.242L705.32 537.672L707.031 539.312L707.078 543.062L705.414 544.656L704.055 542.852ZM707.336 528.133L712.352 528.086L714.086 529.539L712.68 531.039L707.195 531.016L705.672 529.656L707.336 528.133ZM707.969 535.422H712.68L714.32 536.992L712.984 538.633L707.828 538.562L706.375 537.086L707.969 535.422ZM704.008 535.258L703.937 532.234L705.367 530.289L706.891 531.883L706.937 534.93L705.391 536.453L704.008 535.258ZM713.781 542.852L713.758 539.242L715.047 537.672L716.758 539.312L716.805 542.477L715.422 544.211L713.781 542.852ZM707.57 544.117L713.031 544.047L714.742 545.5L713.336 547H707.43L706.023 545.641L707.57 544.117ZM743.336 534.789L743.453 531.766L744.766 530.172L746.453 531.836L746.523 535L745.141 536.57L743.336 534.789ZM734.055 544.656L734.031 539.242L735.32 537.672L737.031 539.312L737.078 544.867L735.414 546.438L734.055 544.656ZM737.336 528.133L742.352 528.086L744.086 529.539L742.68 531.039L737.195 531.016L735.672 529.656L737.336 528.133ZM737.969 535.422H742.68L744.32 536.992L742.984 538.633L737.828 538.562L736.375 537.086L737.969 535.422ZM734.008 535.258L733.937 532.234L735.367 530.289L736.891 531.883L736.937 534.93L735.391 536.453L734.008 535.258ZM753.742 537.602L753.695 532.469L756.695 532.562L756.766 537.227L755.383 538.961L753.742 537.602ZM758.336 534.789L758.453 531.766L759.766 530.172L761.453 531.836L761.523 535L760.141 536.57L758.336 534.789ZM749.125 544.727L749.031 539.242L750.32 537.672L752.031 539.312L752.148 544.938L750.508 546.531L749.125 544.727ZM752.336 528.133L757.352 528.086L759.086 529.539L757.68 531.039L752.195 531.016L750.672 529.656L752.336 528.133ZM749.008 535.258L748.937 532.234L750.367 530.289L751.891 531.883L751.937 534.93L750.391 536.453L749.008 535.258ZM758.758 545.43V539.242L760.047 537.672L761.758 539.312L761.781 545.078L760.398 546.812L758.758 545.43ZM788.594 545.125V540.086L790.023 538.141L791.547 539.734L791.453 545.266L790.094 547L788.594 545.125ZM788.594 534.977V529.938L790.023 527.992L791.547 529.586L791.453 535.117L790.094 536.852L788.594 534.977ZM803.406 528.133L805.07 529.656L803.523 531.016L798.062 531.039L796.656 529.539L798.391 528.086L803.406 528.133ZM802.773 535.422L804.367 537.086L802.891 538.562L798.18 538.633L796.844 536.992L798.484 535.422H802.773ZM806.734 535.258L805.328 536.453L803.805 534.93L803.852 531.883L805.352 530.289L806.805 532.234L806.734 535.258ZM796.961 542.852L795.297 544.211L793.937 542.477L793.984 539.312L795.695 537.672L796.984 539.242L796.961 542.852ZM803.172 544.117L804.836 545.641L803.289 547H797.383L795.977 545.5L797.711 544.047L803.172 544.117ZM812.969 531.883H817.07V535.984H812.969V531.883ZM812.969 540.086H817.07V544.188H812.969V540.086ZM833.336 534.789L833.453 531.766L834.766 530.172L836.453 531.836L836.523 535L835.141 536.57L833.336 534.789ZM824.055 542.852L824.031 539.242L825.32 537.672L827.031 539.312L827.078 543.062L825.414 544.656L824.055 542.852ZM827.336 528.133L832.352 528.086L834.086 529.539L832.68 531.039L827.195 531.016L825.672 529.656L827.336 528.133ZM824.008 535.258L823.937 532.234L825.367 530.289L826.891 531.883L826.937 534.93L825.391 536.453L824.008 535.258ZM833.781 542.852L833.758 539.242L835.047 537.672L836.758 539.312L836.805 542.477L835.422 544.211L833.781 542.852ZM827.57 544.117L833.031 544.047L834.742 545.5L833.336 547H827.43L826.023 545.641L827.57 544.117ZM848.336 534.789L848.453 531.766L849.766 530.172L851.453 531.836L851.523 535L850.141 536.57L848.336 534.789ZM839.055 542.852L839.031 539.242L840.32 537.672L842.031 539.312L842.078 543.062L840.414 544.656L839.055 542.852ZM842.336 528.133L847.352 528.086L849.086 529.539L847.68 531.039L842.195 531.016L840.672 529.656L842.336 528.133ZM839.008 535.258L838.937 532.234L840.367 530.289L841.891 531.883L841.937 534.93L840.391 536.453L839.008 535.258ZM848.781 542.852L848.758 539.242L850.047 537.672L851.758 539.312L851.805 542.477L850.422 544.211L848.781 542.852ZM842.57 544.117L848.031 544.047L849.742 545.5L848.336 547H842.43L841.023 545.641L842.57 544.117Z" fill="white"/>
</g>
<path d="M492.532 527.407C493.006 527.691 493.62 527.538 493.904 527.064L498.531 519.345C498.815 518.871 498.661 518.257 498.187 517.973C497.714 517.689 497.1 517.843 496.816 518.316L492.702 525.178L485.841 521.065C485.367 520.781 484.753 520.935 484.469 521.408C484.185 521.882 484.339 522.496 484.813 522.78L492.532 527.407ZM381.03 83.3758L382.491 89.2102L384.431 88.7243L382.97 82.8899L381.03 83.3758ZM385.413 100.879L388.336 112.548L390.276 112.062L387.353 100.393L385.413 100.879ZM391.258 124.217L394.18 135.886L396.12 135.4L393.198 123.731L391.258 124.217ZM397.102 147.555L400.025 159.223L401.965 158.738L399.042 147.069L397.102 147.555ZM402.947 170.892L405.869 182.561L407.809 182.075L404.887 170.406L402.947 170.892ZM408.791 194.23L411.714 205.899L413.654 205.413L410.732 193.744L408.791 194.23ZM414.636 217.568L417.558 229.237L419.498 228.751L416.576 217.082L414.636 217.568ZM420.481 240.905L423.403 252.574L425.343 252.088L422.421 240.42L420.481 240.905ZM426.325 264.243L429.247 275.912L431.187 275.426L428.265 263.757L426.325 264.243ZM432.17 287.581L435.092 299.25L437.032 298.764L434.11 287.095L432.17 287.581ZM438.014 310.919L440.936 322.588L442.876 322.102L439.954 310.433L438.014 310.919ZM443.859 334.256L446.781 345.925L448.721 345.439L445.799 333.771L443.859 334.256ZM449.703 357.594L452.625 369.263L454.565 368.777L451.643 357.108L449.703 357.594ZM455.548 380.932L458.47 392.601L460.41 392.115L457.488 380.446L455.548 380.932ZM461.392 404.27L464.314 415.938L466.255 415.453L463.332 403.784L461.392 404.27ZM467.237 427.607L470.159 439.276L472.099 438.79L469.177 427.121L467.237 427.607ZM473.081 450.945L476.004 462.614L477.944 462.128L475.021 450.459L473.081 450.945ZM478.926 474.283L481.848 485.952L483.788 485.466L480.866 473.797L478.926 474.283ZM484.77 497.62L487.693 509.289L489.633 508.803L486.71 497.135L484.77 497.62ZM490.615 520.958L492.076 526.793L494.016 526.307L492.555 520.472L490.615 520.958ZM492.018 528.265C492.965 528.833 494.194 528.525 494.761 527.578L504.016 512.139C504.584 511.192 504.276 509.964 503.329 509.396C502.382 508.828 501.153 509.135 500.585 510.083L492.359 523.806L478.636 515.58C477.688 515.012 476.46 515.319 475.892 516.267C475.324 517.214 475.632 518.443 476.579 519.01L492.018 528.265ZM380.06 83.6187L381.521 89.4531L385.401 88.4814L383.94 82.647L380.06 83.6187ZM384.443 101.122L387.366 112.791L391.246 111.819L388.323 100.15L384.443 101.122ZM390.288 124.46L393.21 136.129L397.09 135.157L394.168 123.488L390.288 124.46ZM396.132 147.797L399.055 159.466L402.935 158.495L400.013 146.826L396.132 147.797ZM401.977 171.135L404.899 182.804L408.779 181.832L405.857 170.163L401.977 171.135ZM407.821 194.473L410.744 206.142L414.624 205.17L411.702 193.501L407.821 194.473ZM413.666 217.811L416.588 229.48L420.468 228.508L417.546 216.839L413.666 217.811ZM419.51 241.148L422.433 252.817L426.313 251.846L423.391 240.177L419.51 241.148ZM425.355 264.486L428.277 276.155L432.157 275.183L429.235 263.514L425.355 264.486ZM431.2 287.824L434.122 299.493L438.002 298.521L435.08 286.852L431.2 287.824ZM437.044 311.162L439.966 322.83L443.846 321.859L440.924 310.19L437.044 311.162ZM442.889 334.499L445.811 346.168L449.691 345.196L446.769 333.528L442.889 334.499ZM448.733 357.837L451.655 369.506L455.536 368.534L452.613 356.865L448.733 357.837ZM454.578 381.175L457.5 392.844L461.38 391.872L458.458 380.203L454.578 381.175ZM460.422 404.512L463.344 416.181L467.225 415.21L464.302 403.541L460.422 404.512ZM466.267 427.85L469.189 439.519L473.069 438.547L470.147 426.878L466.267 427.85ZM472.111 451.188L475.033 462.857L478.914 461.885L475.991 450.216L472.111 451.188ZM477.956 474.526L480.878 486.194L484.758 485.223L481.836 473.554L477.956 474.526ZM483.8 497.863L486.723 509.532L490.603 508.56L487.68 496.892L483.8 497.863ZM489.645 521.201L491.106 527.036L494.986 526.064L493.525 520.229L489.645 521.201Z" fill="#02D7F2"/>
<path d="M438 169H522.5" stroke="white" stroke-width="2"/>
<path d="M462 273H546.5" stroke="white" stroke-width="2"/>
<path d="M500 415H584.5" stroke="white" stroke-width="2"/>
<path d="M534 557H618.5" stroke="white" stroke-width="2"/>
<circle cx="526" cy="169" r="9" fill="white" fill-opacity="0.2"/>
<circle cx="550" cy="273" r="9" fill="white" fill-opacity="0.2"/>
<circle cx="588" cy="415" r="9" fill="white" fill-opacity="0.2"/>
<circle cx="622" cy="557" r="9" fill="white" fill-opacity="0.2"/>
<circle cx="526" cy="169" r="12" fill="white" fill-opacity="0.2"/>
<circle cx="550" cy="273" r="12" fill="white" fill-opacity="0.2"/>
<circle cx="588" cy="415" r="12" fill="white" fill-opacity="0.2"/>
<circle cx="622" cy="557" r="12" fill="white" fill-opacity="0.2"/>
<circle cx="526" cy="169" r="6" fill="white"/>
<circle cx="550" cy="273" r="6" fill="white"/>
<circle cx="588" cy="415" r="6" fill="white"/>
<circle cx="622" cy="557" r="6" fill="white"/>
<defs>
<filter id="filter0_d_464_147" x="606.648" y="57.5601" width="125.152" height="61.7598" filterUnits="userSpaceOnUse" color-interpolation-filters="sRGB">
<feFlood flood-opacity="0" result="BackgroundImageFix"/>
<feColorMatrix in="SourceAlpha" type="matrix" values="0 0 0 0 0 0 0 0 0 0 0 0 0 0 0 0 0 0 127 0" result="hardAlpha"/>
<feOffset dy="4"/>
<feGaussianBlur stdDeviation="2"/>
<feComposite in2="hardAlpha" operator="out"/>
<feColorMatrix type="matrix" values="0 0 0 0 0 0 0 0 0 0 0 0 0 0 0 0 0 0 0.25 0"/>
<feBlend mode="normal" in2="BackgroundImageFix" result="effect1_dropShadow_464_147"/>
<feBlend mode="normal" in="SourceGraphic" in2="effect1_dropShadow_464_147" result="shape"/>
</filter>
<filter id="filter1_d_464_147" x="379.25" y="14.6562" width="204.812" height="33.3438" filterUnits="userSpaceOnUse" color-interpolation-filters="sRGB">
<feFlood flood-opacity="0" result="BackgroundImageFix"/>
<feColorMatrix in="SourceAlpha" type="matrix" values="0 0 0 0 0 0 0 0 0 0 0 0 0 0 0 0 0 0 127 0" result="hardAlpha"/>
<feOffset dy="4"/>
<feGaussianBlur stdDeviation="2"/>
<feComposite in2="hardAlpha" operator="out"/>
<feColorMatrix type="matrix" values="0 0 0 0 0 0 0 0 0 0 0 0 0 0 0 0 0 0 0.25 0"/>
<feBlend mode="normal" in2="BackgroundImageFix" result="effect1_dropShadow_464_147"/>
<feBlend mode="normal" in="SourceGraphic" in2="effect1_dropShadow_464_147" result="shape"/>
</filter>
<filter id="filter2_d_464_147" x="553.136" y="174.744" width="198.243" height="30.272" filterUnits="userSpaceOnUse" color-interpolation-filters="sRGB">
<feFlood flood-opacity="0" result="BackgroundImageFix"/>
<feColorMatrix in="SourceAlpha" type="matrix" values="0 0 0 0 0 0 0 0 0 0 0 0 0 0 0 0 0 0 127 0" result="hardAlpha"/>
<feOffset dy="4"/>
<feGaussianBlur stdDeviation="2"/>
<feComposite in2="hardAlpha" operator="out"/>
<feColorMatrix type="matrix" values="0 0 0 0 0 0 0 0 0 0 0 0 0 0 0 0 0 0 0.25 0"/>
<feBlend mode="normal" in2="BackgroundImageFix" result="effect1_dropShadow_464_147"/>
<feBlend mode="normal" in="SourceGraphic" in2="effect1_dropShadow_464_147" result="shape"/>
</filter>
<filter id="filter3_d_464_147" x="577.136" y="278.744" width="198.243" height="30.272" filterUnits="userSpaceOnUse" color-interpolation-filters="sRGB">
<feFlood flood-opacity="0" result="BackgroundImageFix"/>
<feColorMatrix in="SourceAlpha" type="matrix" values="0 0 0 0 0 0 0 0 0 0 0 0 0 0 0 0 0 0 127 0" result="hardAlpha"/>
<feOffset dy="4"/>
<feGaussianBlur stdDeviation="2"/>
<feComposite in2="hardAlpha" operator="out"/>
<feColorMatrix type="matrix" values="0 0 0 0 0 0 0 0 0 0 0 0 0 0 0 0 0 0 0.25 0"/>
<feBlend mode="normal" in2="BackgroundImageFix" result="effect1_dropShadow_464_147"/>
<feBlend mode="normal" in="SourceGraphic" in2="effect1_dropShadow_464_147" result="shape"/>
</filter>
<filter id="filter4_d_464_147" x="615.136" y="420.744" width="198.243" height="30.272" filterUnits="userSpaceOnUse" color-interpolation-filters="sRGB">
<feFlood flood-opacity="0" result="BackgroundImageFix"/>
<feColorMatrix in="SourceAlpha" type="matrix" values="0 0 0 0 0 0 0 0 0 0 0 0 0 0 0 0 0 0 127 0" result="hardAlpha"/>
<feOffset dy="4"/>
<feGaussianBlur stdDeviation="2"/>
<feComposite in2="hardAlpha" operator="out"/>
<feColorMatrix type="matrix" values="0 0 0 0 0 0 0 0 0 0 0 0 0 0 0 0 0 0 0.25 0"/>
<feBlend mode="normal" in2="BackgroundImageFix" result="effect1_dropShadow_464_147"/>
<feBlend mode="normal" in="SourceGraphic" in2="effect1_dropShadow_464_147" result="shape"/>
</filter>
<filter id="filter5_d_464_147" x="576.272" y="316.744" width="220.904" height="30.272" filterUnits="userSpaceOnUse" color-interpolation-filters="sRGB">
<feFlood flood-opacity="0" result="BackgroundImageFix"/>
<feColorMatrix in="SourceAlpha" type="matrix" values="0 0 0 0 0 0 0 0 0 0 0 0 0 0 0 0 0 0 127 0" result="hardAlpha"/>
<feOffset dy="4"/>
<feGaussianBlur stdDeviation="2"/>
<feComposite in2="hardAlpha" operator="out"/>
<feColorMatrix type="matrix" values="0 0 0 0 0 0 0 0 0 0 0 0 0 0 0 0 0 0 0.25 0"/>
<feBlend mode="normal" in2="BackgroundImageFix" result="effect1_dropShadow_464_147"/>
<feBlend mode="normal" in="SourceGraphic" in2="effect1_dropShadow_464_147" result="shape"/>
</filter>
<filter id="filter6_d_464_147" x="614.272" y="458.744" width="220.904" height="30.272" filterUnits="userSpaceOnUse" color-interpolation-filters="sRGB">
<feFlood flood-opacity="0" result="BackgroundImageFix"/>
<feColorMatrix in="SourceAlpha" type="matrix" values="0 0 0 0 0 0 0 0 0 0 0 0 0 0 0 0 0 0 127 0" result="hardAlpha"/>
<feOffset dy="4"/>
<feGaussianBlur stdDeviation="2"/>
<feComposite in2="hardAlpha" operator="out"/>
<feColorMatrix type="matrix" values="0 0 0 0 0 0 0 0 0 0 0 0 0 0 0 0 0 0 0.25 0"/>
<feBlend mode="normal" in2="BackgroundImageFix" result="effect1_dropShadow_464_147"/>
<feBlend mode="normal" in="SourceGraphic" in2="effect1_dropShadow_464_147" result="shape"/>
</filter>
<filter id="filter7_d_464_147" x="647.272" y="562.744" width="220.904" height="30.272" filterUnits="userSpaceOnUse" color-interpolation-filters="sRGB">
<feFlood flood-opacity="0" result="BackgroundImageFix"/>
<feColorMatrix in="SourceAlpha" type="matrix" values="0 0 0 0 0 0 0 0 0 0 0 0 0 0 0 0 0 0 127 0" result="hardAlpha"/>
<feOffset dy="4"/>
<feGaussianBlur stdDeviation="2"/>
<feComposite in2="hardAlpha" operator="out"/>
<feColorMatrix type="matrix" values="0 0 0 0 0 0 0 0 0 0 0 0 0 0 0 0 0 0 0.25 0"/>
<feBlend mode="normal" in2="BackgroundImageFix" result="effect1_dropShadow_464_147"/>
<feBlend mode="normal" in="SourceGraphic" in2="effect1_dropShadow_464_147" result="shape"/>
</filter>
<filter id="filter8_d_464_147" x="553.594" y="139.992" width="191.211" height="27.0078" filterUnits="userSpaceOnUse" color-interpolation-filters="sRGB">
<feFlood flood-opacity="0" result="BackgroundImageFix"/>
<feColorMatrix in="SourceAlpha" type="matrix" values="0 0 0 0 0 0 0 0 0 0 0 0 0 0 0 0 0 0 127 0" result="hardAlpha"/>
<feOffset dy="4"/>
<feGaussianBlur stdDeviation="2"/>
<feComposite in2="hardAlpha" operator="out"/>
<feColorMatrix type="matrix" values="0 0 0 0 0 0 0 0 0 0 0 0 0 0 0 0 0 0 0.25 0"/>
<feBlend mode="normal" in2="BackgroundImageFix" result="effect1_dropShadow_464_147"/>
<feBlend mode="normal" in="SourceGraphic" in2="effect1_dropShadow_464_147" result="shape"/>
</filter>
<filter id="filter9_d_464_147" x="577.594" y="243.992" width="206.211" height="27.0078" filterUnits="userSpaceOnUse" color-interpolation-filters="sRGB">
<feFlood flood-opacity="0" result="BackgroundImageFix"/>
<feColorMatrix in="SourceAlpha" type="matrix" values="0 0 0 0 0 0 0 0 0 0 0 0 0 0 0 0 0 0 127 0" result="hardAlpha"/>
<feOffset dy="4"/>
<feGaussianBlur stdDeviation="2"/>
<feComposite in2="hardAlpha" operator="out"/>
<feColorMatrix type="matrix" values="0 0 0 0 0 0 0 0 0 0 0 0 0 0 0 0 0 0 0.25 0"/>
<feBlend mode="normal" in2="BackgroundImageFix" result="effect1_dropShadow_464_147"/>
<feBlend mode="normal" in="SourceGraphic" in2="effect1_dropShadow_464_147" result="shape"/>
</filter>
<filter id="filter10_d_464_147" x="615.594" y="385.992" width="206.211" height="27.0078" filterUnits="userSpaceOnUse" color-interpolation-filters="sRGB">
<feFlood flood-opacity="0" result="BackgroundImageFix"/>
<feColorMatrix in="SourceAlpha" type="matrix" values="0 0 0 0 0 0 0 0 0 0 0 0 0 0 0 0 0 0 127 0" result="hardAlpha"/>
<feOffset dy="4"/>
<feGaussianBlur stdDeviation="2"/>
<feComposite in2="hardAlpha" operator="out"/>
<feColorMatrix type="matrix" values="0 0 0 0 0 0 0 0 0 0 0 0 0 0 0 0 0 0 0.25 0"/>
<feBlend mode="normal" in2="BackgroundImageFix" result="effect1_dropShadow_464_147"/>
<feBlend mode="normal" in="SourceGraphic" in2="effect1_dropShadow_464_147" result="shape"/>
</filter>
<filter id="filter11_d_464_147" x="649.594" y="527.992" width="206.211" height="27.0078" filterUnits="userSpaceOnUse" color-interpolation-filters="sRGB">
<feFlood flood-opacity="0" result="BackgroundImageFix"/>
<feColorMatrix in="SourceAlpha" type="matrix" values="0 0 0 0 0 0 0 0 0 0 0 0 0 0 0 0 0 0 127 0" result="hardAlpha"/>
<feOffset dy="4"/>
<feGaussianBlur stdDeviation="2"/>
<feComposite in2="hardAlpha" operator="out"/>
<feColorMatrix type="matrix" values="0 0 0 0 0 0 0 0 0 0 0 0 0 0 0 0 0 0 0.25 0"/>
<feBlend mode="normal" in2="BackgroundImageFix" result="effect1_dropShadow_464_147"/>
<feBlend mode="normal" in="SourceGraphic" in2="effect1_dropShadow_464_147" result="shape"/>
</filter>
</defs>
</svg>
