<svg width="822" height="477" viewBox="0 0 822 477" fill="none" xmlns="http://www.w3.org/2000/svg">
<path d="M430 138L494.25 396.75L499 414.5" stroke="white" stroke-width="2"/>
<path fill-rule="evenodd" clip-rule="evenodd" d="M338.596 60.0671L115.223 0.101299L114.846 0L114.5 0.181347L0 60.1813L0.464142 61.0671L0.204866 62.0329L223.705 122.033L224.082 122.134L224.428 121.953L338.71 62.0671H590V60.0671H338.596ZM335.733 61.3693L115.082 2.13421L3.19532 60.7649L223.846 120L335.733 61.3693Z" fill="white"/>
<path fill-rule="evenodd" clip-rule="evenodd" d="M426.596 414.067L203.223 354.101L202.846 354L202.5 354.181L88 414.181L88.4641 415.067L88.2049 416.033L311.705 476.033L312.082 476.134L312.428 475.953L426.71 416.067H588V414.067H426.596ZM423.733 415.369L203.082 356.134L91.1953 414.765L311.846 474L423.733 415.369Z" fill="white"/>
<path d="M408 60L428.5 80.5L476.5 80.5L486.75 70.25L540.625 70.25L545.5 77L588.5 77L594.5 70.25L594.5 60L408 60Z" fill="white"/>
<g filter="url(#filter0_d_476_151)">
<path d="M626.272 80.632H640.72L645.816 60.136H623.416L610.648 111.32H618.6L626.272 80.632ZM660.936 102.64L671.52 60.136H648.728L643.576 80.8H658.36L653.152 101.632C652.984 102.416 652.088 103.2 650.856 103.2C650.408 103.2 647.72 103.2 645.928 102.752C646.88 104.768 646.824 108.464 646.936 110.592C651.08 111.096 653.992 111.152 656.848 110.088C659.144 108.52 659.928 106.504 660.936 102.64ZM629.968 65.792H636.8L636.296 67.696H629.464L629.968 65.792ZM655.056 65.792H662.112L661.608 67.696H654.552L655.056 65.792ZM634.504 74.92H627.672L628.176 72.848H635.008L634.504 74.92ZM659.76 75.088H652.704L653.264 72.848H660.32L659.76 75.088ZM646.32 99.224H651.752L653.376 92.672H647.944L648.728 89.48H653.376L654.944 83.152H628.176L626.608 89.48H631.032L630.248 92.672H625.096L623.472 99.224L628.288 98.776C627.056 101.408 624.424 104.768 621.344 106.336C622.968 107.624 624.816 109.696 625.824 111.32C630.696 108.632 633.664 103.536 635.232 99.672L639.208 99.224L636.408 110.312H643.52L646.32 99.224ZM640.832 92.672H637.136L637.92 89.48H641.616L640.832 92.672ZM709.208 103.872L712.568 91.776C714.08 92.672 715.704 93.456 717.384 94.52C718.504 92.84 721.64 89.816 723.264 88.584C719.96 87.52 716.936 86.512 714.472 85.112L722.144 84.888L723.488 79.456H710.272L710.552 78.392H717.384L718.336 74.528H711.504L711.784 73.296H718.896L719.512 70.888H725.336L727.8 61.032L708.312 61.48C708.144 60.192 707.808 58.68 707.416 57.56L699.24 58.848C699.352 59.408 699.464 59.968 699.52 60.584L678.52 61.032L676.056 70.888H682.16L681.544 73.296H688.376L688.096 74.528H681.768L680.816 78.392H687.144L686.864 79.456H673.816L672.472 84.888L681.488 84.664C677.624 86.568 673.032 88.248 669 88.92C670.568 90.432 671.968 93.008 672.92 94.8C674.712 94.576 676.784 93.96 678.968 93.008L675.888 103.872L678.968 103.76C675.16 104.768 670.512 105.664 666.872 105.832C668.384 107.232 669.896 109.472 671.016 110.872C677.344 110.48 685.52 108.632 690.784 106.28L687.76 103.872H696.832L693.752 106.112C699.576 107.736 705.232 109.752 708.48 111.152L715.648 107.064C713.072 106.224 709.432 105.104 705.624 103.984L709.208 103.872ZM689.44 69.096H683.896L684.4 67.024H718.56L718.056 69.096H712.848L713.24 67.584H705.68L705.288 69.096H696.888L697.28 67.584H689.832L689.44 69.096ZM695.544 74.528L695.824 73.296H704.224L703.944 74.528H695.544ZM694.312 79.456L694.592 78.392H702.992L702.712 79.456H694.312ZM691.456 85.224L704.784 84.552C705.008 84.888 705.288 85.336 705.568 85.672L690.168 86.288C690.616 85.952 691.064 85.56 691.456 85.224ZM704.672 90.768H686.584L686.864 89.704H704.952L704.672 90.768ZM703.552 95.416H685.464L685.688 94.352H703.776L703.552 95.416ZM684.568 98.944H702.656L702.376 100.12H684.288L684.568 98.944Z" fill="#02D7F2"/>
</g>
<g filter="url(#filter1_d_476_151)">
<path d="M569.472 191.192H577.488V193.112H569.472V191.192ZM569.472 188H577.488V189.92H569.472V188ZM567.816 186.632V194.504H579.216V186.632H567.816ZM566.712 196.232V197.744H580.536V196.232H566.712ZM572.616 196.976V206.096L574.296 206.792V196.976H572.616ZM569.4 201.392L568.296 201.8C569.76 206.696 572.52 207.56 576.528 207.56H580.752C580.8 207.104 581.04 206.336 581.28 205.952C580.44 205.976 577.2 205.976 576.6 205.976C573.264 205.976 570.624 205.376 569.4 201.392ZM573.768 200.552V202.04H579.336V200.552H573.768ZM568.296 198.872C567.912 202.424 566.832 205.136 564.696 206.84C565.056 207.104 565.752 207.632 566.04 207.92C568.2 206 569.448 203.024 569.928 199.064L568.296 198.872ZM558.672 198.608L559.128 200.36C561.168 199.712 563.784 198.848 566.28 198.032L566.016 196.376C563.328 197.24 560.544 198.104 558.672 198.608ZM558.936 190.688V192.368H566.256V190.688H558.936ZM561.912 185.864V205.664C561.912 206.024 561.816 206.12 561.504 206.12C561.216 206.12 560.304 206.12 559.248 206.096C559.488 206.6 559.704 207.344 559.776 207.776C561.288 207.776 562.224 207.728 562.776 207.44C563.376 207.152 563.592 206.672 563.592 205.688V185.864H561.912ZM597.456 195.608C595.248 201.68 590.208 204.8 582.936 206.312C583.32 206.744 583.896 207.56 584.088 208.016C591.456 206.168 596.736 202.832 599.376 196.136L597.456 195.608ZM589.632 191.48C588.168 193.52 585.624 195.512 583.272 196.76C583.728 197.096 584.424 197.816 584.736 198.2C587.064 196.736 589.752 194.48 591.456 192.176L589.632 191.48ZM590.592 195.728L588.888 196.256C591.456 202.64 596.28 206.48 603.936 207.944C604.2 207.44 604.728 206.624 605.136 206.216C597.696 204.992 592.824 201.416 590.592 195.728ZM583.464 188.984V190.736H604.536V188.984H583.464ZM593.016 185.816V190.112H594.864V185.816H593.016ZM596.808 192.488C599.112 194.048 601.896 196.376 603.192 197.96L604.752 196.712C603.384 195.128 600.552 192.896 598.296 191.384L596.808 192.488ZM611.16 196.376V197.912H626.64V192.44H609.072V193.952H624.864V196.376H611.16ZM610.248 196.376C609.888 198.272 609.264 200.696 608.76 202.232L610.536 202.496C611.016 200.912 611.616 198.416 612.048 196.376H610.248ZM610.512 200.12L610.032 201.68H626.688V200.12H610.512ZM626.232 200.12V200.36C625.968 203.48 625.68 204.728 625.248 205.112C625.056 205.304 624.816 205.328 624.408 205.328C623.976 205.328 622.824 205.328 621.672 205.184C621.936 205.664 622.128 206.336 622.176 206.864C623.4 206.912 624.576 206.912 625.2 206.864C625.872 206.84 626.304 206.696 626.736 206.288C627.336 205.688 627.672 204.2 627.984 200.864C628.032 200.6 628.056 200.12 628.056 200.12H626.232ZM617.088 192.824V207.92H618.864V192.824H617.088ZM616.608 200.6C614.592 202.952 610.56 205.112 607.032 206.096C607.416 206.456 607.92 207.104 608.184 207.536C611.736 206.384 615.792 203.96 618.024 201.248L616.608 200.6ZM609.912 187.928V189.392H617.664V187.928H609.912ZM619.176 187.928V189.392H628.872V187.928H619.176ZM610.416 185.744C609.624 187.88 608.28 189.992 606.768 191.408C607.2 191.624 607.944 192.128 608.256 192.368C609.72 190.88 611.184 188.528 612.096 186.176L610.416 185.744ZM619.872 185.744C619.08 187.904 617.616 189.92 615.912 191.216C616.368 191.456 617.088 191.96 617.424 192.272C619.056 190.808 620.664 188.576 621.576 186.176L619.872 185.744ZM611.256 189.056C611.808 190.064 612.336 191.384 612.528 192.224L614.112 191.6C613.896 190.784 613.296 189.464 612.768 188.504L611.256 189.056ZM621.288 189.032C622.128 190.04 622.992 191.384 623.328 192.296L624.888 191.648C624.504 190.76 623.616 189.44 622.8 188.48L621.288 189.032ZM631.056 195.656V197.624H653.016V195.656H631.056ZM659.736 195.32H655.08V197H658.032V203.816H659.736V195.32ZM659.736 203.096H658.2C657.096 204.152 655.824 205.232 654.792 206.024L655.728 207.728C656.88 206.648 657.96 205.616 658.992 204.584C660.504 206.48 662.688 207.344 665.88 207.464C668.616 207.56 673.848 207.512 676.584 207.392C676.656 206.888 676.944 206.072 677.16 205.688C674.208 205.88 668.568 205.952 665.856 205.832C663 205.712 660.864 204.896 659.736 203.096ZM655.2 187.304C656.592 188.504 658.152 190.232 658.776 191.432L660.288 190.424C659.616 189.2 658.008 187.544 656.592 186.416L655.2 187.304ZM663.408 186.776V188.288H674.664V186.776H663.408ZM665.208 190.472V191.792H672.72V190.472H665.208ZM664.992 193.736V195.056H672.936V193.736H664.992ZM668.064 188.768V194.48H669.6V188.768H668.064ZM662.448 186.776V193.016C662.448 196.088 662.256 200.312 660.384 203.336C660.768 203.504 661.488 203.96 661.8 204.272C663.792 201.056 664.104 196.352 664.104 193.016V186.776H662.448ZM673.872 186.776V202.544C673.872 202.88 673.752 202.976 673.416 203C673.104 203 672 203 670.8 202.976C671.016 203.408 671.256 204.08 671.304 204.536C673.032 204.536 674.064 204.512 674.688 204.248C675.312 203.96 675.528 203.504 675.528 202.568V186.776H673.872ZM666.336 196.4V197.696H670.656V200.384H666.336V201.68H672.096V196.4H666.336ZM665.64 196.4V202.904H667.08V196.4H665.64ZM689.688 189.872L688.848 191.6H701.064V189.872H689.688ZM692.688 195.08V196.736H700.512V195.08H692.688ZM692.664 200.36V202.064H700.848V200.36H692.664ZM691.776 190.424V207.92H693.624V190.424H691.776ZM690.6 186.128C689.424 189.656 687.48 193.16 685.296 195.392C685.704 195.68 686.424 196.328 686.688 196.64C688.896 194.168 690.984 190.4 692.352 186.584L690.6 186.128ZM684.84 185.936C683.472 189.584 681.24 193.184 678.84 195.512C679.176 195.944 679.728 196.904 679.896 197.336C682.512 194.648 684.984 190.544 686.568 186.488L684.84 185.936ZM682.272 192.128V207.896H684.096V190.352L684.048 190.328L682.272 192.128ZM709.224 188.6H718.824V193.16H709.224V188.6ZM707.472 186.872V194.888H720.648V186.872H707.472ZM703.992 197.432V207.92H705.696V199.16H710.736V207.728H712.536V197.432H703.992ZM715.152 197.432V207.92H716.88V199.16H722.376V207.776H724.176V197.432H715.152ZM704.76 204.896V206.624H711.456V204.896H704.76ZM716.04 204.896V206.624H723.168V204.896H716.04Z" fill="white"/>
</g>
<g filter="url(#filter2_d_476_151)">
<path d="M599.472 312.192H607.488V314.112H599.472V312.192ZM599.472 309H607.488V310.92H599.472V309ZM597.816 307.632V315.504H609.216V307.632H597.816ZM596.712 317.232V318.744H610.536V317.232H596.712ZM602.616 317.976V327.096L604.296 327.792V317.976H602.616ZM599.4 322.392L598.296 322.8C599.76 327.696 602.52 328.56 606.528 328.56H610.752C610.8 328.104 611.04 327.336 611.28 326.952C610.44 326.976 607.2 326.976 606.6 326.976C603.264 326.976 600.624 326.376 599.4 322.392ZM603.768 321.552V323.04H609.336V321.552H603.768ZM598.296 319.872C597.912 323.424 596.832 326.136 594.696 327.84C595.056 328.104 595.752 328.632 596.04 328.92C598.2 327 599.448 324.024 599.928 320.064L598.296 319.872ZM588.672 319.608L589.128 321.36C591.168 320.712 593.784 319.848 596.28 319.032L596.016 317.376C593.328 318.24 590.544 319.104 588.672 319.608ZM588.936 311.688V313.368H596.256V311.688H588.936ZM591.912 306.864V326.664C591.912 327.024 591.816 327.12 591.504 327.12C591.216 327.12 590.304 327.12 589.248 327.096C589.488 327.6 589.704 328.344 589.776 328.776C591.288 328.776 592.224 328.728 592.776 328.44C593.376 328.152 593.592 327.672 593.592 326.688V306.864H591.912ZM627.456 316.608C625.248 322.68 620.208 325.8 612.936 327.312C613.32 327.744 613.896 328.56 614.088 329.016C621.456 327.168 626.736 323.832 629.376 317.136L627.456 316.608ZM619.632 312.48C618.168 314.52 615.624 316.512 613.272 317.76C613.728 318.096 614.424 318.816 614.736 319.2C617.064 317.736 619.752 315.48 621.456 313.176L619.632 312.48ZM620.592 316.728L618.888 317.256C621.456 323.64 626.28 327.48 633.936 328.944C634.2 328.44 634.728 327.624 635.136 327.216C627.696 325.992 622.824 322.416 620.592 316.728ZM613.464 309.984V311.736H634.536V309.984H613.464ZM623.016 306.816V311.112H624.864V306.816H623.016ZM626.808 313.488C629.112 315.048 631.896 317.376 633.192 318.96L634.752 317.712C633.384 316.128 630.552 313.896 628.296 312.384L626.808 313.488ZM641.16 317.376V318.912H656.64V313.44H639.072V314.952H654.864V317.376H641.16ZM640.248 317.376C639.888 319.272 639.264 321.696 638.76 323.232L640.536 323.496C641.016 321.912 641.616 319.416 642.048 317.376H640.248ZM640.512 321.12L640.032 322.68H656.688V321.12H640.512ZM656.232 321.12V321.36C655.968 324.48 655.68 325.728 655.248 326.112C655.056 326.304 654.816 326.328 654.408 326.328C653.976 326.328 652.824 326.328 651.672 326.184C651.936 326.664 652.128 327.336 652.176 327.864C653.4 327.912 654.576 327.912 655.2 327.864C655.872 327.84 656.304 327.696 656.736 327.288C657.336 326.688 657.672 325.2 657.984 321.864C658.032 321.6 658.056 321.12 658.056 321.12H656.232ZM647.088 313.824V328.92H648.864V313.824H647.088ZM646.608 321.6C644.592 323.952 640.56 326.112 637.032 327.096C637.416 327.456 637.92 328.104 638.184 328.536C641.736 327.384 645.792 324.96 648.024 322.248L646.608 321.6ZM639.912 308.928V310.392H647.664V308.928H639.912ZM649.176 308.928V310.392H658.872V308.928H649.176ZM640.416 306.744C639.624 308.88 638.28 310.992 636.768 312.408C637.2 312.624 637.944 313.128 638.256 313.368C639.72 311.88 641.184 309.528 642.096 307.176L640.416 306.744ZM649.872 306.744C649.08 308.904 647.616 310.92 645.912 312.216C646.368 312.456 647.088 312.96 647.424 313.272C649.056 311.808 650.664 309.576 651.576 307.176L649.872 306.744ZM641.256 310.056C641.808 311.064 642.336 312.384 642.528 313.224L644.112 312.6C643.896 311.784 643.296 310.464 642.768 309.504L641.256 310.056ZM651.288 310.032C652.128 311.04 652.992 312.384 653.328 313.296L654.888 312.648C654.504 311.76 653.616 310.44 652.8 309.48L651.288 310.032ZM663.384 310.296V312.216H680.616V310.296H663.384ZM661.344 324.528V326.544H682.656V324.528H661.344ZM689.736 316.32H685.08V318H688.032V324.816H689.736V316.32ZM689.736 324.096H688.2C687.096 325.152 685.824 326.232 684.792 327.024L685.728 328.728C686.88 327.648 687.96 326.616 688.992 325.584C690.504 327.48 692.688 328.344 695.88 328.464C698.616 328.56 703.848 328.512 706.584 328.392C706.656 327.888 706.944 327.072 707.16 326.688C704.208 326.88 698.568 326.952 695.856 326.832C693 326.712 690.864 325.896 689.736 324.096ZM685.2 308.304C686.592 309.504 688.152 311.232 688.776 312.432L690.288 311.424C689.616 310.2 688.008 308.544 686.592 307.416L685.2 308.304ZM693.408 307.776V309.288H704.664V307.776H693.408ZM695.208 311.472V312.792H702.72V311.472H695.208ZM694.992 314.736V316.056H702.936V314.736H694.992ZM698.064 309.768V315.48H699.6V309.768H698.064ZM692.448 307.776V314.016C692.448 317.088 692.256 321.312 690.384 324.336C690.768 324.504 691.488 324.96 691.8 325.272C693.792 322.056 694.104 317.352 694.104 314.016V307.776H692.448ZM703.872 307.776V323.544C703.872 323.88 703.752 323.976 703.416 324C703.104 324 702 324 700.8 323.976C701.016 324.408 701.256 325.08 701.304 325.536C703.032 325.536 704.064 325.512 704.688 325.248C705.312 324.96 705.528 324.504 705.528 323.568V307.776H703.872ZM696.336 317.4V318.696H700.656V321.384H696.336V322.68H702.096V317.4H696.336ZM695.64 317.4V323.904H697.08V317.4H695.64ZM719.688 310.872L718.848 312.6H731.064V310.872H719.688ZM722.688 316.08V317.736H730.512V316.08H722.688ZM722.664 321.36V323.064H730.848V321.36H722.664ZM721.776 311.424V328.92H723.624V311.424H721.776ZM720.6 307.128C719.424 310.656 717.48 314.16 715.296 316.392C715.704 316.68 716.424 317.328 716.688 317.64C718.896 315.168 720.984 311.4 722.352 307.584L720.6 307.128ZM714.84 306.936C713.472 310.584 711.24 314.184 708.84 316.512C709.176 316.944 709.728 317.904 709.896 318.336C712.512 315.648 714.984 311.544 716.568 307.488L714.84 306.936ZM712.272 313.128V328.896H714.096V311.352L714.048 311.328L712.272 313.128ZM739.224 309.6H748.824V314.16H739.224V309.6ZM737.472 307.872V315.888H750.648V307.872H737.472ZM733.992 318.432V328.92H735.696V320.16H740.736V328.728H742.536V318.432H733.992ZM745.152 318.432V328.92H746.88V320.16H752.376V328.776H754.176V318.432H745.152ZM734.76 325.896V327.624H741.456V325.896H734.76ZM746.04 325.896V327.624H753.168V325.896H746.04Z" fill="white"/>
</g>
<g filter="url(#filter3_d_476_151)">
<path d="M628.472 426.192H636.488V428.112H628.472V426.192ZM628.472 423H636.488V424.92H628.472V423ZM626.816 421.632V429.504H638.216V421.632H626.816ZM625.712 431.232V432.744H639.536V431.232H625.712ZM631.616 431.976V441.096L633.296 441.792V431.976H631.616ZM628.4 436.392L627.296 436.8C628.76 441.696 631.52 442.56 635.528 442.56H639.752C639.8 442.104 640.04 441.336 640.28 440.952C639.44 440.976 636.2 440.976 635.6 440.976C632.264 440.976 629.624 440.376 628.4 436.392ZM632.768 435.552V437.04H638.336V435.552H632.768ZM627.296 433.872C626.912 437.424 625.832 440.136 623.696 441.84C624.056 442.104 624.752 442.632 625.04 442.92C627.2 441 628.448 438.024 628.928 434.064L627.296 433.872ZM617.672 433.608L618.128 435.36C620.168 434.712 622.784 433.848 625.28 433.032L625.016 431.376C622.328 432.24 619.544 433.104 617.672 433.608ZM617.936 425.688V427.368H625.256V425.688H617.936ZM620.912 420.864V440.664C620.912 441.024 620.816 441.12 620.504 441.12C620.216 441.12 619.304 441.12 618.248 441.096C618.488 441.6 618.704 442.344 618.776 442.776C620.288 442.776 621.224 442.728 621.776 442.44C622.376 442.152 622.592 441.672 622.592 440.688V420.864H620.912ZM656.456 430.608C654.248 436.68 649.208 439.8 641.936 441.312C642.32 441.744 642.896 442.56 643.088 443.016C650.456 441.168 655.736 437.832 658.376 431.136L656.456 430.608ZM648.632 426.48C647.168 428.52 644.624 430.512 642.272 431.76C642.728 432.096 643.424 432.816 643.736 433.2C646.064 431.736 648.752 429.48 650.456 427.176L648.632 426.48ZM649.592 430.728L647.888 431.256C650.456 437.64 655.28 441.48 662.936 442.944C663.2 442.44 663.728 441.624 664.136 441.216C656.696 439.992 651.824 436.416 649.592 430.728ZM642.464 423.984V425.736H663.536V423.984H642.464ZM652.016 420.816V425.112H653.864V420.816H652.016ZM655.808 427.488C658.112 429.048 660.896 431.376 662.192 432.96L663.752 431.712C662.384 430.128 659.552 427.896 657.296 426.384L655.808 427.488ZM670.16 431.376V432.912H685.64V427.44H668.072V428.952H683.864V431.376H670.16ZM669.248 431.376C668.888 433.272 668.264 435.696 667.76 437.232L669.536 437.496C670.016 435.912 670.616 433.416 671.048 431.376H669.248ZM669.512 435.12L669.032 436.68H685.688V435.12H669.512ZM685.232 435.12V435.36C684.968 438.48 684.68 439.728 684.248 440.112C684.056 440.304 683.816 440.328 683.408 440.328C682.976 440.328 681.824 440.328 680.672 440.184C680.936 440.664 681.128 441.336 681.176 441.864C682.4 441.912 683.576 441.912 684.2 441.864C684.872 441.84 685.304 441.696 685.736 441.288C686.336 440.688 686.672 439.2 686.984 435.864C687.032 435.6 687.056 435.12 687.056 435.12H685.232ZM676.088 427.824V442.92H677.864V427.824H676.088ZM675.608 435.6C673.592 437.952 669.56 440.112 666.032 441.096C666.416 441.456 666.92 442.104 667.184 442.536C670.736 441.384 674.792 438.96 677.024 436.248L675.608 435.6ZM668.912 422.928V424.392H676.664V422.928H668.912ZM678.176 422.928V424.392H687.872V422.928H678.176ZM669.416 420.744C668.624 422.88 667.28 424.992 665.768 426.408C666.2 426.624 666.944 427.128 667.256 427.368C668.72 425.88 670.184 423.528 671.096 421.176L669.416 420.744ZM678.872 420.744C678.08 422.904 676.616 424.92 674.912 426.216C675.368 426.456 676.088 426.96 676.424 427.272C678.056 425.808 679.664 423.576 680.576 421.176L678.872 420.744ZM670.256 424.056C670.808 425.064 671.336 426.384 671.528 427.224L673.112 426.6C672.896 425.784 672.296 424.464 671.768 423.504L670.256 424.056ZM680.288 424.032C681.128 425.04 681.992 426.384 682.328 427.296L683.888 426.648C683.504 425.76 682.616 424.44 681.8 423.48L680.288 424.032ZM691.952 423.192V424.992H710.096V423.192H691.952ZM693.488 431.04V432.84H708.2V431.04H693.488ZM690.56 439.368V441.192H711.392V439.368H690.56ZM718.736 430.32H714.08V432H717.032V438.816H718.736V430.32ZM718.736 438.096H717.2C716.096 439.152 714.824 440.232 713.792 441.024L714.728 442.728C715.88 441.648 716.96 440.616 717.992 439.584C719.504 441.48 721.688 442.344 724.88 442.464C727.616 442.56 732.848 442.512 735.584 442.392C735.656 441.888 735.944 441.072 736.16 440.688C733.208 440.88 727.568 440.952 724.856 440.832C722 440.712 719.864 439.896 718.736 438.096ZM714.2 422.304C715.592 423.504 717.152 425.232 717.776 426.432L719.288 425.424C718.616 424.2 717.008 422.544 715.592 421.416L714.2 422.304ZM722.408 421.776V423.288H733.664V421.776H722.408ZM724.208 425.472V426.792H731.72V425.472H724.208ZM723.992 428.736V430.056H731.936V428.736H723.992ZM727.064 423.768V429.48H728.6V423.768H727.064ZM721.448 421.776V428.016C721.448 431.088 721.256 435.312 719.384 438.336C719.768 438.504 720.488 438.96 720.8 439.272C722.792 436.056 723.104 431.352 723.104 428.016V421.776H721.448ZM732.872 421.776V437.544C732.872 437.88 732.752 437.976 732.416 438C732.104 438 731 438 729.8 437.976C730.016 438.408 730.256 439.08 730.304 439.536C732.032 439.536 733.064 439.512 733.688 439.248C734.312 438.96 734.528 438.504 734.528 437.568V421.776H732.872ZM725.336 431.4V432.696H729.656V435.384H725.336V436.68H731.096V431.4H725.336ZM724.64 431.4V437.904H726.08V431.4H724.64ZM748.688 424.872L747.848 426.6H760.064V424.872H748.688ZM751.688 430.08V431.736H759.512V430.08H751.688ZM751.664 435.36V437.064H759.848V435.36H751.664ZM750.776 425.424V442.92H752.624V425.424H750.776ZM749.6 421.128C748.424 424.656 746.48 428.16 744.296 430.392C744.704 430.68 745.424 431.328 745.688 431.64C747.896 429.168 749.984 425.4 751.352 421.584L749.6 421.128ZM743.84 420.936C742.472 424.584 740.24 428.184 737.84 430.512C738.176 430.944 738.728 431.904 738.896 432.336C741.512 429.648 743.984 425.544 745.568 421.488L743.84 420.936ZM741.272 427.128V442.896H743.096V425.352L743.048 425.328L741.272 427.128ZM768.224 423.6H777.824V428.16H768.224V423.6ZM766.472 421.872V429.888H779.648V421.872H766.472ZM762.992 432.432V442.92H764.696V434.16H769.736V442.728H771.536V432.432H762.992ZM774.152 432.432V442.92H775.88V434.16H781.376V442.776H783.176V432.432H774.152ZM763.76 439.896V441.624H770.456V439.896H763.76ZM775.04 439.896V441.624H782.168V439.896H775.04Z" fill="white"/>
</g>
<g filter="url(#filter4_d_476_151)">
<path d="M395.875 14.8438L398.094 16.875L396.031 18.6875L388.75 18.7188L386.875 16.7188L389.188 14.7812L395.875 14.8438ZM395.031 24.5625L397.156 26.7812L395.188 28.75L388.906 28.8438L387.125 26.6562L389.312 24.5625H395.031ZM400.312 24.3438L398.438 25.9375L396.406 23.9062L396.469 19.8438L398.469 17.7188L400.406 20.3125L400.312 24.3438ZM387.281 34.4688L385.062 36.2812L383.25 33.9688L383.312 29.75L385.594 27.5625L387.312 29.6562L387.281 34.4688ZM395.562 36.1562L397.781 38.1875L395.719 40H387.844L385.969 38L388.281 36.0625L395.562 36.1562ZM415.781 23.7188L415.938 19.6875L417.688 17.5625L419.938 19.7812L420.031 24L418.188 26.0938L415.781 23.7188ZM403.406 34.4688L403.375 29.6562L405.094 27.5625L407.375 29.75L407.438 34.75L405.219 36.875L403.406 34.4688ZM407.781 14.8438L414.469 14.7812L416.781 16.7188L414.906 18.7188L407.594 18.6875L405.562 16.875L407.781 14.8438ZM403.344 24.3438L403.25 20.3125L405.156 17.7188L407.188 19.8438L407.25 23.9062L405.188 25.9375L403.344 24.3438ZM416.375 34.4688L416.344 29.6562L418.062 27.5625L420.344 29.75L420.406 33.9688L418.562 36.2812L416.375 34.4688ZM408.094 36.1562L415.375 36.0625L417.656 38L415.781 40H407.906L406.031 38.1875L408.094 36.1562ZM435.875 14.8438L438.094 16.875L436.031 18.6875L428.75 18.7188L426.875 16.7188L429.188 14.7812L435.875 14.8438ZM435.031 24.5625L437.156 26.7812L435.188 28.75L428.906 28.8438L427.125 26.6562L429.312 24.5625H435.031ZM440.312 24.3438L438.438 25.9375L436.406 23.9062L436.469 19.8438L438.469 17.7188L440.406 20.3125L440.312 24.3438ZM427.281 34.4688L425.062 36.2812L423.25 33.9688L423.312 29.75L425.594 27.5625L427.312 29.6562L427.281 34.4688ZM435.562 36.1562L437.781 38.1875L435.719 40H427.844L425.969 38L428.281 36.0625L435.562 36.1562ZM455.875 14.8438L458.094 16.875L456.031 18.6875L448.75 18.7188L446.875 16.7188L449.188 14.7812L455.875 14.8438ZM455.031 24.5625L457.156 26.7812L455.188 28.75L448.906 28.8438L447.125 26.6562L449.312 24.5625H455.031ZM460.312 24.3438L458.438 25.9375L456.406 23.9062L456.469 19.8438L458.469 17.7188L460.406 20.3125L460.312 24.3438ZM447.281 34.4688L445.062 36.2812L443.25 33.9688L443.312 29.75L445.594 27.5625L447.312 29.6562L447.281 34.4688ZM455.562 36.1562L457.781 38.1875L455.719 40H447.844L445.969 38L448.281 36.0625L455.562 36.1562ZM468.625 34.5H474.094V39.9688H468.625V34.5ZM496.125 37.5V30.7812L498.031 28.1875L500.062 30.3125L499.938 37.6875L498.125 40L496.125 37.5ZM496.125 23.9688V17.25L498.031 14.6562L500.062 16.7812L499.938 24.1562L498.125 26.4688L496.125 23.9688ZM515.781 23.7188L515.938 19.6875L517.688 17.5625L519.938 19.7812L520.031 24L518.188 26.0938L515.781 23.7188ZM503.406 34.4688L503.375 29.6562L505.094 27.5625L507.375 29.75L507.438 34.75L505.219 36.875L503.406 34.4688ZM507.781 14.8438L514.469 14.7812L516.781 16.7188L514.906 18.7188L507.594 18.6875L505.562 16.875L507.781 14.8438ZM503.344 24.3438L503.25 20.3125L505.156 17.7188L507.188 19.8438L507.25 23.9062L505.188 25.9375L503.344 24.3438ZM516.375 34.4688L516.344 29.6562L518.062 27.5625L520.344 29.75L520.406 33.9688L518.562 36.2812L516.375 34.4688ZM508.094 36.1562L515.375 36.0625L517.656 38L515.781 40H507.906L506.031 38.1875L508.094 36.1562ZM528.625 34.5H534.094V39.9688H528.625V34.5ZM555.781 23.7188L555.938 19.6875L557.688 17.5625L559.938 19.7812L560.031 24L558.188 26.0938L555.781 23.7188ZM547.781 14.8438L554.469 14.7812L556.781 16.7188L554.906 18.7188L547.594 18.6875L545.562 16.875L547.781 14.8438ZM548.625 24.5625H554.906L557.094 26.6562L555.312 28.8438L548.438 28.75L546.5 26.7812L548.625 24.5625ZM556.375 34.4688L556.344 29.6562L558.062 27.5625L560.344 29.75L560.406 33.9688L558.562 36.2812L556.375 34.4688ZM548.094 36.1562L555.375 36.0625L557.656 38L555.781 40H547.906L546.031 38.1875L548.094 36.1562ZM576.125 37.5V30.7812L578.031 28.1875L580.062 30.3125L579.938 37.6875L578.125 40L576.125 37.5ZM576.125 23.9688V17.25L578.031 14.6562L580.062 16.7812L579.938 24.1562L578.125 26.4688L576.125 23.9688Z" fill="white"/>
</g>
<g filter="url(#filter5_d_476_151)">
<path d="M560.594 168.125V163.086L562.023 161.141L563.547 162.734L563.453 168.266L562.094 170L560.594 168.125ZM560.594 157.977V152.938L562.023 150.992L563.547 152.586L563.453 158.117L562.094 159.852L560.594 157.977ZM575.594 168.125V163.086L577.023 161.141L578.547 162.734L578.453 168.266L577.094 170L575.594 168.125ZM575.594 157.977V152.938L577.023 150.992L578.547 152.586L578.453 158.117L577.094 159.852L575.594 157.977ZM584.969 165.875H589.07V169.977H584.969V165.875ZM605.336 157.789L605.453 154.766L606.766 153.172L608.453 154.836L608.523 158L607.141 159.57L605.336 157.789ZM599.336 151.133L604.352 151.086L606.086 152.539L604.68 154.039L599.195 154.016L597.672 152.656L599.336 151.133ZM605.781 168.078L605.758 162.242L607.047 160.672L608.758 162.312L608.805 167.727L607.422 169.438L605.781 168.078ZM635.336 157.789L635.453 154.766L636.766 153.172L638.453 154.836L638.523 158L637.141 159.57L635.336 157.789ZM626.055 167.656L626.031 162.242L627.32 160.672L629.031 162.312L629.078 167.867L627.414 169.438L626.055 167.656ZM629.336 151.133L634.352 151.086L636.086 152.539L634.68 154.039L629.195 154.016L627.672 152.656L629.336 151.133ZM629.969 158.422H634.68L636.32 159.992L634.984 161.633L629.828 161.562L628.375 160.086L629.969 158.422ZM626.008 158.258L625.938 155.234L627.367 153.289L628.891 154.883L628.938 157.93L627.391 159.453L626.008 158.258ZM645.742 160.602L645.695 155.469L648.695 155.562L648.766 160.227L647.383 161.961L645.742 160.602ZM650.336 157.789L650.453 154.766L651.766 153.172L653.453 154.836L653.523 158L652.141 159.57L650.336 157.789ZM641.125 167.727L641.031 162.242L642.32 160.672L644.031 162.312L644.148 167.938L642.508 169.531L641.125 167.727ZM644.336 151.133L649.352 151.086L651.086 152.539L649.68 154.039L644.195 154.016L642.672 152.656L644.336 151.133ZM641.008 158.258L640.938 155.234L642.367 153.289L643.891 154.883L643.938 157.93L642.391 159.453L641.008 158.258ZM650.758 168.43V162.242L652.047 160.672L653.758 162.312L653.781 168.078L652.398 169.812L650.758 168.43ZM680.594 168.125V163.086L682.023 161.141L683.547 162.734L683.453 168.266L682.094 170L680.594 168.125ZM680.594 157.977V152.938L682.023 150.992L683.547 152.586L683.453 158.117L682.094 159.852L680.594 157.977ZM695.406 151.133L697.07 152.656L695.523 154.016L690.062 154.039L688.656 152.539L690.391 151.086L695.406 151.133ZM694.773 158.422L696.367 160.086L694.891 161.562L690.18 161.633L688.844 159.992L690.484 158.422H694.773ZM698.734 158.258L697.328 159.453L695.805 157.93L695.852 154.883L697.352 153.289L698.805 155.234L698.734 158.258ZM688.961 165.852L687.297 167.211L685.938 165.477L685.984 162.312L687.695 160.672L688.984 162.242L688.961 165.852ZM695.172 167.117L696.836 168.641L695.289 170H689.383L687.977 168.5L689.711 167.047L695.172 167.117ZM704.969 154.883H709.07V158.984H704.969V154.883ZM704.969 163.086H709.07V167.188H704.969V163.086ZM725.336 157.789L725.453 154.766L726.766 153.172L728.453 154.836L728.523 158L727.141 159.57L725.336 157.789ZM716.055 165.852L716.031 162.242L717.32 160.672L719.031 162.312L719.078 166.062L717.414 167.656L716.055 165.852ZM719.336 151.133L724.352 151.086L726.086 152.539L724.68 154.039L719.195 154.016L717.672 152.656L719.336 151.133ZM716.008 158.258L715.938 155.234L717.367 153.289L718.891 154.883L718.938 157.93L717.391 159.453L716.008 158.258ZM725.781 165.852L725.758 162.242L727.047 160.672L728.758 162.312L728.805 165.477L727.422 167.211L725.781 165.852ZM719.57 167.117L725.031 167.047L726.742 168.5L725.336 170H719.43L718.023 168.641L719.57 167.117ZM740.336 157.789L740.453 154.766L741.766 153.172L743.453 154.836L743.523 158L742.141 159.57L740.336 157.789ZM731.055 165.852L731.031 162.242L732.32 160.672L734.031 162.312L734.078 166.062L732.414 167.656L731.055 165.852ZM734.336 151.133L739.352 151.086L741.086 152.539L739.68 154.039L734.195 154.016L732.672 152.656L734.336 151.133ZM731.008 158.258L730.938 155.234L732.367 153.289L733.891 154.883L733.938 157.93L732.391 159.453L731.008 158.258ZM740.781 165.852L740.758 162.242L742.047 160.672L743.758 162.312L743.805 165.477L742.422 167.211L740.781 165.852ZM734.57 167.117L740.031 167.047L741.742 168.5L740.336 170H734.43L733.023 168.641L734.57 167.117Z" fill="white"/>
</g>
<g filter="url(#filter6_d_476_151)">
<path d="M590.594 289.125V284.086L592.023 282.141L593.547 283.734L593.453 289.266L592.094 291L590.594 289.125ZM590.594 278.977V273.938L592.023 271.992L593.547 273.586L593.453 279.117L592.094 280.852L590.594 278.977ZM605.594 289.125V284.086L607.023 282.141L608.547 283.734L608.453 289.266L607.094 291L605.594 289.125ZM605.594 278.977V273.938L607.023 271.992L608.547 273.586L608.453 279.117L607.094 280.852L605.594 278.977ZM614.969 286.875H619.07V290.977H614.969V286.875ZM635.594 289.125V284.086L637.023 282.141L638.547 283.734L638.453 289.266L637.094 291L635.594 289.125ZM635.594 278.977V273.938L637.023 271.992L638.547 273.586L638.453 279.117L637.094 280.852L635.594 278.977ZM650.336 278.789L650.477 273.891L651.789 272.297L653.477 273.961L653.523 279L652.141 280.57L650.336 278.789ZM644.969 279.422H649.68L651.32 280.992L649.984 282.633L644.828 282.562L643.375 281.086L644.969 279.422ZM641.008 279.258L640.961 274.359L642.391 272.414L643.914 274.008L643.938 278.93L642.391 280.453L641.008 279.258ZM650.758 289.242V283.242L652.047 281.672L653.758 283.312L653.781 288.891L652.398 290.625L650.758 289.242ZM680.336 278.789L680.453 275.766L681.766 274.172L683.453 275.836L683.523 279L682.141 280.57L680.336 278.789ZM671.055 288.656L671.031 283.242L672.32 281.672L674.031 283.312L674.078 288.867L672.414 290.438L671.055 288.656ZM674.336 272.133L679.352 272.086L681.086 273.539L679.68 275.039L674.195 275.016L672.672 273.656L674.336 272.133ZM674.969 279.422H679.68L681.32 280.992L679.984 282.633L674.828 282.562L673.375 281.086L674.969 279.422ZM671.008 279.258L670.938 276.234L672.367 274.289L673.891 275.883L673.938 278.93L672.391 280.453L671.008 279.258ZM690.742 281.602L690.695 276.469L693.695 276.562L693.766 281.227L692.383 282.961L690.742 281.602ZM695.336 278.789L695.453 275.766L696.766 274.172L698.453 275.836L698.523 279L697.141 280.57L695.336 278.789ZM686.125 288.727L686.031 283.242L687.32 281.672L689.031 283.312L689.148 288.938L687.508 290.531L686.125 288.727ZM689.336 272.133L694.352 272.086L696.086 273.539L694.68 275.039L689.195 275.016L687.672 273.656L689.336 272.133ZM686.008 279.258L685.938 276.234L687.367 274.289L688.891 275.883L688.938 278.93L687.391 280.453L686.008 279.258ZM695.758 289.43V283.242L697.047 281.672L698.758 283.312L698.781 289.078L697.398 290.812L695.758 289.43ZM725.594 289.125V284.086L727.023 282.141L728.547 283.734L728.453 289.266L727.094 291L725.594 289.125ZM725.594 278.977V273.938L727.023 271.992L728.547 273.586L728.453 279.117L727.094 280.852L725.594 278.977ZM740.406 272.133L742.07 273.656L740.523 275.016L735.062 275.039L733.656 273.539L735.391 272.086L740.406 272.133ZM739.773 279.422L741.367 281.086L739.891 282.562L735.18 282.633L733.844 280.992L735.484 279.422H739.773ZM743.734 279.258L742.328 280.453L740.805 278.93L740.852 275.883L742.352 274.289L743.805 276.234L743.734 279.258ZM733.961 286.852L732.297 288.211L730.938 286.477L730.984 283.312L732.695 281.672L733.984 283.242L733.961 286.852ZM740.172 288.117L741.836 289.641L740.289 291H734.383L732.977 289.5L734.711 288.047L740.172 288.117ZM749.969 275.883H754.07V279.984H749.969V275.883ZM749.969 284.086H754.07V288.188H749.969V284.086ZM770.336 278.789L770.453 275.766L771.766 274.172L773.453 275.836L773.523 279L772.141 280.57L770.336 278.789ZM761.055 286.852L761.031 283.242L762.32 281.672L764.031 283.312L764.078 287.062L762.414 288.656L761.055 286.852ZM764.336 272.133L769.352 272.086L771.086 273.539L769.68 275.039L764.195 275.016L762.672 273.656L764.336 272.133ZM761.008 279.258L760.938 276.234L762.367 274.289L763.891 275.883L763.938 278.93L762.391 280.453L761.008 279.258ZM770.781 286.852L770.758 283.242L772.047 281.672L773.758 283.312L773.805 286.477L772.422 288.211L770.781 286.852ZM764.57 288.117L770.031 288.047L771.742 289.5L770.336 291H764.43L763.023 289.641L764.57 288.117ZM785.336 278.789L785.453 275.766L786.766 274.172L788.453 275.836L788.523 279L787.141 280.57L785.336 278.789ZM776.055 286.852L776.031 283.242L777.32 281.672L779.031 283.312L779.078 287.062L777.414 288.656L776.055 286.852ZM779.336 272.133L784.352 272.086L786.086 273.539L784.68 275.039L779.195 275.016L777.672 273.656L779.336 272.133ZM776.008 279.258L775.938 276.234L777.367 274.289L778.891 275.883L778.938 278.93L777.391 280.453L776.008 279.258ZM785.781 286.852L785.758 283.242L787.047 281.672L788.758 283.312L788.805 286.477L787.422 288.211L785.781 286.852ZM779.57 288.117L785.031 288.047L786.742 289.5L785.336 291H779.43L778.023 289.641L779.57 288.117Z" fill="white"/>
</g>
<g filter="url(#filter7_d_476_151)">
<path d="M619.594 403.125V398.086L621.023 396.141L622.547 397.734L622.453 403.266L621.094 405L619.594 403.125ZM619.594 392.977V387.938L621.023 385.992L622.547 387.586L622.453 393.117L621.094 394.852L619.594 392.977ZM634.594 403.125V398.086L636.023 396.141L637.547 397.734L637.453 403.266L636.094 405L634.594 403.125ZM634.594 392.977V387.938L636.023 385.992L637.547 387.586L637.453 393.117L636.094 394.852L634.594 392.977ZM643.969 400.875H648.07V404.977H643.969V400.875ZM664.406 386.133L666.07 387.656L664.523 389.016L659.062 389.039L657.656 387.539L659.391 386.086L664.406 386.133ZM663.773 393.422L665.367 395.086L663.891 396.562L659.18 396.633L657.844 394.992L659.484 393.422H663.773ZM667.734 393.258L666.328 394.453L664.805 392.93L664.852 389.883L666.352 388.289L667.805 390.234L667.734 393.258ZM657.961 400.852L656.297 402.211L654.938 400.477L654.984 397.312L656.695 395.672L657.984 397.242L657.961 400.852ZM664.172 402.117L665.836 403.641L664.289 405H658.383L656.977 403.5L658.711 402.047L664.172 402.117ZM679.594 403.125V398.086L681.023 396.141L682.547 397.734L682.453 403.266L681.094 405L679.594 403.125ZM679.594 392.977V387.938L681.023 385.992L682.547 387.586L682.453 393.117L681.094 394.852L679.594 392.977ZM709.336 392.789L709.453 389.766L710.766 388.172L712.453 389.836L712.523 393L711.141 394.57L709.336 392.789ZM700.055 402.656L700.031 397.242L701.32 395.672L703.031 397.312L703.078 402.867L701.414 404.438L700.055 402.656ZM703.336 386.133L708.352 386.086L710.086 387.539L708.68 389.039L703.195 389.016L701.672 387.656L703.336 386.133ZM703.969 393.422H708.68L710.32 394.992L708.984 396.633L703.828 396.562L702.375 395.086L703.969 393.422ZM700.008 393.258L699.938 390.234L701.367 388.289L702.891 389.883L702.938 392.93L701.391 394.453L700.008 393.258ZM719.742 395.602L719.695 390.469L722.695 390.562L722.766 395.227L721.383 396.961L719.742 395.602ZM724.336 392.789L724.453 389.766L725.766 388.172L727.453 389.836L727.523 393L726.141 394.57L724.336 392.789ZM715.125 402.727L715.031 397.242L716.32 395.672L718.031 397.312L718.148 402.938L716.508 404.531L715.125 402.727ZM718.336 386.133L723.352 386.086L725.086 387.539L723.68 389.039L718.195 389.016L716.672 387.656L718.336 386.133ZM715.008 393.258L714.938 390.234L716.367 388.289L717.891 389.883L717.938 392.93L716.391 394.453L715.008 393.258ZM724.758 403.43V397.242L726.047 395.672L727.758 397.312L727.781 403.078L726.398 404.812L724.758 403.43ZM754.594 403.125V398.086L756.023 396.141L757.547 397.734L757.453 403.266L756.094 405L754.594 403.125ZM754.594 392.977V387.938L756.023 385.992L757.547 387.586L757.453 393.117L756.094 394.852L754.594 392.977ZM769.406 386.133L771.07 387.656L769.523 389.016L764.062 389.039L762.656 387.539L764.391 386.086L769.406 386.133ZM768.773 393.422L770.367 395.086L768.891 396.562L764.18 396.633L762.844 394.992L764.484 393.422H768.773ZM772.734 393.258L771.328 394.453L769.805 392.93L769.852 389.883L771.352 388.289L772.805 390.234L772.734 393.258ZM762.961 400.852L761.297 402.211L759.938 400.477L759.984 397.312L761.695 395.672L762.984 397.242L762.961 400.852ZM769.172 402.117L770.836 403.641L769.289 405H763.383L761.977 403.5L763.711 402.047L769.172 402.117ZM778.969 389.883H783.07V393.984H778.969V389.883ZM778.969 398.086H783.07V402.188H778.969V398.086ZM799.336 392.789L799.453 389.766L800.766 388.172L802.453 389.836L802.523 393L801.141 394.57L799.336 392.789ZM790.055 400.852L790.031 397.242L791.32 395.672L793.031 397.312L793.078 401.062L791.414 402.656L790.055 400.852ZM793.336 386.133L798.352 386.086L800.086 387.539L798.68 389.039L793.195 389.016L791.672 387.656L793.336 386.133ZM790.008 393.258L789.938 390.234L791.367 388.289L792.891 389.883L792.938 392.93L791.391 394.453L790.008 393.258ZM799.781 400.852L799.758 397.242L801.047 395.672L802.758 397.312L802.805 400.477L801.422 402.211L799.781 400.852ZM793.57 402.117L799.031 402.047L800.742 403.5L799.336 405H793.43L792.023 403.641L793.57 402.117ZM814.336 392.789L814.453 389.766L815.766 388.172L817.453 389.836L817.523 393L816.141 394.57L814.336 392.789ZM805.055 400.852L805.031 397.242L806.32 395.672L808.031 397.312L808.078 401.062L806.414 402.656L805.055 400.852ZM808.336 386.133L813.352 386.086L815.086 387.539L813.68 389.039L808.195 389.016L806.672 387.656L808.336 386.133ZM805.008 393.258L804.938 390.234L806.367 388.289L807.891 389.883L807.938 392.93L806.391 394.453L805.008 393.258ZM814.781 400.852L814.758 397.242L816.047 395.672L817.758 397.312L817.805 400.477L816.422 402.211L814.781 400.852ZM808.57 402.117L814.031 402.047L815.742 403.5L814.336 405H808.43L807.023 403.641L808.57 402.117Z" fill="white"/>
</g>
<path d="M462.199 394.493C462.675 394.772 463.288 394.613 463.568 394.137L468.126 386.377C468.406 385.9 468.247 385.288 467.771 385.008C467.294 384.728 466.682 384.887 466.402 385.364L462.35 392.262L455.452 388.21C454.976 387.93 454.363 388.089 454.083 388.566C453.804 389.042 453.963 389.655 454.439 389.934L462.199 394.493ZM381.032 83.3844L382.584 89.3555L384.52 88.8524L382.968 82.8813L381.032 83.3844ZM385.688 101.298L388.792 113.24L390.728 112.737L387.624 100.795L385.688 101.298ZM391.896 125.182L395 137.124L396.936 136.621L393.832 124.679L391.896 125.182ZM398.105 149.067L401.209 161.009L403.144 160.506L400.04 148.563L398.105 149.067ZM404.313 172.951L407.417 184.893L409.352 184.39L406.248 172.448L404.313 172.951ZM410.521 196.835L413.625 208.778L415.561 208.275L412.456 196.332L410.521 196.835ZM416.729 220.72L419.833 232.662L421.769 232.159L418.665 220.217L416.729 220.72ZM422.937 244.604L426.041 256.547L427.977 256.043L424.873 244.101L422.937 244.604ZM429.145 268.489L432.249 280.431L434.185 279.928L431.081 267.986L429.145 268.489ZM435.353 292.373L438.457 304.315L440.393 303.812L437.289 291.87L435.353 292.373ZM441.562 316.258L444.666 328.2L446.601 327.697L443.497 315.755L441.562 316.258ZM447.77 340.142L450.874 352.084L452.809 351.581L449.705 339.639L447.77 340.142ZM453.978 364.026L457.082 375.969L459.018 375.466L455.913 363.523L453.978 364.026ZM460.186 387.911L461.738 393.882L463.674 393.379L462.122 387.408L460.186 387.911ZM461.693 395.355C462.645 395.914 463.871 395.596 464.43 394.643L473.547 379.123C474.106 378.17 473.788 376.945 472.835 376.385C471.883 375.826 470.657 376.145 470.098 377.097L461.994 390.893L448.198 382.789C447.246 382.23 446.02 382.548 445.461 383.501C444.901 384.453 445.22 385.679 446.172 386.238L461.693 395.355ZM380.064 83.636L381.616 89.6071L385.488 88.6008L383.936 82.6297L380.064 83.636ZM384.72 101.549L387.825 113.492L391.696 112.485L388.592 100.543L384.72 101.549ZM390.929 125.434L394.033 137.376L397.904 136.37L394.8 124.427L390.929 125.434ZM397.137 149.318L400.241 161.26L404.112 160.254L401.008 148.312L397.137 149.318ZM403.345 173.203L406.449 185.145L410.32 184.139L407.216 172.196L403.345 173.203ZM409.553 197.087L412.657 209.029L416.528 208.023L413.424 196.081L409.553 197.087ZM415.761 220.971L418.865 232.914L422.737 231.907L419.632 219.965L415.761 220.971ZM421.969 244.856L425.073 256.798L428.945 255.792L425.841 243.85L421.969 244.856ZM428.177 268.74L431.281 280.683L435.153 279.676L432.049 267.734L428.177 268.74ZM434.386 292.625L437.49 304.567L441.361 303.561L438.257 291.619L434.386 292.625ZM440.594 316.509L443.698 328.451L447.569 327.445L444.465 315.503L440.594 316.509ZM446.802 340.394L449.906 352.336L453.777 351.33L450.673 339.387L446.802 340.394ZM453.01 364.278L456.114 376.22L459.985 375.214L456.881 363.272L453.01 364.278ZM459.218 388.162L460.77 394.134L464.641 393.127L463.089 387.156L459.218 388.162Z" fill="#02D7F2"/>
<path d="M441 180H525.5" stroke="white" stroke-width="2"/>
<path d="M471 301H555.5" stroke="white" stroke-width="2"/>
<circle cx="529" cy="180" r="12" fill="white" fill-opacity="0.2"/>
<circle cx="559" cy="301" r="12" fill="white" fill-opacity="0.2"/>
<circle cx="588" cy="415" r="12" fill="white" fill-opacity="0.2"/>
<circle cx="529" cy="180" r="6" fill="white"/>
<circle cx="559" cy="301" r="6" fill="white"/>
<circle cx="588" cy="415" r="6" fill="white"/>
<defs>
<filter id="filter0_d_476_151" x="606.648" y="57.5601" width="125.152" height="61.7598" filterUnits="userSpaceOnUse" color-interpolation-filters="sRGB">
<feFlood flood-opacity="0" result="BackgroundImageFix"/>
<feColorMatrix in="SourceAlpha" type="matrix" values="0 0 0 0 0 0 0 0 0 0 0 0 0 0 0 0 0 0 127 0" result="hardAlpha"/>
<feOffset dy="4"/>
<feGaussianBlur stdDeviation="2"/>
<feComposite in2="hardAlpha" operator="out"/>
<feColorMatrix type="matrix" values="0 0 0 0 0 0 0 0 0 0 0 0 0 0 0 0 0 0 0.25 0"/>
<feBlend mode="normal" in2="BackgroundImageFix" result="effect1_dropShadow_476_151"/>
<feBlend mode="normal" in="SourceGraphic" in2="effect1_dropShadow_476_151" result="shape"/>
</filter>
<filter id="filter1_d_476_151" x="554.672" y="185.744" width="173.504" height="30.272" filterUnits="userSpaceOnUse" color-interpolation-filters="sRGB">
<feFlood flood-opacity="0" result="BackgroundImageFix"/>
<feColorMatrix in="SourceAlpha" type="matrix" values="0 0 0 0 0 0 0 0 0 0 0 0 0 0 0 0 0 0 127 0" result="hardAlpha"/>
<feOffset dy="4"/>
<feGaussianBlur stdDeviation="2"/>
<feComposite in2="hardAlpha" operator="out"/>
<feColorMatrix type="matrix" values="0 0 0 0 0 0 0 0 0 0 0 0 0 0 0 0 0 0 0.25 0"/>
<feBlend mode="normal" in2="BackgroundImageFix" result="effect1_dropShadow_476_151"/>
<feBlend mode="normal" in="SourceGraphic" in2="effect1_dropShadow_476_151" result="shape"/>
</filter>
<filter id="filter2_d_476_151" x="584.672" y="306.744" width="173.504" height="30.272" filterUnits="userSpaceOnUse" color-interpolation-filters="sRGB">
<feFlood flood-opacity="0" result="BackgroundImageFix"/>
<feColorMatrix in="SourceAlpha" type="matrix" values="0 0 0 0 0 0 0 0 0 0 0 0 0 0 0 0 0 0 127 0" result="hardAlpha"/>
<feOffset dy="4"/>
<feGaussianBlur stdDeviation="2"/>
<feComposite in2="hardAlpha" operator="out"/>
<feColorMatrix type="matrix" values="0 0 0 0 0 0 0 0 0 0 0 0 0 0 0 0 0 0 0.25 0"/>
<feBlend mode="normal" in2="BackgroundImageFix" result="effect1_dropShadow_476_151"/>
<feBlend mode="normal" in="SourceGraphic" in2="effect1_dropShadow_476_151" result="shape"/>
</filter>
<filter id="filter3_d_476_151" x="613.672" y="420.744" width="173.504" height="30.272" filterUnits="userSpaceOnUse" color-interpolation-filters="sRGB">
<feFlood flood-opacity="0" result="BackgroundImageFix"/>
<feColorMatrix in="SourceAlpha" type="matrix" values="0 0 0 0 0 0 0 0 0 0 0 0 0 0 0 0 0 0 127 0" result="hardAlpha"/>
<feOffset dy="4"/>
<feGaussianBlur stdDeviation="2"/>
<feComposite in2="hardAlpha" operator="out"/>
<feColorMatrix type="matrix" values="0 0 0 0 0 0 0 0 0 0 0 0 0 0 0 0 0 0 0.25 0"/>
<feBlend mode="normal" in2="BackgroundImageFix" result="effect1_dropShadow_476_151"/>
<feBlend mode="normal" in="SourceGraphic" in2="effect1_dropShadow_476_151" result="shape"/>
</filter>
<filter id="filter4_d_476_151" x="379.25" y="14.6562" width="204.812" height="33.3438" filterUnits="userSpaceOnUse" color-interpolation-filters="sRGB">
<feFlood flood-opacity="0" result="BackgroundImageFix"/>
<feColorMatrix in="SourceAlpha" type="matrix" values="0 0 0 0 0 0 0 0 0 0 0 0 0 0 0 0 0 0 127 0" result="hardAlpha"/>
<feOffset dy="4"/>
<feGaussianBlur stdDeviation="2"/>
<feComposite in2="hardAlpha" operator="out"/>
<feColorMatrix type="matrix" values="0 0 0 0 0 0 0 0 0 0 0 0 0 0 0 0 0 0 0.25 0"/>
<feBlend mode="normal" in2="BackgroundImageFix" result="effect1_dropShadow_476_151"/>
<feBlend mode="normal" in="SourceGraphic" in2="effect1_dropShadow_476_151" result="shape"/>
</filter>
<filter id="filter5_d_476_151" x="556.594" y="150.992" width="191.211" height="27.0078" filterUnits="userSpaceOnUse" color-interpolation-filters="sRGB">
<feFlood flood-opacity="0" result="BackgroundImageFix"/>
<feColorMatrix in="SourceAlpha" type="matrix" values="0 0 0 0 0 0 0 0 0 0 0 0 0 0 0 0 0 0 127 0" result="hardAlpha"/>
<feOffset dy="4"/>
<feGaussianBlur stdDeviation="2"/>
<feComposite in2="hardAlpha" operator="out"/>
<feColorMatrix type="matrix" values="0 0 0 0 0 0 0 0 0 0 0 0 0 0 0 0 0 0 0.25 0"/>
<feBlend mode="normal" in2="BackgroundImageFix" result="effect1_dropShadow_476_151"/>
<feBlend mode="normal" in="SourceGraphic" in2="effect1_dropShadow_476_151" result="shape"/>
</filter>
<filter id="filter6_d_476_151" x="586.594" y="271.992" width="206.211" height="27.0078" filterUnits="userSpaceOnUse" color-interpolation-filters="sRGB">
<feFlood flood-opacity="0" result="BackgroundImageFix"/>
<feColorMatrix in="SourceAlpha" type="matrix" values="0 0 0 0 0 0 0 0 0 0 0 0 0 0 0 0 0 0 127 0" result="hardAlpha"/>
<feOffset dy="4"/>
<feGaussianBlur stdDeviation="2"/>
<feComposite in2="hardAlpha" operator="out"/>
<feColorMatrix type="matrix" values="0 0 0 0 0 0 0 0 0 0 0 0 0 0 0 0 0 0 0.25 0"/>
<feBlend mode="normal" in2="BackgroundImageFix" result="effect1_dropShadow_476_151"/>
<feBlend mode="normal" in="SourceGraphic" in2="effect1_dropShadow_476_151" result="shape"/>
</filter>
<filter id="filter7_d_476_151" x="615.594" y="385.992" width="206.211" height="27.0078" filterUnits="userSpaceOnUse" color-interpolation-filters="sRGB">
<feFlood flood-opacity="0" result="BackgroundImageFix"/>
<feColorMatrix in="SourceAlpha" type="matrix" values="0 0 0 0 0 0 0 0 0 0 0 0 0 0 0 0 0 0 127 0" result="hardAlpha"/>
<feOffset dy="4"/>
<feGaussianBlur stdDeviation="2"/>
<feComposite in2="hardAlpha" operator="out"/>
<feColorMatrix type="matrix" values="0 0 0 0 0 0 0 0 0 0 0 0 0 0 0 0 0 0 0.25 0"/>
<feBlend mode="normal" in2="BackgroundImageFix" result="effect1_dropShadow_476_151"/>
<feBlend mode="normal" in="SourceGraphic" in2="effect1_dropShadow_476_151" result="shape"/>
</filter>
</defs>
</svg>
