<svg width="176" height="64" viewBox="0 0 176 64" fill="none" xmlns="http://www.w3.org/2000/svg">
<path d="M16 64L0 48.2462V0H16V64Z" fill="white" fill-opacity="0.2"/>
<rect width="144" height="64" transform="translate(16)" fill="white" fill-opacity="0.2"/>
<path d="M46.136 21.348V42.636H48.752V23.844H57.824V42.444H60.56V21.348H46.136ZM49.376 26.796V28.884H57.272V26.796H49.376ZM47.48 38.724V41.244H59.144V38.724H47.48ZM52.136 24.348V32.052H54.368V24.348H52.136ZM52.064 32.964H54.512V35.46H52.064V32.964ZM50 30.972V37.452H56.696V30.972H50ZM43.16 20.196C42.08 23.628 40.232 27.084 38.216 29.292C38.672 30.036 39.392 31.716 39.608 32.412C42.104 29.58 44.408 25.14 45.8 20.988L43.16 20.196ZM41.192 26.772V42.684H43.928V24.084L43.904 24.06L41.192 26.772ZM72.944 20.7C72.776 23.844 73.112 34.812 63.464 40.164C64.448 40.836 65.384 41.724 65.888 42.468C75.704 36.444 76.016 24.732 76.232 20.7H72.944ZM76.136 21.324L73.352 21.612C73.544 24.084 74 37.308 84.344 42.444C84.776 41.652 85.64 40.692 86.552 39.996C76.712 35.388 76.208 23.412 76.136 21.324ZM89.48 37.62V23.7H92.744V36.492L93.968 37.716H98.672L99.896 36.492V23.7H103.16V37.62L100.28 40.5H92.36L89.48 37.62ZM107.365 23.7H110.629V40.5H107.365V23.7ZM126.189 27.252V29.844H133.365V27.252H126.189ZM126.189 33.276V35.868H133.365V33.276H126.189ZM124.701 21.324V41.028H127.485V23.916H132.093V41.028H134.997V21.324H124.701ZM122.493 39.444V42.036H136.605V39.444H122.493ZM117.597 20.148C117.045 21.828 116.013 24.132 115.149 25.572L117.093 26.364C118.029 25.044 119.157 22.908 120.141 21.036L117.597 20.148ZM120.477 22.98C119.205 25.548 117.021 29.076 115.173 31.236L116.925 32.124C118.773 30.084 121.125 26.748 122.901 23.988L120.477 22.98ZM113.901 25.836C115.125 26.988 116.589 28.644 117.189 29.796L118.653 27.54C118.029 26.484 116.541 24.948 115.245 23.844L113.901 25.836ZM119.877 28.764C120.789 30.42 121.677 32.604 121.965 33.972L124.149 32.964C123.837 31.572 122.877 29.484 121.917 27.876L119.877 28.764ZM113.877 30.708L114.117 33.204C116.493 33.06 119.613 32.844 122.637 32.604V30.324C119.421 30.492 116.109 30.636 113.877 30.708ZM120.309 34.788C120.885 36.252 121.509 38.196 121.725 39.444L123.981 38.628C123.693 37.404 123.045 35.532 122.421 34.092L120.309 34.788ZM114.909 34.236C114.717 36.276 114.333 38.412 113.637 39.828C114.237 40.068 115.317 40.572 115.821 40.884C116.517 39.348 117.045 36.948 117.285 34.644L114.909 34.236ZM117.693 31.98V42.684H120.261V31.98H117.693Z" fill="white"/>
<path d="M160 0L176 15.7538V64H160V0Z" fill="white" fill-opacity="0.2"/>
</svg>
