<svg width="574" height="64" viewBox="0 0 574 64" fill="none" xmlns="http://www.w3.org/2000/svg">
<path d="M16 64L0 48.2462V0H16V64Z" fill="white" fill-opacity="0.2"/>
<rect width="118" height="64" transform="translate(16)" fill="white" fill-opacity="0.2"/>
<path d="M43.28 24.3V25.884H56.552V24.3H43.28ZM42.968 34.332V35.892H56.888V34.332H42.968ZM45.2 36.588C45.824 37.26 46.52 38.172 46.832 38.772L48.752 37.812C48.416 37.212 47.648 36.324 47 35.724L45.2 36.588ZM46.136 29.58H53.648V30.324H46.136V29.58ZM46.136 27.756H53.648V28.452H46.136V27.756ZM43.952 26.58V31.5H55.928V26.58H43.952ZM51.416 33.636V37.308C51.416 37.524 51.32 37.596 51.104 37.596C50.864 37.62 50.048 37.62 49.376 37.596C49.592 38.004 49.856 38.532 49.952 39.06C51.296 39.06 52.256 39.06 52.904 38.844C53.6 38.628 53.792 38.34 53.792 37.404V33.636H51.416ZM43.352 32.292L43.448 33.828C46.544 33.78 50.84 33.66 54.992 33.516L55.064 32.244C50.744 32.292 46.304 32.316 43.352 32.292ZM52.736 32.052C53.6 32.724 54.68 33.78 55.208 34.5L56.72 33.372C56.192 32.724 55.112 31.74 54.176 31.092L52.736 32.052ZM48.704 23.436V32.892L51.056 32.796V23.436H48.704ZM39.896 20.916V42.66H42.512V23.1H57.416V42.612H60.152V20.916H39.896ZM41.168 39.3V41.484H58.52V39.3H41.168ZM74.504 30.444V32.388H86.024V30.444H74.504ZM73.976 40.356V42.372H86.264V40.356H73.976ZM77.672 20.124V23.412H79.688V20.124H77.672ZM80.72 20.124V23.412H82.736V20.124H80.72ZM77.648 34.812H82.784V36.156H77.648V34.812ZM75.344 33.132V37.836H85.208V33.132H75.344ZM77.096 26.724H83.336V27.804H77.096V26.724ZM77.096 23.94H83.336V25.02H77.096V23.94ZM75.008 22.14V29.628H85.544V22.14H75.008ZM76.184 38.364C76.712 39.228 77.144 40.428 77.288 41.196L79.352 40.404C79.184 39.612 78.704 38.484 78.128 37.668L76.184 38.364ZM82.016 37.62C81.776 38.46 81.296 39.684 80.888 40.524L82.688 41.076C83.144 40.332 83.768 39.252 84.392 38.172L82.016 37.62ZM66.92 33.636V35.532H72.176V33.636H66.92ZM66.92 36.612V38.556H72.176V36.612H66.92ZM65.552 30.66V42.684H67.952V32.58H72.032V30.66H65.552ZM70.544 30.66V40.212C70.544 40.428 70.472 40.5 70.256 40.5C70.064 40.5 69.488 40.5 68.936 40.476C69.224 41.076 69.512 42.012 69.584 42.66C70.736 42.66 71.552 42.636 72.176 42.252C72.824 41.892 72.968 41.292 72.968 40.26V30.66H70.544ZM65.48 20.868V28.62H67.544V22.908H70.904V28.62H73.064V20.868H65.48ZM64.088 27.732V31.5H66.152V29.676H72.368V31.5H74.528V27.732H64.088ZM68.36 23.892V28.38H69.92V25.5H72.344V23.892H68.36ZM78.128 22.956V28.74H79.688V22.956H78.128ZM80.72 22.956V28.74H82.28V22.956H80.72ZM100.832 27.252V29.844H108.008V27.252H100.832ZM100.832 33.276V35.868H108.008V33.276H100.832ZM99.344 21.324V41.028H102.128V23.916H106.736V41.028H109.64V21.324H99.344ZM97.136 39.444V42.036H111.248V39.444H97.136ZM92.24 20.148C91.688 21.828 90.656 24.132 89.792 25.572L91.736 26.364C92.672 25.044 93.8 22.908 94.784 21.036L92.24 20.148ZM95.12 22.98C93.848 25.548 91.664 29.076 89.816 31.236L91.568 32.124C93.416 30.084 95.768 26.748 97.544 23.988L95.12 22.98ZM88.544 25.836C89.768 26.988 91.232 28.644 91.832 29.796L93.296 27.54C92.672 26.484 91.184 24.948 89.888 23.844L88.544 25.836ZM94.52 28.764C95.432 30.42 96.32 32.604 96.608 33.972L98.792 32.964C98.48 31.572 97.52 29.484 96.56 27.876L94.52 28.764ZM88.52 30.708L88.76 33.204C91.136 33.06 94.256 32.844 97.28 32.604V30.324C94.064 30.492 90.752 30.636 88.52 30.708ZM94.952 34.788C95.528 36.252 96.152 38.196 96.368 39.444L98.624 38.628C98.336 37.404 97.688 35.532 97.064 34.092L94.952 34.788ZM89.552 34.236C89.36 36.276 88.976 38.412 88.28 39.828C88.88 40.068 89.96 40.572 90.464 40.884C91.16 39.348 91.688 36.948 91.928 34.644L89.552 34.236ZM92.336 31.98V42.684H94.904V31.98H92.336Z" fill="white"/>
<path d="M134 0L150 15.7538V64H134V0Z" fill="white" fill-opacity="0.2"/>
<path d="M190 64L174 48.2462V0H190V64Z" fill="#02D7F2"/>
<rect width="144" height="64" transform="translate(190)" fill="#02D7F2"/>
<path d="M220.136 21.348V42.636H222.752V23.844H231.824V42.444H234.56V21.348H220.136ZM223.376 26.796V28.884H231.272V26.796H223.376ZM221.48 38.724V41.244H233.144V38.724H221.48ZM226.136 24.348V32.052H228.368V24.348H226.136ZM226.064 32.964H228.512V35.46H226.064V32.964ZM224 30.972V37.452H230.696V30.972H224ZM217.16 20.196C216.08 23.628 214.232 27.084 212.216 29.292C212.672 30.036 213.392 31.716 213.608 32.412C216.104 29.58 218.408 25.14 219.8 20.988L217.16 20.196ZM215.192 26.772V42.684H217.928V24.084L217.904 24.06L215.192 26.772ZM246.944 20.7C246.776 23.844 247.112 34.812 237.464 40.164C238.448 40.836 239.384 41.724 239.888 42.468C249.704 36.444 250.016 24.732 250.232 20.7H246.944ZM250.136 21.324L247.352 21.612C247.544 24.084 248 37.308 258.344 42.444C258.776 41.652 259.64 40.692 260.552 39.996C250.712 35.388 250.208 23.412 250.136 21.324ZM263.48 37.62V23.7H266.744V36.492L267.968 37.716H272.672L273.896 36.492V23.7H277.16V37.62L274.28 40.5H266.36L263.48 37.62ZM281.365 23.7H284.629V40.5H281.365V23.7ZM300.189 27.252V29.844H307.365V27.252H300.189ZM300.189 33.276V35.868H307.365V33.276H300.189ZM298.701 21.324V41.028H301.485V23.916H306.093V41.028H308.997V21.324H298.701ZM296.493 39.444V42.036H310.605V39.444H296.493ZM291.597 20.148C291.045 21.828 290.013 24.132 289.149 25.572L291.093 26.364C292.029 25.044 293.157 22.908 294.141 21.036L291.597 20.148ZM294.477 22.98C293.205 25.548 291.021 29.076 289.173 31.236L290.925 32.124C292.773 30.084 295.125 26.748 296.901 23.988L294.477 22.98ZM287.901 25.836C289.125 26.988 290.589 28.644 291.189 29.796L292.653 27.54C292.029 26.484 290.541 24.948 289.245 23.844L287.901 25.836ZM293.877 28.764C294.789 30.42 295.677 32.604 295.965 33.972L298.149 32.964C297.837 31.572 296.877 29.484 295.917 27.876L293.877 28.764ZM287.877 30.708L288.117 33.204C290.493 33.06 293.613 32.844 296.637 32.604V30.324C293.421 30.492 290.109 30.636 287.877 30.708ZM294.309 34.788C294.885 36.252 295.509 38.196 295.725 39.444L297.981 38.628C297.693 37.404 297.045 35.532 296.421 34.092L294.309 34.788ZM288.909 34.236C288.717 36.276 288.333 38.412 287.637 39.828C288.237 40.068 289.317 40.572 289.821 40.884C290.517 39.348 291.045 36.948 291.285 34.644L288.909 34.236ZM291.693 31.98V42.684H294.261V31.98H291.693Z" fill="black"/>
<path d="M334 0L350 15.7538V64H334V0Z" fill="#02D7F2"/>
<path d="M390 64L374 48.2462V0H390V64Z" fill="white" fill-opacity="0.2"/>
<rect width="168" height="64" transform="translate(390)" fill="white" fill-opacity="0.2"/>
<path d="M420.136 21.348V42.636H422.752V23.844H431.824V42.444H434.56V21.348H420.136ZM423.376 26.796V28.884H431.272V26.796H423.376ZM421.48 38.724V41.244H433.144V38.724H421.48ZM426.136 24.348V32.052H428.368V24.348H426.136ZM426.064 32.964H428.512V35.46H426.064V32.964ZM424 30.972V37.452H430.696V30.972H424ZM417.16 20.196C416.08 23.628 414.232 27.084 412.216 29.292C412.672 30.036 413.392 31.716 413.608 32.412C416.104 29.58 418.408 25.14 419.8 20.988L417.16 20.196ZM415.192 26.772V42.684H417.928V24.084L417.904 24.06L415.192 26.772ZM446.944 20.7C446.776 23.844 447.112 34.812 437.464 40.164C438.448 40.836 439.384 41.724 439.888 42.468C449.704 36.444 450.016 24.732 450.232 20.7H446.944ZM450.136 21.324L447.352 21.612C447.544 24.084 448 37.308 458.344 42.444C458.776 41.652 459.64 40.692 460.552 39.996C450.712 35.388 450.208 23.412 450.136 21.324ZM463 23.676V26.292H484.84V23.676H463ZM465.832 31.86V33.972H472.072V31.86H465.832ZM465.832 35.532V37.668H472.072V35.532H465.832ZM475.888 28.188V38.028H478.552V28.188H475.888ZM471.064 27.948V39.78C471.064 40.068 470.968 40.164 470.656 40.164C470.368 40.188 469.384 40.188 468.496 40.14C468.856 40.812 469.264 41.868 469.408 42.588C470.896 42.588 472 42.564 472.792 42.132C473.608 41.724 473.848 41.052 473.848 39.828V27.948H471.064ZM480.712 27.54V39.468C480.712 39.804 480.592 39.9 480.208 39.9C479.8 39.924 478.552 39.924 477.328 39.852C477.736 40.596 478.192 41.82 478.336 42.588C480.112 42.612 481.408 42.516 482.32 42.084C483.28 41.652 483.544 40.908 483.544 39.516V27.54H480.712ZM466.312 21.06C467.152 22.02 468.04 23.388 468.376 24.252L471.28 23.22C470.872 22.308 469.912 21.036 469.048 20.1L466.312 21.06ZM478.624 20.052C478.096 21.348 477.112 23.1 476.296 24.228L478.888 25.116C479.728 24.06 480.784 22.524 481.768 20.988L478.624 20.052ZM464.32 27.948V42.516H467.032V30.348H471.88V27.948H464.32ZM495.832 28.716V31.26H510.064V28.716H495.832ZM500.152 33.828V42.396H502.336V33.828H500.152ZM503.632 33.828V42.372H505.816V33.828H503.632ZM501.496 20.196V26.436H504.256V20.196H501.496ZM496.36 32.868V42.612H498.928V35.268H508.528V32.868H496.36ZM507.088 32.868V40.14C507.088 40.332 507.04 40.404 506.848 40.404C506.68 40.428 506.2 40.428 505.72 40.404C506.032 41.028 506.32 41.988 506.392 42.684C507.448 42.684 508.24 42.66 508.888 42.252C509.512 41.892 509.656 41.244 509.656 40.188V32.868H507.088ZM501.376 29.556C501.256 30.804 500.92 32.508 500.608 33.732L503.032 34.428C503.536 33.396 504.112 31.812 504.76 30.276L501.376 29.556ZM496.696 21.3V27.468H509.32V21.3H506.584V24.996H499.312V21.3H496.696ZM487.936 24.684V27.252H495.568V24.684H487.936ZM490.552 20.484V25.932H493.12V20.484H490.552ZM487.408 37.188L488.032 39.996C490.384 39.42 493.408 38.676 496.216 37.932L495.928 35.412C492.832 36.084 489.592 36.78 487.408 37.188ZM488.2 28.308C488.632 30.564 488.944 33.516 488.92 35.46L491.176 35.052C491.152 33.108 490.84 30.204 490.312 27.924L488.2 28.308ZM492.808 27.756C492.64 30.276 492.16 33.756 491.656 35.916L493.744 36.444C494.32 34.38 494.968 31.02 495.472 28.284L492.808 27.756ZM524.752 27.252V29.844H531.928V27.252H524.752ZM524.752 33.276V35.868H531.928V33.276H524.752ZM523.264 21.324V41.028H526.048V23.916H530.656V41.028H533.56V21.324H523.264ZM521.056 39.444V42.036H535.168V39.444H521.056ZM516.16 20.148C515.608 21.828 514.576 24.132 513.712 25.572L515.656 26.364C516.592 25.044 517.72 22.908 518.704 21.036L516.16 20.148ZM519.04 22.98C517.768 25.548 515.584 29.076 513.736 31.236L515.488 32.124C517.336 30.084 519.688 26.748 521.464 23.988L519.04 22.98ZM512.464 25.836C513.688 26.988 515.152 28.644 515.752 29.796L517.216 27.54C516.592 26.484 515.104 24.948 513.808 23.844L512.464 25.836ZM518.44 28.764C519.352 30.42 520.24 32.604 520.528 33.972L522.712 32.964C522.4 31.572 521.44 29.484 520.48 27.876L518.44 28.764ZM512.44 30.708L512.68 33.204C515.056 33.06 518.176 32.844 521.2 32.604V30.324C517.984 30.492 514.672 30.636 512.44 30.708ZM518.872 34.788C519.448 36.252 520.072 38.196 520.288 39.444L522.544 38.628C522.256 37.404 521.608 35.532 520.984 34.092L518.872 34.788ZM513.472 34.236C513.28 36.276 512.896 38.412 512.2 39.828C512.8 40.068 513.88 40.572 514.384 40.884C515.08 39.348 515.608 36.948 515.848 34.644L513.472 34.236ZM516.256 31.98V42.684H518.824V31.98H516.256Z" fill="white"/>
<path d="M558 0L574 15.7538V64H558V0Z" fill="white" fill-opacity="0.2"/>
</svg>
