<svg width="689" height="236" viewBox="0 0 689 236" fill="none" xmlns="http://www.w3.org/2000/svg">
<g filter="url(#filter0_d_40_110)">
<path d="M5.48999 94H42.98V102.5L56.98 116.5H75.5L163.51 207.11H578.005L584.635 213.74V229H682.004V92.17H630.505L621.085 82.75H491.339H485.179V94.5L426.179 35.5L396.68 6" stroke="#DEFE47" stroke-width="2.5" stroke-miterlimit="10"/>
</g>
<path d="M136.798 117.417H126.618L115.112 106L64 106V106.855H111.538L119.479 114.726H98.815L108.387 124.223L117.612 133.376H131.687L153.061 154.575V158.422L190.934 196H216L136.798 117.417Z" fill="#DEFE47"/>
<path d="M125 140L180.915 196H189L133.085 140H125Z" fill="#DEFE47"/>
<path d="M146 108.5H670.51V193H230.01L146 108.5Z" fill="#DEFE47" fill-opacity="0.2"/>
<line x1="592.51" y1="210" x2="670.51" y2="210" stroke="#DEFE47" stroke-width="18" stroke-dasharray="3 3"/>
<g filter="url(#filter1_d_40_110)">
<line x1="61" y1="93.75" x2="463" y2="93.75" stroke="#DEFE47" stroke-width="2.5"/>
</g>
<g filter="url(#filter2_d_40_110)">
<line x1="5" y1="83.25" x2="452" y2="83.25" stroke="#DEFE47" stroke-width="1.5"/>
</g>
<defs>
<filter id="filter0_d_40_110" x="0.48999" y="0.116089" width="687.764" height="235.134" filterUnits="userSpaceOnUse" color-interpolation-filters="sRGB">
<feFlood flood-opacity="0" result="BackgroundImageFix"/>
<feColorMatrix in="SourceAlpha" type="matrix" values="0 0 0 0 0 0 0 0 0 0 0 0 0 0 0 0 0 0 127 0" result="hardAlpha"/>
<feOffset/>
<feGaussianBlur stdDeviation="2.5"/>
<feComposite in2="hardAlpha" operator="out"/>
<feColorMatrix type="matrix" values="0 0 0 0 0.870588 0 0 0 0 0.996078 0 0 0 0 0.278431 0 0 0 1 0"/>
<feBlend mode="normal" in2="BackgroundImageFix" result="effect1_dropShadow_40_110"/>
<feBlend mode="normal" in="SourceGraphic" in2="effect1_dropShadow_40_110" result="shape"/>
</filter>
<filter id="filter1_d_40_110" x="56" y="87.5" width="412" height="12.5" filterUnits="userSpaceOnUse" color-interpolation-filters="sRGB">
<feFlood flood-opacity="0" result="BackgroundImageFix"/>
<feColorMatrix in="SourceAlpha" type="matrix" values="0 0 0 0 0 0 0 0 0 0 0 0 0 0 0 0 0 0 127 0" result="hardAlpha"/>
<feOffset/>
<feGaussianBlur stdDeviation="2.5"/>
<feComposite in2="hardAlpha" operator="out"/>
<feColorMatrix type="matrix" values="0 0 0 0 0.870588 0 0 0 0 0.996078 0 0 0 0 0.278431 0 0 0 1 0"/>
<feBlend mode="normal" in2="BackgroundImageFix" result="effect1_dropShadow_40_110"/>
<feBlend mode="normal" in="SourceGraphic" in2="effect1_dropShadow_40_110" result="shape"/>
</filter>
<filter id="filter2_d_40_110" x="0" y="77.5" width="457" height="11.5" filterUnits="userSpaceOnUse" color-interpolation-filters="sRGB">
<feFlood flood-opacity="0" result="BackgroundImageFix"/>
<feColorMatrix in="SourceAlpha" type="matrix" values="0 0 0 0 0 0 0 0 0 0 0 0 0 0 0 0 0 0 127 0" result="hardAlpha"/>
<feOffset/>
<feGaussianBlur stdDeviation="2.5"/>
<feComposite in2="hardAlpha" operator="out"/>
<feColorMatrix type="matrix" values="0 0 0 0 0.870588 0 0 0 0 0.996078 0 0 0 0 0.278431 0 0 0 1 0"/>
<feBlend mode="normal" in2="BackgroundImageFix" result="effect1_dropShadow_40_110"/>
<feBlend mode="normal" in="SourceGraphic" in2="effect1_dropShadow_40_110" result="shape"/>
</filter>
</defs>
</svg>
