<svg width="646" height="230" viewBox="0 0 646 230" fill="none" xmlns="http://www.w3.org/2000/svg">
<path d="M620.5 206.5L204 206.497V112.728H140.08L132.46 120.348L153.37 141.268H161.91L173.14 152.498V156.398H135.39L57.8201 78.8175L63.3701 73.2675L85.04 94.9375H95.0801L1.14014 0.997513" stroke="#DEFE47" stroke-width="2.5" stroke-miterlimit="10"/>
<path d="M233 119L635.5 119V150.34L617.83 168H606.83V180.67L594.66 192.84H233V119Z" fill="#DEFE47" fill-opacity="0.2"/>
<rect x="219" y="119" width="8" height="74" fill="#DEFE47"/>
<path d="M386.5 104H379V111.5H386.5V104Z" stroke="#DEFE47" stroke-width="0.5" stroke-miterlimit="10"/>
<path d="M398.87 104H391.37V111.5H398.87V104Z" stroke="#DEFE47" stroke-width="0.5" stroke-miterlimit="10"/>
<path d="M411.25 104H403.75V111.5H411.25V104Z" stroke="#DEFE47" stroke-width="0.5" stroke-miterlimit="10"/>
<path d="M423.62 104H416.12V111.5H423.62V104Z" stroke="#DEFE47" stroke-width="0.5" stroke-miterlimit="10"/>
<path d="M436 104H428.5V111.5H436V104Z" stroke="#DEFE47" stroke-width="0.5" stroke-miterlimit="10"/>
<path d="M448.37 104H440.87V111.5H448.37V104Z" stroke="#DEFE47" stroke-width="0.5" stroke-miterlimit="10"/>
<path d="M460.75 104H453.25V111.5H460.75V104Z" stroke="#DEFE47" stroke-width="0.5" stroke-miterlimit="10"/>
<path d="M203 103.29L297.5 103.29L305 94.9999L468 94.9999L476.29 103.29L644.5 103.29L644.5 203L631.5 216L423.5 216L410.5 229" stroke="#DEFE47" stroke-width="2.5" stroke-miterlimit="10"/>
<g filter="url(#filter0_d_40_92)">
<line x1="307" y1="104" x2="373" y2="104" stroke="#DEFE47" stroke-width="2"/>
</g>
<g filter="url(#filter1_d_40_92)">
<line x1="307" y1="111" x2="373" y2="111" stroke="#DEFE47" stroke-width="2"/>
</g>
<path d="M203 214H416L405.064 224H203V214Z" fill="url(#paint0_linear_40_92)"/>
<defs>
<filter id="filter0_d_40_92" x="302" y="97.9999" width="76" height="12" filterUnits="userSpaceOnUse" color-interpolation-filters="sRGB">
<feFlood flood-opacity="0" result="BackgroundImageFix"/>
<feColorMatrix in="SourceAlpha" type="matrix" values="0 0 0 0 0 0 0 0 0 0 0 0 0 0 0 0 0 0 127 0" result="hardAlpha"/>
<feOffset/>
<feGaussianBlur stdDeviation="2.5"/>
<feComposite in2="hardAlpha" operator="out"/>
<feColorMatrix type="matrix" values="0 0 0 0 0.870588 0 0 0 0 0.996078 0 0 0 0 0.278431 0 0 0 1 0"/>
<feBlend mode="normal" in2="BackgroundImageFix" result="effect1_dropShadow_40_92"/>
<feBlend mode="normal" in="SourceGraphic" in2="effect1_dropShadow_40_92" result="shape"/>
</filter>
<filter id="filter1_d_40_92" x="302" y="105" width="76" height="12" filterUnits="userSpaceOnUse" color-interpolation-filters="sRGB">
<feFlood flood-opacity="0" result="BackgroundImageFix"/>
<feColorMatrix in="SourceAlpha" type="matrix" values="0 0 0 0 0 0 0 0 0 0 0 0 0 0 0 0 0 0 127 0" result="hardAlpha"/>
<feOffset/>
<feGaussianBlur stdDeviation="2.5"/>
<feComposite in2="hardAlpha" operator="out"/>
<feColorMatrix type="matrix" values="0 0 0 0 0.870588 0 0 0 0 0.996078 0 0 0 0 0.278431 0 0 0 1 0"/>
<feBlend mode="normal" in2="BackgroundImageFix" result="effect1_dropShadow_40_92"/>
<feBlend mode="normal" in="SourceGraphic" in2="effect1_dropShadow_40_92" result="shape"/>
</filter>
<linearGradient id="paint0_linear_40_92" x1="411" y1="219" x2="203" y2="219" gradientUnits="userSpaceOnUse">
<stop stop-color="#DEFE47"/>
<stop offset="1" stop-color="#DEFE47" stop-opacity="0"/>
</linearGradient>
</defs>
</svg>
