<svg width="1054" height="158" viewBox="0 0 1054 158" fill="none" xmlns="http://www.w3.org/2000/svg">
<g filter="url(#filter0_d_257_5030)">
<mask id="path-1-outside-1_257_5030" maskUnits="userSpaceOnUse" x="3.60001" y="-0.350098" width="1046" height="150" fill="black">
<rect fill="white" x="3.60001" y="-0.350098" width="1046" height="150"/>
<path d="M11.4 11.5999V28.3999H139.65V11.5999H11.4ZM46.95 45.3499V61.3999H106.8V45.3499H46.95ZM39.3 85.6999V101.75H102V85.6999H39.3ZM6.60001 121.55V138.2H143.85V121.55H6.60001ZM44.1 23.4499C39.75 50.4499 31.95 85.3999 25.5 107.45L45.15 108.95C50.85 87.1999 58.5 51.7999 63.75 23.4499H44.1ZM98.4 45.3499C96.15 72.0499 91.5 106.25 87.45 127.85H107.25C110.7 107 114.9 72.7999 117.75 45.3499H98.4ZM158.7 100.7V113.45H228.75V100.7H158.7ZM155.25 29.2999V42.3499H230.25V29.2999H155.25ZM185.1 18.6499V126.2H201.3V18.6499H185.1ZM154.5 124.55L156.6 139.55C176.1 137.75 203.4 135.05 228.9 132.35L228.75 118.7C201.75 121.1 173.1 123.2 154.5 124.55ZM173.55 76.6999H213.15V83.5999H173.55V76.6999ZM173.55 59.4499H213.15V66.1999H173.55V59.4499ZM159.15 48.1999V94.8499H228V48.1999H159.15ZM220.65 4.3999C204.15 7.9999 178.05 10.6999 155.7 11.7499C157.35 15.1999 159 20.8999 159.6 24.4999C182.1 24.0499 209.4 21.7999 228.6 17.8999L220.65 4.3999ZM230.25 37.5499V54.0499H282.15V37.5499H230.25ZM274.95 37.5499V41.4499C273.75 99.4999 272.55 120.65 269.1 125.15C267.75 127.25 266.25 127.7 264 127.7C261 127.7 255.3 127.7 248.85 127.1C251.7 131.9 253.65 139.25 254.1 144.2C261.15 144.5 268.2 144.5 272.85 143.6C277.8 142.7 281.25 141.05 284.55 135.95C289.5 129.2 290.7 107.3 292.05 45.4999C292.05 43.3999 292.2 37.5499 292.2 37.5499H274.95ZM244.65 6.19991C244.5 66.0499 246.15 108.05 214.5 132.2C218.55 135.2 224.4 141.35 226.95 145.7C261.6 118.4 261.75 70.2499 261.9 6.19991H244.65ZM406.95 13.5499C413.85 18.4999 422.25 25.9999 426.15 31.0999L438.75 20.2999C434.55 15.3499 425.7 8.2999 418.95 3.6499L406.95 13.5499ZM307.65 29.1499V46.6999H442.65V29.1499H307.65ZM313.2 63.9499V81.3499H378.15V63.9499H313.2ZM336 73.8499V124.7H354V73.8499H336ZM307.5 122.15L312.6 140.3C332.1 136.25 358.65 130.7 383.4 125.3L382.05 109.25C355.05 114.35 325.65 119.45 307.5 122.15ZM381.3 4.2499C381.45 73.6999 390.9 144.65 423.45 144.65C437.7 144.65 443.85 137.6 446.55 108.95C441.45 107.15 434.85 102.8 430.8 98.5999C429.9 117.5 428.25 125.75 424.95 125.75C410.7 125.75 399.3 65.8999 400.65 4.2499H381.3ZM543.3 64.0999V80.4499H558.45V64.0999H543.3ZM558.9 28.3999C557.85 34.5499 555.3 43.2499 553.2 49.0999L563.4 52.5499C565.95 47.4499 569.1 39.4999 572.55 32.4499L558.9 28.3999ZM531 33.0499C533.55 39.0499 535.8 47.2999 536.25 52.5499L547.8 48.3499C547.05 43.2499 544.65 35.2999 541.65 29.2999L531 33.0499ZM510.75 10.0999V144.8H526.8V25.6999H580.8V10.0999H510.75ZM575.4 10.0999V126.65C575.4 128.75 574.65 129.5 572.55 129.65C570.45 129.65 563.7 129.65 557.55 129.35C559.65 133.55 561.9 140.45 562.35 144.65C572.85 144.65 580.05 144.2 585.15 141.8C590.1 139.1 591.6 134.9 591.6 126.8V10.0999H575.4ZM530.55 51.1999V64.5499H571.35V51.1999H530.55ZM530.1 76.3999V89.8999H571.65V76.3999H530.1ZM535.05 83.4499V103.1C535.05 117.2 538.05 122.15 552.45 122.15C554.1 122.15 560.55 122.15 562.5 122.15C565.8 122.15 568.95 122 571.2 121.1C570.75 117.65 570.3 111.05 570 107.15C568.05 107.75 564.45 108.05 562.35 108.05C560.55 108.05 554.1 108.05 552.3 108.05C550.35 108.05 550.05 106.85 550.05 103.25V83.4499H535.05ZM476.85 3.7999C473.4 14.1499 466.95 28.6999 461.7 37.6999L473.7 42.6499C479.4 34.2499 486.3 20.8999 492.45 9.1999L476.85 3.7999ZM493.8 21.4999C485.85 37.5499 472.2 59.4499 460.95 72.9499L471.3 78.7999C482.85 65.8999 497.4 45.0499 508.35 28.2499L493.8 21.4999ZM453.6 38.7499C461.1 46.3999 469.95 57.0499 473.25 64.3999L483 50.5999C479.4 43.5499 470.25 33.7999 462.45 26.7499L453.6 38.7499ZM488.7 57.4999C494.25 67.8499 499.5 81.6499 501.15 90.3499L514.65 84.1999C512.85 75.6499 507.15 62.4499 501.15 52.2499L488.7 57.4999ZM453.15 69.4999L455.1 84.9499C469.05 83.8999 487.35 82.5499 504.9 81.1999L504.75 66.4999C486 67.6999 466.65 68.7499 453.15 69.4999ZM492.75 95.1499C496.05 103.7 498.9 114.8 499.65 122.15L513 117.8C511.95 110.6 508.95 99.6499 505.35 91.2499L492.75 95.1499ZM459.6 91.8499C458.4 104.45 456.15 117.95 451.95 126.8C455.4 128.3 462 131.15 465 133.1C469.35 123.5 472.5 108.65 474 94.2499L459.6 91.8499ZM476.1 77.4499V144.5H491.55V77.4499H476.1ZM643.2 70.8499H707.25V79.0999H643.2V70.8499ZM643.2 91.9999H707.25V100.4H643.2V91.9999ZM643.2 49.6999H707.25V57.9499H643.2V49.6999ZM624.3 36.0499V114.05H726.9V36.0499H624.3ZM682.2 125C698.85 130.7 716.1 138.95 726 144.5L744 132.5C732.45 126.95 712.8 119 695.7 113.3L682.2 125ZM611.55 10.5499V26.8999H737.4V10.5499H611.55ZM665.25 18.4999C664.8 25.5499 663 35.2999 661.35 42.1999L678.75 45.0499C681.15 38.8999 684.3 30.0499 687.15 20.7499L665.25 18.4999ZM652.2 112.25C641.85 118.7 621.6 126.5 605.7 130.55C609.9 134.3 615.15 140.45 618.15 144.35C633.9 140 654.3 132.05 667.8 124.55L652.2 112.25ZM822.6 7.9999V25.8499C822.6 36.0499 821.1 48.0499 807.45 57.0499C811.05 59.2999 818.25 65.2999 820.8 68.5999C836.55 57.7999 839.7 40.3999 839.7 26.2999V7.9999H822.6ZM856.35 7.9999V41.8999C856.35 56.8999 859.95 61.5499 871.95 61.5499C874.35 61.5499 878.4 61.5499 880.8 61.5499C890.7 61.5499 894.9 56.2999 896.4 37.5499C891.9 36.4999 884.85 33.7999 881.7 31.2499C881.4 44.2999 880.8 46.2499 879 46.2499C878.1 46.2499 875.85 46.2499 875.1 46.2499C873.45 46.2499 873.3 45.7999 873.3 41.5999V7.9999H856.35ZM836.85 84.4999L820.95 89.5999C833.85 116.45 855 135.5 885 144.35C887.4 139.85 892.65 132.5 896.7 128.9C868.5 122 847.05 105.8 836.85 84.4999ZM870.45 68.2999V70.9999C862.65 101.45 838.8 120.95 807.6 128.6C810.9 132.35 815.4 139.85 817.2 144.35C852.3 133.7 878.25 112.1 888.6 71.8999L876.9 67.6999L873.75 68.2999H870.45ZM815.4 68.2999V84.4999H877.5V68.2999H815.4ZM829.5 7.9999V23.7499H865.5V7.9999H829.5ZM761.7 49.6999V63.1999H808.05V49.6999H761.7ZM762.15 8.2999V21.9499H807.75V8.2999H762.15ZM761.7 70.0999V83.7499H808.05V70.0999H761.7ZM754.35 28.5499V42.7999H813.45V28.5499H754.35ZM769.95 90.9499V105.2H792.45V122.3H769.95V136.55H807.9V90.9499H769.95ZM761.25 90.9499V142.55H776.4V90.9499H761.25ZM965.4 54.0499V71.8999H1046.7V54.0499H965.4ZM997.05 4.2499V144.5H1015.35V4.2499H997.05ZM911.7 49.6999V63.1999H960.15V49.6999H911.7ZM912.6 8.2999V21.9499H960.45V8.2999H912.6ZM911.7 70.0999V83.7499H960.15V70.0999H911.7ZM904.35 28.5499V42.7999H966.15V28.5499H904.35ZM919.95 90.9499V105.2H943.95V122.3H919.95V136.55H959.7V90.9499H919.95ZM911.25 90.9499V142.55H926.85V90.9499H911.25Z"/>
</mask>
<path d="M11.4 11.5999V28.3999H139.65V11.5999H11.4ZM46.95 45.3499V61.3999H106.8V45.3499H46.95ZM39.3 85.6999V101.75H102V85.6999H39.3ZM6.60001 121.55V138.2H143.85V121.55H6.60001ZM44.1 23.4499C39.75 50.4499 31.95 85.3999 25.5 107.45L45.15 108.95C50.85 87.1999 58.5 51.7999 63.75 23.4499H44.1ZM98.4 45.3499C96.15 72.0499 91.5 106.25 87.45 127.85H107.25C110.7 107 114.9 72.7999 117.75 45.3499H98.4ZM158.7 100.7V113.45H228.75V100.7H158.7ZM155.25 29.2999V42.3499H230.25V29.2999H155.25ZM185.1 18.6499V126.2H201.3V18.6499H185.1ZM154.5 124.55L156.6 139.55C176.1 137.75 203.4 135.05 228.9 132.35L228.75 118.7C201.75 121.1 173.1 123.2 154.5 124.55ZM173.55 76.6999H213.15V83.5999H173.55V76.6999ZM173.55 59.4499H213.15V66.1999H173.55V59.4499ZM159.15 48.1999V94.8499H228V48.1999H159.15ZM220.65 4.3999C204.15 7.9999 178.05 10.6999 155.7 11.7499C157.35 15.1999 159 20.8999 159.6 24.4999C182.1 24.0499 209.4 21.7999 228.6 17.8999L220.65 4.3999ZM230.25 37.5499V54.0499H282.15V37.5499H230.25ZM274.95 37.5499V41.4499C273.75 99.4999 272.55 120.65 269.1 125.15C267.75 127.25 266.25 127.7 264 127.7C261 127.7 255.3 127.7 248.85 127.1C251.7 131.9 253.65 139.25 254.1 144.2C261.15 144.5 268.2 144.5 272.85 143.6C277.8 142.7 281.25 141.05 284.55 135.95C289.5 129.2 290.7 107.3 292.05 45.4999C292.05 43.3999 292.2 37.5499 292.2 37.5499H274.95ZM244.65 6.19991C244.5 66.0499 246.15 108.05 214.5 132.2C218.55 135.2 224.4 141.35 226.95 145.7C261.6 118.4 261.75 70.2499 261.9 6.19991H244.65ZM406.95 13.5499C413.85 18.4999 422.25 25.9999 426.15 31.0999L438.75 20.2999C434.55 15.3499 425.7 8.2999 418.95 3.6499L406.95 13.5499ZM307.65 29.1499V46.6999H442.65V29.1499H307.65ZM313.2 63.9499V81.3499H378.15V63.9499H313.2ZM336 73.8499V124.7H354V73.8499H336ZM307.5 122.15L312.6 140.3C332.1 136.25 358.65 130.7 383.4 125.3L382.05 109.25C355.05 114.35 325.65 119.45 307.5 122.15ZM381.3 4.2499C381.45 73.6999 390.9 144.65 423.45 144.65C437.7 144.65 443.85 137.6 446.55 108.95C441.45 107.15 434.85 102.8 430.8 98.5999C429.9 117.5 428.25 125.75 424.95 125.75C410.7 125.75 399.3 65.8999 400.65 4.2499H381.3ZM543.3 64.0999V80.4499H558.45V64.0999H543.3ZM558.9 28.3999C557.85 34.5499 555.3 43.2499 553.2 49.0999L563.4 52.5499C565.95 47.4499 569.1 39.4999 572.55 32.4499L558.9 28.3999ZM531 33.0499C533.55 39.0499 535.8 47.2999 536.25 52.5499L547.8 48.3499C547.05 43.2499 544.65 35.2999 541.65 29.2999L531 33.0499ZM510.75 10.0999V144.8H526.8V25.6999H580.8V10.0999H510.75ZM575.4 10.0999V126.65C575.4 128.75 574.65 129.5 572.55 129.65C570.45 129.65 563.7 129.65 557.55 129.35C559.65 133.55 561.9 140.45 562.35 144.65C572.85 144.65 580.05 144.2 585.15 141.8C590.1 139.1 591.6 134.9 591.6 126.8V10.0999H575.4ZM530.55 51.1999V64.5499H571.35V51.1999H530.55ZM530.1 76.3999V89.8999H571.65V76.3999H530.1ZM535.05 83.4499V103.1C535.05 117.2 538.05 122.15 552.45 122.15C554.1 122.15 560.55 122.15 562.5 122.15C565.8 122.15 568.95 122 571.2 121.1C570.75 117.65 570.3 111.05 570 107.15C568.05 107.75 564.45 108.05 562.35 108.05C560.55 108.05 554.1 108.05 552.3 108.05C550.35 108.05 550.05 106.85 550.05 103.25V83.4499H535.05ZM476.85 3.7999C473.4 14.1499 466.95 28.6999 461.7 37.6999L473.7 42.6499C479.4 34.2499 486.3 20.8999 492.45 9.1999L476.85 3.7999ZM493.8 21.4999C485.85 37.5499 472.2 59.4499 460.95 72.9499L471.3 78.7999C482.85 65.8999 497.4 45.0499 508.35 28.2499L493.8 21.4999ZM453.6 38.7499C461.1 46.3999 469.95 57.0499 473.25 64.3999L483 50.5999C479.4 43.5499 470.25 33.7999 462.45 26.7499L453.6 38.7499ZM488.7 57.4999C494.25 67.8499 499.5 81.6499 501.15 90.3499L514.65 84.1999C512.85 75.6499 507.15 62.4499 501.15 52.2499L488.7 57.4999ZM453.15 69.4999L455.1 84.9499C469.05 83.8999 487.35 82.5499 504.9 81.1999L504.75 66.4999C486 67.6999 466.65 68.7499 453.15 69.4999ZM492.75 95.1499C496.05 103.7 498.9 114.8 499.65 122.15L513 117.8C511.95 110.6 508.95 99.6499 505.35 91.2499L492.75 95.1499ZM459.6 91.8499C458.4 104.45 456.15 117.95 451.95 126.8C455.4 128.3 462 131.15 465 133.1C469.35 123.5 472.5 108.65 474 94.2499L459.6 91.8499ZM476.1 77.4499V144.5H491.55V77.4499H476.1ZM643.2 70.8499H707.25V79.0999H643.2V70.8499ZM643.2 91.9999H707.25V100.4H643.2V91.9999ZM643.2 49.6999H707.25V57.9499H643.2V49.6999ZM624.3 36.0499V114.05H726.9V36.0499H624.3ZM682.2 125C698.85 130.7 716.1 138.95 726 144.5L744 132.5C732.45 126.95 712.8 119 695.7 113.3L682.2 125ZM611.55 10.5499V26.8999H737.4V10.5499H611.55ZM665.25 18.4999C664.8 25.5499 663 35.2999 661.35 42.1999L678.75 45.0499C681.15 38.8999 684.3 30.0499 687.15 20.7499L665.25 18.4999ZM652.2 112.25C641.85 118.7 621.6 126.5 605.7 130.55C609.9 134.3 615.15 140.45 618.15 144.35C633.9 140 654.3 132.05 667.8 124.55L652.2 112.25ZM822.6 7.9999V25.8499C822.6 36.0499 821.1 48.0499 807.45 57.0499C811.05 59.2999 818.25 65.2999 820.8 68.5999C836.55 57.7999 839.7 40.3999 839.7 26.2999V7.9999H822.6ZM856.35 7.9999V41.8999C856.35 56.8999 859.95 61.5499 871.95 61.5499C874.35 61.5499 878.4 61.5499 880.8 61.5499C890.7 61.5499 894.9 56.2999 896.4 37.5499C891.9 36.4999 884.85 33.7999 881.7 31.2499C881.4 44.2999 880.8 46.2499 879 46.2499C878.1 46.2499 875.85 46.2499 875.1 46.2499C873.45 46.2499 873.3 45.7999 873.3 41.5999V7.9999H856.35ZM836.85 84.4999L820.95 89.5999C833.85 116.45 855 135.5 885 144.35C887.4 139.85 892.65 132.5 896.7 128.9C868.5 122 847.05 105.8 836.85 84.4999ZM870.45 68.2999V70.9999C862.65 101.45 838.8 120.95 807.6 128.6C810.9 132.35 815.4 139.85 817.2 144.35C852.3 133.7 878.25 112.1 888.6 71.8999L876.9 67.6999L873.75 68.2999H870.45ZM815.4 68.2999V84.4999H877.5V68.2999H815.4ZM829.5 7.9999V23.7499H865.5V7.9999H829.5ZM761.7 49.6999V63.1999H808.05V49.6999H761.7ZM762.15 8.2999V21.9499H807.75V8.2999H762.15ZM761.7 70.0999V83.7499H808.05V70.0999H761.7ZM754.35 28.5499V42.7999H813.45V28.5499H754.35ZM769.95 90.9499V105.2H792.45V122.3H769.95V136.55H807.9V90.9499H769.95ZM761.25 90.9499V142.55H776.4V90.9499H761.25ZM965.4 54.0499V71.8999H1046.7V54.0499H965.4ZM997.05 4.2499V144.5H1015.35V4.2499H997.05ZM911.7 49.6999V63.1999H960.15V49.6999H911.7ZM912.6 8.2999V21.9499H960.45V8.2999H912.6ZM911.7 70.0999V83.7499H960.15V70.0999H911.7ZM904.35 28.5499V42.7999H966.15V28.5499H904.35ZM919.95 90.9499V105.2H943.95V122.3H919.95V136.55H959.7V90.9499H919.95ZM911.25 90.9499V142.55H926.85V90.9499H911.25Z" stroke="white" stroke-width="5" shape-rendering="crispEdges" mask="url(#path-1-outside-1_257_5030)"/>
</g>
<defs>
<filter id="filter0_d_257_5030" x="0.100006" y="0.520752" width="1053.1" height="156.918" filterUnits="userSpaceOnUse" color-interpolation-filters="sRGB">
<feFlood flood-opacity="0" result="BackgroundImageFix"/>
<feColorMatrix in="SourceAlpha" type="matrix" values="0 0 0 0 0 0 0 0 0 0 0 0 0 0 0 0 0 0 127 0" result="hardAlpha"/>
<feOffset dy="4"/>
<feGaussianBlur stdDeviation="2"/>
<feComposite in2="hardAlpha" operator="out"/>
<feColorMatrix type="matrix" values="0 0 0 0 0 0 0 0 0 0 0 0 0 0 0 0 0 0 0.25 0"/>
<feBlend mode="normal" in2="BackgroundImageFix" result="effect1_dropShadow_257_5030"/>
<feBlend mode="normal" in="SourceGraphic" in2="effect1_dropShadow_257_5030" result="shape"/>
</filter>
</defs>
</svg>
